<svg xmlns="http://www.w3.org/2000/svg" xmlns:xlink="http://www.w3.org/1999/xlink" width="67" zoomAndPan="magnify" viewBox="0 0 50.25 36" height="48" preserveAspectRatio="xMidYMid meet" version="1.0"><defs><clipPath id="d2ef3fea98"><path d="M 0.3125 9 L 48 9 L 48 31 L 0.3125 31 Z M 0.3125 9 " clip-rule="nonzero"/></clipPath><clipPath id="a98ed48a8b"><path d="M 0.316406 19.335938 L 45.238281 3.417969 L 51.117188 20.003906 L 6.191406 35.921875 Z M 0.316406 19.335938 " clip-rule="nonzero"/></clipPath><clipPath id="096eb712ba"><path d="M 0.316406 19.335938 L 45.238281 3.417969 L 51.117188 20.003906 L 6.191406 35.921875 Z M 0.316406 19.335938 " clip-rule="nonzero"/></clipPath><clipPath id="8546372d10"><path d="M 0.316406 19.335938 L 45.238281 3.417969 L 51.117188 20.003906 L 6.191406 35.921875 Z M 0.316406 19.335938 " clip-rule="nonzero"/></clipPath><clipPath id="ac6cf2aae4"><path d="M 5 9 L 48 9 L 48 26 L 5 26 Z M 5 9 " clip-rule="nonzero"/></clipPath><clipPath id="70d3f6671b"><path d="M 0.316406 19.335938 L 45.238281 3.417969 L 51.117188 20.003906 L 6.191406 35.921875 Z M 0.316406 19.335938 " clip-rule="nonzero"/></clipPath><clipPath id="2908113384"><path d="M 0.316406 19.335938 L 45.238281 3.417969 L 51.117188 20.003906 L 6.191406 35.921875 Z M 0.316406 19.335938 " clip-rule="nonzero"/></clipPath><clipPath id="10c826c088"><path d="M 0.316406 19.335938 L 45.238281 3.417969 L 51.117188 20.003906 L 6.191406 35.921875 Z M 0.316406 19.335938 " clip-rule="nonzero"/></clipPath><clipPath id="584a607ab6"><path d="M 0.3125 9 L 48 9 L 48 31 L 0.3125 31 Z M 0.3125 9 " clip-rule="nonzero"/></clipPath><clipPath id="f10fae2d32"><path d="M 0.316406 19.335938 L 45.238281 3.417969 L 51.117188 20.003906 L 6.191406 35.921875 Z M 0.316406 19.335938 " clip-rule="nonzero"/></clipPath><clipPath id="a6894a1447"><path d="M 0.316406 19.335938 L 45.238281 3.417969 L 51.117188 20.003906 L 6.191406 35.921875 Z M 0.316406 19.335938 " clip-rule="nonzero"/></clipPath><clipPath id="6141df6af4"><path d="M 0.316406 19.335938 L 45.238281 3.417969 L 51.117188 20.003906 L 6.191406 35.921875 Z M 0.316406 19.335938 " clip-rule="nonzero"/></clipPath><clipPath id="302669dcad"><path d="M 0.3125 15 L 45 15 L 45 29 L 0.3125 29 Z M 0.3125 15 " clip-rule="nonzero"/></clipPath><clipPath id="2aea4395d3"><path d="M 0.316406 19.335938 L 45.238281 3.417969 L 51.117188 20.003906 L 6.191406 35.921875 Z M 0.316406 19.335938 " clip-rule="nonzero"/></clipPath><clipPath id="a200e7e678"><path d="M 0.316406 19.335938 L 45.238281 3.417969 L 51.117188 20.003906 L 6.191406 35.921875 Z M 0.316406 19.335938 " clip-rule="nonzero"/></clipPath><clipPath id="d25a19dfef"><path d="M 0.316406 19.335938 L 45.238281 3.417969 L 51.117188 20.003906 L 6.191406 35.921875 Z M 0.316406 19.335938 " clip-rule="nonzero"/></clipPath><clipPath id="629ef72027"><path d="M 16 11 L 41 11 L 41 31 L 16 31 Z M 16 11 " clip-rule="nonzero"/></clipPath><clipPath id="ce59d3ad43"><path d="M 0.316406 19.335938 L 45.238281 3.417969 L 51.117188 20.003906 L 6.191406 35.921875 Z M 0.316406 19.335938 " clip-rule="nonzero"/></clipPath><clipPath id="4230bb9b45"><path d="M 0.316406 19.335938 L 45.238281 3.417969 L 51.117188 20.003906 L 6.191406 35.921875 Z M 0.316406 19.335938 " clip-rule="nonzero"/></clipPath><clipPath id="62654b448e"><path d="M 0.316406 19.335938 L 45.238281 3.417969 L 51.117188 20.003906 L 6.191406 35.921875 Z M 0.316406 19.335938 " clip-rule="nonzero"/></clipPath></defs><g clip-path="url(#d2ef3fea98)"><g clip-path="url(#a98ed48a8b)"><g clip-path="url(#096eb712ba)"><g clip-path="url(#8546372d10)"><path fill="#000000" d="M 47.738281 12.289062 C 47.648438 12.492188 47.542969 12.699219 47.417969 12.902344 C 46.945312 13.691406 46.230469 14.488281 45.292969 15.273438 C 45.292969 15.273438 45.292969 15.273438 45.289062 15.273438 C 43.636719 16.65625 41.335938 17.976562 38.417969 19.210938 C 37.945312 19.410156 37.460938 19.605469 36.957031 19.800781 C 37.042969 20.558594 36.589844 21.308594 35.828125 21.578125 L 33.050781 22.5625 C 32.394531 22.792969 31.6875 22.605469 31.242188 22.136719 L 24.742188 28.582031 C 23.953125 29.367188 23.003906 29.960938 21.960938 30.332031 C 21.671875 30.433594 21.375 30.519531 21.070312 30.585938 L 19.683594 30.894531 C 19.328125 30.972656 18.980469 30.84375 18.773438 30.554688 C 18.5625 30.269531 18.550781 29.902344 18.738281 29.59375 L 21.941406 24.347656 C 20.242188 24.734375 18.730469 25.007812 17.304688 25.195312 C 15.414062 25.445312 13.695312 25.53125 12.046875 25.460938 C 11.503906 25.4375 10.96875 25.394531 10.429688 25.335938 L 8.011719 27.734375 C 7.65625 28.089844 7.226562 28.355469 6.757812 28.523438 C 6.625 28.570312 6.492188 28.609375 6.355469 28.636719 L 5.746094 28.773438 C 5.558594 28.816406 5.375 28.746094 5.261719 28.59375 C 5.152344 28.445312 5.144531 28.25 5.246094 28.085938 L 7.265625 24.777344 C 6.820312 24.667969 6.371094 24.546875 5.921875 24.414062 C 5.351562 24.242188 4.980469 23.757812 4.972656 23.171875 C 4.964844 22.703125 5.195312 22.285156 5.582031 22.039062 L 1.078125 20.4375 C 0.839844 20.355469 0.6875 20.152344 0.675781 19.902344 C 0.660156 19.65625 0.792969 19.433594 1.019531 19.320312 L 1.832031 18.914062 C 2.660156 18.503906 3.578125 18.335938 4.492188 18.425781 L 13.195312 19.300781 L 20.195312 16.820312 L 16.867188 15.636719 C 16.53125 15.519531 16.308594 15.222656 16.289062 14.871094 C 16.273438 14.515625 16.460938 14.195312 16.785156 14.035156 L 18.058594 13.398438 C 19.332031 12.761719 20.753906 12.5 22.167969 12.644531 L 29.816406 13.410156 L 39.972656 9.8125 C 41.421875 9.300781 42.980469 9.179688 44.480469 9.46875 C 44.496094 9.472656 44.5 9.472656 44.507812 9.476562 C 44.59375 9.492188 44.683594 9.511719 44.773438 9.53125 C 45.253906 9.640625 45.730469 9.796875 46.1875 9.988281 L 46.960938 10.316406 C 47.128906 10.386719 47.28125 10.488281 47.414062 10.613281 C 47.859375 11.042969 47.992188 11.714844 47.738281 12.289062 Z M 47.738281 12.289062 " fill-opacity="1" fill-rule="nonzero"/></g></g></g></g><g clip-path="url(#ac6cf2aae4)"><g clip-path="url(#70d3f6671b)"><g clip-path="url(#2908113384)"><g clip-path="url(#10c826c088)"><path fill="#ffffff" d="M 47.480469 12.179688 C 47.6875 11.710938 47.582031 11.164062 47.214844 10.8125 C 47.109375 10.710938 46.984375 10.628906 46.847656 10.574219 L 46.421875 10.390625 L 43.445312 11.449219 C 43.113281 11.566406 42.753906 11.398438 42.636719 11.074219 C 42.582031 10.910156 42.597656 10.742188 42.667969 10.597656 C 42.738281 10.453125 42.863281 10.332031 43.03125 10.273438 L 44.488281 9.757812 C 44.476562 9.753906 44.460938 9.75 44.445312 9.746094 C 44.429688 9.742188 44.425781 9.742188 44.417969 9.742188 C 42.972656 9.464844 41.464844 9.578125 40.066406 10.074219 L 13.839844 19.367188 L 14.90625 19.472656 C 15.0625 19.488281 15.179688 19.601562 15.199219 19.753906 C 15.214844 19.90625 15.132812 20.046875 14.984375 20.101562 L 8.734375 22.46875 C 8.714844 22.476562 8.695312 22.484375 8.675781 22.492188 C 8.085938 22.699219 7.445312 22.699219 6.855469 22.492188 L 5.941406 22.167969 C 5.429688 22.363281 5.25 22.808594 5.253906 23.164062 C 5.261719 23.535156 5.460938 23.984375 6.003906 24.148438 C 6.480469 24.289062 6.949219 24.414062 7.417969 24.527344 L 7.445312 24.484375 C 7.679688 24.097656 8.050781 23.804688 8.484375 23.664062 L 12.851562 22.222656 C 12.976562 22.179688 13.101562 22.226562 13.167969 22.332031 C 13.234375 22.4375 13.21875 22.570312 13.128906 22.660156 L 10.6875 25.082031 C 11.144531 25.128906 11.601562 25.164062 12.0625 25.183594 C 13.691406 25.253906 15.390625 25.167969 17.257812 24.921875 L 22.789062 22.960938 L 23.738281 21.410156 C 24.25 20.570312 25.050781 19.9375 25.992188 19.625 L 35.917969 16.347656 C 36.117188 16.285156 36.320312 16.355469 36.425781 16.527344 C 36.535156 16.703125 36.507812 16.914062 36.363281 17.058594 L 35.066406 18.347656 C 35.285156 18.316406 35.503906 18.332031 35.710938 18.382812 L 45.128906 15.046875 C 46.03125 14.289062 46.722656 13.519531 47.175781 12.761719 C 47.292969 12.570312 47.394531 12.375 47.480469 12.179688 Z M 31.367188 15.445312 L 31.128906 14.773438 C 31.050781 14.554688 31.167969 14.3125 31.390625 14.234375 L 32.078125 13.992188 C 32.300781 13.914062 32.542969 14.027344 32.621094 14.246094 L 32.859375 14.917969 C 32.933594 15.136719 32.816406 15.375 32.597656 15.453125 L 31.910156 15.699219 C 31.6875 15.777344 31.445312 15.664062 31.367188 15.445312 Z M 34.035156 13.742188 C 33.960938 13.523438 34.078125 13.285156 34.300781 13.203125 L 34.984375 12.960938 C 35.207031 12.882812 35.449219 12.996094 35.527344 13.214844 L 35.765625 13.886719 C 35.84375 14.105469 35.726562 14.347656 35.503906 14.425781 L 34.816406 14.667969 C 34.59375 14.746094 34.351562 14.632812 34.277344 14.414062 Z M 28.222656 15.804688 C 28.144531 15.585938 28.261719 15.34375 28.484375 15.265625 L 29.167969 15.023438 C 29.390625 14.945312 29.632812 15.058594 29.710938 15.273438 L 29.949219 15.949219 C 30.027344 16.167969 29.910156 16.40625 29.6875 16.484375 L 29 16.730469 C 28.78125 16.808594 28.535156 16.695312 28.460938 16.476562 Z M 25.3125 16.832031 C 25.234375 16.617188 25.351562 16.375 25.574219 16.296875 L 26.261719 16.054688 C 26.484375 15.972656 26.726562 16.085938 26.804688 16.304688 L 27.042969 16.976562 C 27.121094 17.195312 27 17.4375 26.78125 17.515625 L 26.09375 17.757812 C 25.871094 17.835938 25.628906 17.726562 25.550781 17.507812 Z M 21.226562 19.039062 C 21.304688 19.257812 21.1875 19.5 20.964844 19.578125 L 20.277344 19.820312 C 20.054688 19.898438 19.8125 19.785156 19.734375 19.566406 L 19.496094 18.894531 C 19.417969 18.675781 19.535156 18.4375 19.757812 18.355469 L 20.445312 18.113281 C 20.667969 18.035156 20.910156 18.148438 20.988281 18.367188 Z M 23.871094 18.546875 L 23.1875 18.789062 C 22.964844 18.867188 22.71875 18.753906 22.644531 18.539062 L 22.40625 17.863281 C 22.328125 17.644531 22.445312 17.40625 22.667969 17.328125 L 23.351562 17.082031 C 23.574219 17.003906 23.816406 17.117188 23.894531 17.335938 L 24.132812 18.007812 C 24.210938 18.226562 24.09375 18.46875 23.871094 18.546875 Z M 40.921875 13.484375 C 41.007812 13.726562 40.878906 13.996094 40.632812 14.085938 L 39.769531 14.390625 C 39.523438 14.476562 39.253906 14.351562 39.167969 14.109375 L 38.449219 12.082031 C 38.363281 11.839844 38.492188 11.570312 38.742188 11.484375 L 39.601562 11.179688 C 39.847656 11.089844 40.121094 11.21875 40.207031 11.460938 Z M 40.921875 13.484375 " fill-opacity="1" fill-rule="nonzero"/></g></g></g></g><g clip-path="url(#584a607ab6)"><g clip-path="url(#f10fae2d32)"><g clip-path="url(#a6894a1447)"><g clip-path="url(#6141df6af4)"><path fill="#000000" d="M 47.414062 10.613281 C 47.28125 10.488281 47.128906 10.386719 46.960938 10.316406 L 46.1875 9.988281 C 45.730469 9.796875 45.253906 9.640625 44.773438 9.53125 C 44.683594 9.511719 44.59375 9.492188 44.507812 9.476562 C 44.5 9.472656 44.496094 9.472656 44.480469 9.46875 C 42.980469 9.179688 41.421875 9.300781 39.972656 9.8125 L 29.816406 13.410156 L 22.167969 12.644531 C 20.753906 12.5 19.335938 12.761719 18.058594 13.398438 L 16.785156 14.035156 C 16.460938 14.195312 16.273438 14.515625 16.289062 14.871094 C 16.308594 15.222656 16.53125 15.519531 16.867188 15.636719 L 20.195312 16.820312 L 13.195312 19.300781 L 4.492188 18.425781 C 3.578125 18.335938 2.660156 18.503906 1.832031 18.914062 L 1.019531 19.320312 C 0.792969 19.433594 0.660156 19.65625 0.675781 19.902344 C 0.6875 20.152344 0.839844 20.355469 1.078125 20.4375 L 5.582031 22.039062 C 5.195312 22.285156 4.964844 22.703125 4.972656 23.171875 C 4.980469 23.757812 5.351562 24.242188 5.921875 24.414062 C 6.371094 24.546875 6.820312 24.667969 7.265625 24.777344 L 5.246094 28.085938 C 5.144531 28.25 5.152344 28.445312 5.261719 28.59375 C 5.375 28.746094 5.558594 28.816406 5.746094 28.773438 L 6.355469 28.640625 C 6.492188 28.609375 6.625 28.570312 6.757812 28.523438 C 7.226562 28.355469 7.65625 28.089844 8.011719 27.734375 L 10.429688 25.335938 C 10.96875 25.394531 11.503906 25.4375 12.046875 25.460938 C 13.695312 25.53125 15.414062 25.445312 17.304688 25.195312 C 18.730469 25.007812 20.242188 24.734375 21.941406 24.347656 L 18.738281 29.59375 C 18.550781 29.902344 18.5625 30.269531 18.773438 30.554688 C 18.980469 30.84375 19.328125 30.972656 19.683594 30.894531 L 21.070312 30.585938 C 21.375 30.519531 21.671875 30.433594 21.960938 30.332031 C 23.003906 29.960938 23.953125 29.367188 24.742188 28.582031 L 31.242188 22.136719 C 31.6875 22.605469 32.390625 22.792969 33.050781 22.5625 L 35.828125 21.578125 C 36.589844 21.308594 37.042969 20.558594 36.957031 19.800781 C 37.460938 19.605469 37.945312 19.410156 38.417969 19.210938 C 41.335938 17.976562 43.636719 16.65625 45.289062 15.273438 C 45.292969 15.273438 45.292969 15.273438 45.292969 15.273438 C 46.230469 14.488281 46.945312 13.691406 47.417969 12.902344 C 47.542969 12.699219 47.648438 12.492188 47.738281 12.289062 C 47.992188 11.714844 47.859375 11.042969 47.414062 10.613281 Z M 35.734375 21.316406 L 32.957031 22.300781 C 32.40625 22.496094 31.8125 22.335938 31.445312 21.9375 L 34.667969 18.738281 L 34.804688 18.691406 C 35.542969 18.429688 36.351562 18.804688 36.609375 19.53125 C 36.863281 20.253906 36.472656 21.054688 35.734375 21.316406 Z M 21.011719 30.316406 L 19.621094 30.625 C 19.335938 30.6875 19.113281 30.546875 19.003906 30.390625 C 18.890625 30.238281 18.824219 29.984375 18.976562 29.738281 L 23.976562 21.550781 C 24.441406 20.792969 25.15625 20.214844 26 19.917969 C 26.027344 19.90625 26.054688 19.898438 26.078125 19.890625 L 36.007812 16.613281 C 36.09375 16.585938 36.15625 16.628906 36.1875 16.675781 C 36.21875 16.726562 36.226562 16.800781 36.164062 16.863281 L 24.542969 28.390625 C 23.574219 29.351562 22.351562 30.015625 21.011719 30.316406 Z M 36.902344 19.527344 C 36.890625 19.496094 36.882812 19.464844 36.875 19.433594 C 36.734375 19.035156 36.449219 18.726562 36.101562 18.539062 L 44.460938 15.578125 C 42.609375 16.96875 40.078125 18.289062 36.902344 19.527344 Z M 22.558594 23.335938 L 22.144531 24.015625 C 20.902344 24.304688 19.761719 24.53125 18.683594 24.710938 Z M 45.128906 15.046875 L 35.710938 18.382812 C 35.503906 18.332031 35.285156 18.316406 35.066406 18.34375 L 36.363281 17.058594 C 36.507812 16.914062 36.535156 16.703125 36.425781 16.527344 C 36.320312 16.355469 36.117188 16.285156 35.917969 16.347656 L 25.992188 19.625 C 25.050781 19.9375 24.25 20.570312 23.738281 21.410156 L 22.789062 22.960938 L 17.257812 24.921875 C 15.390625 25.167969 13.691406 25.253906 12.0625 25.183594 C 11.601562 25.164062 11.140625 25.128906 10.6875 25.082031 L 13.128906 22.660156 C 13.21875 22.570312 13.234375 22.4375 13.167969 22.332031 C 13.101562 22.226562 12.976562 22.179688 12.851562 22.222656 L 8.484375 23.664062 C 8.050781 23.804688 7.679688 24.097656 7.445312 24.484375 L 7.417969 24.527344 C 6.949219 24.414062 6.480469 24.289062 6.003906 24.148438 C 5.460938 23.984375 5.261719 23.535156 5.253906 23.164062 C 5.25 22.808594 5.429688 22.363281 5.941406 22.167969 L 6.855469 22.492188 C 7.445312 22.699219 8.085938 22.699219 8.675781 22.492188 C 8.695312 22.484375 8.714844 22.476562 8.734375 22.46875 L 14.984375 20.101562 C 15.132812 20.046875 15.214844 19.90625 15.199219 19.753906 C 15.179688 19.601562 15.0625 19.488281 14.90625 19.472656 L 13.839844 19.367188 L 40.066406 10.074219 C 41.464844 9.578125 42.972656 9.460938 44.417969 9.742188 C 44.425781 9.742188 44.429688 9.742188 44.445312 9.746094 C 44.460938 9.75 44.476562 9.753906 44.492188 9.757812 L 43.03125 10.273438 C 42.863281 10.332031 42.738281 10.453125 42.667969 10.597656 C 42.597656 10.742188 42.582031 10.910156 42.636719 11.074219 C 42.753906 11.398438 43.113281 11.566406 43.445312 11.449219 L 46.421875 10.390625 L 46.847656 10.574219 C 46.984375 10.628906 47.109375 10.710938 47.214844 10.8125 C 47.582031 11.164062 47.6875 11.710938 47.480469 12.179688 C 47.394531 12.375 47.292969 12.570312 47.179688 12.761719 C 46.722656 13.519531 46.03125 14.289062 45.128906 15.046875 Z M 6.296875 28.367188 L 5.683594 28.503906 C 5.609375 28.519531 5.539062 28.492188 5.492188 28.433594 C 5.449219 28.371094 5.445312 28.292969 5.484375 28.230469 L 7.6875 24.625 C 7.886719 24.296875 8.203125 24.046875 8.570312 23.925781 L 12.898438 22.496094 L 7.8125 27.542969 C 7.394531 27.953125 6.871094 28.242188 6.296875 28.367188 Z M 0.957031 19.886719 C 0.949219 19.75 1.019531 19.632812 1.144531 19.570312 L 1.957031 19.164062 C 2.734375 18.777344 3.597656 18.617188 4.460938 18.703125 L 14.875 19.75 C 14.90625 19.753906 14.914062 19.773438 14.917969 19.789062 C 14.921875 19.808594 14.917969 19.832031 14.886719 19.84375 L 8.636719 22.210938 C 8.09375 22.417969 7.496094 22.421875 6.957031 22.230469 L 1.175781 20.179688 C 1.042969 20.132812 0.964844 20.023438 0.957031 19.886719 Z M 16.570312 14.851562 C 16.5625 14.664062 16.644531 14.414062 16.910156 14.28125 L 18.183594 13.644531 C 18.449219 13.511719 18.722656 13.398438 19 13.296875 C 20.003906 12.941406 21.074219 12.8125 22.136719 12.917969 L 29.203125 13.628906 L 20.613281 16.671875 L 16.964844 15.375 C 16.691406 15.277344 16.582031 15.042969 16.570312 14.851562 Z M 39.601562 11.179688 L 38.742188 11.484375 C 38.492188 11.570312 38.363281 11.839844 38.449219 12.082031 L 39.167969 14.109375 C 39.253906 14.351562 39.523438 14.476562 39.769531 14.390625 L 40.632812 14.085938 C 40.878906 13.996094 41.007812 13.726562 40.921875 13.484375 L 40.207031 11.460938 C 40.121094 11.21875 39.847656 11.089844 39.601562 11.179688 Z M 40.65625 13.578125 C 40.691406 13.679688 40.640625 13.789062 40.539062 13.824219 L 39.679688 14.128906 C 39.578125 14.164062 39.46875 14.113281 39.433594 14.015625 L 38.714844 11.988281 C 38.679688 11.890625 38.734375 11.78125 38.832031 11.746094 L 39.695312 11.441406 C 39.792969 11.40625 39.90625 11.457031 39.941406 11.554688 Z M 34.277344 14.414062 L 34.035156 13.742188 C 33.960938 13.523438 34.078125 13.285156 34.300781 13.203125 L 34.984375 12.960938 C 35.207031 12.882812 35.449219 12.996094 35.527344 13.214844 L 35.765625 13.886719 C 35.84375 14.105469 35.726562 14.347656 35.503906 14.425781 L 34.816406 14.667969 C 34.59375 14.746094 34.351562 14.632812 34.277344 14.414062 Z M 31.910156 15.699219 C 31.6875 15.777344 31.445312 15.664062 31.367188 15.445312 L 31.128906 14.773438 C 31.050781 14.554688 31.167969 14.3125 31.390625 14.234375 L 32.078125 13.992188 C 32.300781 13.914062 32.542969 14.027344 32.621094 14.246094 L 32.859375 14.917969 C 32.933594 15.136719 32.816406 15.375 32.597656 15.453125 Z M 28.460938 16.476562 L 28.222656 15.804688 C 28.144531 15.585938 28.261719 15.34375 28.484375 15.265625 L 29.167969 15.023438 C 29.390625 14.945312 29.632812 15.058594 29.710938 15.273438 L 29.949219 15.949219 C 30.027344 16.167969 29.910156 16.40625 29.6875 16.484375 L 29 16.730469 C 28.78125 16.808594 28.535156 16.695312 28.460938 16.476562 Z M 25.550781 17.507812 L 25.3125 16.832031 C 25.234375 16.617188 25.351562 16.375 25.574219 16.296875 L 26.261719 16.054688 C 26.484375 15.972656 26.726562 16.085938 26.804688 16.304688 L 27.042969 16.976562 C 27.121094 17.195312 27 17.4375 26.78125 17.515625 L 26.09375 17.757812 C 25.871094 17.835938 25.628906 17.726562 25.550781 17.507812 Z M 23.871094 18.546875 L 23.1875 18.789062 C 22.964844 18.867188 22.71875 18.753906 22.644531 18.539062 L 22.40625 17.863281 C 22.328125 17.644531 22.445312 17.40625 22.667969 17.328125 L 23.351562 17.082031 C 23.574219 17.003906 23.816406 17.117188 23.894531 17.335938 L 24.132812 18.007812 C 24.210938 18.226562 24.09375 18.46875 23.871094 18.546875 Z M 20.988281 18.367188 L 21.226562 19.039062 C 21.304688 19.257812 21.1875 19.5 20.964844 19.578125 L 20.277344 19.820312 C 20.054688 19.898438 19.8125 19.785156 19.734375 19.566406 L 19.496094 18.894531 C 19.417969 18.675781 19.535156 18.4375 19.757812 18.355469 L 20.445312 18.113281 C 20.667969 18.035156 20.910156 18.148438 20.988281 18.367188 Z M 20.988281 18.367188 " fill-opacity="1" fill-rule="nonzero"/></g></g></g></g><g clip-path="url(#302669dcad)"><g clip-path="url(#2aea4395d3)"><g clip-path="url(#a200e7e678)"><g clip-path="url(#d25a19dfef)"><path fill="#5166f2" d="M 7.8125 27.542969 C 7.394531 27.953125 6.871094 28.242188 6.296875 28.367188 L 5.683594 28.503906 C 5.609375 28.519531 5.539062 28.492188 5.492188 28.433594 C 5.449219 28.371094 5.445312 28.292969 5.484375 28.226562 L 7.6875 24.625 C 7.886719 24.296875 8.203125 24.046875 8.570312 23.925781 L 12.898438 22.496094 Z M 6.957031 22.230469 C 7.496094 22.421875 8.09375 22.417969 8.636719 22.210938 L 14.886719 19.84375 C 14.917969 19.832031 14.921875 19.808594 14.917969 19.789062 C 14.914062 19.773438 14.90625 19.753906 14.875 19.75 L 4.460938 18.703125 C 3.597656 18.617188 2.734375 18.777344 1.957031 19.164062 L 1.144531 19.570312 C 1.019531 19.632812 0.949219 19.75 0.957031 19.886719 C 0.964844 20.023438 1.042969 20.132812 1.175781 20.179688 Z M 22.558594 23.335938 L 18.683594 24.710938 C 19.761719 24.53125 20.902344 24.304688 22.144531 24.015625 Z M 36.101562 18.539062 C 36.449219 18.726562 36.734375 19.035156 36.875 19.433594 C 36.882812 19.464844 36.890625 19.496094 36.902344 19.527344 C 40.078125 18.289062 42.609375 16.96875 44.460938 15.578125 Z M 36.609375 19.53125 C 36.351562 18.804688 35.542969 18.429688 34.804688 18.691406 L 34.667969 18.738281 L 31.445312 21.9375 C 31.8125 22.335938 32.40625 22.496094 32.957031 22.300781 L 35.734375 21.316406 C 36.472656 21.054688 36.863281 20.253906 36.609375 19.53125 Z M 36.609375 19.53125 " fill-opacity="1" fill-rule="nonzero"/></g></g></g></g><g clip-path="url(#629ef72027)"><g clip-path="url(#ce59d3ad43)"><g clip-path="url(#4230bb9b45)"><g clip-path="url(#62654b448e)"><path fill="#df7a2c" d="M 20.613281 16.671875 L 16.964844 15.375 C 16.691406 15.277344 16.582031 15.042969 16.570312 14.851562 C 16.5625 14.664062 16.644531 14.414062 16.910156 14.28125 L 18.183594 13.644531 C 18.449219 13.511719 18.722656 13.398438 19 13.296875 C 20.003906 12.941406 21.074219 12.8125 22.136719 12.917969 L 29.203125 13.628906 Z M 39.695312 11.441406 L 38.832031 11.746094 C 38.734375 11.78125 38.679688 11.890625 38.714844 11.988281 L 39.433594 14.015625 C 39.46875 14.113281 39.578125 14.164062 39.679688 14.128906 L 40.539062 13.824219 C 40.640625 13.789062 40.691406 13.679688 40.65625 13.578125 L 39.941406 11.554688 C 39.90625 11.457031 39.792969 11.40625 39.695312 11.441406 Z M 36.164062 16.863281 C 36.226562 16.800781 36.21875 16.726562 36.1875 16.675781 C 36.15625 16.628906 36.09375 16.585938 36.007812 16.613281 L 26.078125 19.890625 C 26.054688 19.898438 26.027344 19.90625 26 19.917969 C 25.15625 20.214844 24.441406 20.792969 23.976562 21.550781 L 18.976562 29.738281 C 18.824219 29.984375 18.890625 30.238281 19.003906 30.394531 C 19.113281 30.546875 19.335938 30.6875 19.621094 30.625 L 21.011719 30.316406 C 22.351562 30.019531 23.574219 29.351562 24.542969 28.390625 Z M 36.164062 16.863281 " fill-opacity="1" fill-rule="nonzero"/></g></g></g></g></svg>