<svg xmlns="http://www.w3.org/2000/svg" xmlns:xlink="http://www.w3.org/1999/xlink" width="96" zoomAndPan="magnify" viewBox="0 0 72 50.249999" height="67" preserveAspectRatio="xMidYMid meet" version="1.0"><defs><clipPath id="05f5b5a746"><path d="M 2.101562 0 L 70.089844 0 L 70.089844 49.511719 L 2.101562 49.511719 Z M 2.101562 0 " clip-rule="nonzero"/></clipPath></defs><g clip-path="url(#05f5b5a746)"><path fill="#fdd580" d="M 39.1875 49.503906 C 38.5 49.503906 37.816406 49.503906 37.128906 49.503906 C 35.484375 49.097656 33.777344 48.863281 32.21875 48.246094 C 29.871094 47.316406 28.027344 45.667969 26.738281 43.394531 C 23.898438 44.574219 21.03125 44.988281 18.046875 44.441406 C 13.042969 43.527344 9.355469 40.3125 8.414062 35.945312 C 7.953125 33.804688 8.34375 31.738281 9.289062 29.789062 C 4.382812 27.054688 3.617188 26.121094 2.121094 21.09375 C 2.121094 20.410156 2.121094 19.726562 2.121094 19.042969 C 2.179688 18.988281 2.277344 18.9375 2.289062 18.875 C 3.132812 14.125 6.257812 11.507812 10.675781 10.261719 C 12.332031 9.792969 14.109375 9.746094 15.828125 9.503906 C 17.082031 4.714844 20.378906 2.027344 25.140625 1.011719 C 29.886719 0 34.125 1.125 37.742188 4.386719 C 40.679688 2.253906 43.902344 1.296875 47.445312 1.605469 C 52.039062 2.007812 55.785156 3.890625 57.828125 8.199219 C 58.480469 9.578125 58.625 11.191406 59.015625 12.757812 C 63.738281 13.519531 66.519531 15.054688 68.542969 18.394531 C 69.269531 19.59375 69.578125 21.039062 70.078125 22.371094 C 70.078125 22.96875 70.078125 23.566406 70.078125 24.164062 C 69.585938 26.867188 68.351562 29.171875 66.230469 30.90625 C 69.882812 36.953125 66.710938 43.023438 61.390625 45.414062 C 57.292969 47.257812 53.191406 47.207031 49.140625 45.265625 C 48.441406 44.925781 48.054688 45.039062 47.492188 45.53125 C 46.476562 46.417969 45.4375 47.375 44.230469 47.917969 C 42.640625 48.640625 40.875 48.992188 39.1875 49.503906 Z M 39.1875 49.503906 " fill-opacity="1" fill-rule="nonzero"/></g></svg>