<svg xmlns="http://www.w3.org/2000/svg" xmlns:xlink="http://www.w3.org/1999/xlink" width="393" zoomAndPan="magnify" viewBox="0 0 295.5 273.749991" height="364" preserveAspectRatio="xMidYMid meet" version="1.0"><defs><clipPath id="2fa68b4057"><path d="M 134.078125 246.152344 L 183.632812 246.152344 L 183.632812 272.355469 L 134.078125 272.355469 Z M 134.078125 246.152344 " clip-rule="nonzero"/></clipPath><clipPath id="7b6a7e4483"><path d="M 70.363281 246.152344 L 119.917969 246.152344 L 119.917969 272.355469 L 70.363281 272.355469 Z M 70.363281 246.152344 " clip-rule="nonzero"/></clipPath><clipPath id="0d60b464ce"><path d="M 263.71875 60.117188 L 295 60.117188 L 295 95 L 263.71875 95 Z M 263.71875 60.117188 " clip-rule="nonzero"/></clipPath><clipPath id="735ca4dfbe"><path d="M 178 0.105469 L 207 0.105469 L 207 32 L 178 32 Z M 178 0.105469 " clip-rule="nonzero"/></clipPath></defs><path fill="#ffffff" d="M 176.542969 252.539062 C 174.75 251.707031 172.773438 251.339844 170.792969 251.339844 L 161.320312 251.339844 L 161.203125 251.324219 C 162.5 249.980469 163.46875 248.171875 163.46875 245.742188 C 163.46875 243.597656 162.296875 241.960938 161.003906 240.808594 C 159.460938 239.429688 157.515625 238.609375 155.480469 238.238281 C 151.152344 237.449219 145.777344 237.289062 142.011719 238.617188 C 139.050781 239.65625 136.292969 241.339844 136.191406 244 C 136.109375 246.175781 138.460938 247.753906 139.863281 248.5 L 138.109375 248.269531 L 136.453125 256.160156 C 135.15625 262.351562 138.847656 268.691406 145.003906 270.160156 C 145.839844 270.359375 146.675781 270.464844 147.484375 270.464844 L 167.882812 270.464844 C 171.515625 270.464844 175.101562 269.308594 177.894531 266.988281 C 179.9375 265.285156 181.6875 262.929688 181.6875 259.847656 C 181.6875 255.847656 179.003906 253.683594 176.542969 252.539062 " fill-opacity="1" fill-rule="nonzero"/><path fill="#ffffff" d="M 117.871094 244 C 117.773438 241.339844 115.011719 239.65625 112.054688 238.617188 C 108.285156 237.289062 102.910156 237.449219 98.585938 238.238281 C 96.550781 238.609375 94.601562 239.429688 93.058594 240.808594 C 91.765625 241.960938 90.59375 243.597656 90.59375 245.742188 C 90.59375 248.171875 91.5625 249.980469 92.863281 251.324219 L 92.742188 251.339844 L 83.269531 251.339844 C 81.292969 251.339844 79.316406 251.707031 77.519531 252.539062 C 75.058594 253.683594 72.375 255.847656 72.375 259.847656 C 72.375 262.929688 74.125 265.285156 76.171875 266.988281 C 78.960938 269.308594 82.546875 270.464844 86.179688 270.464844 L 106.582031 270.464844 C 107.386719 270.464844 108.222656 270.359375 109.058594 270.160156 C 115.214844 268.691406 118.90625 262.351562 117.609375 256.160156 L 115.953125 248.269531 L 114.199219 248.5 C 115.601562 247.753906 117.953125 246.175781 117.871094 244 " fill-opacity="1" fill-rule="nonzero"/><g clip-path="url(#2fa68b4057)"><path fill="#5bccc5" d="M 167.882812 272.390625 L 147.484375 272.390625 C 146.539062 272.390625 145.554688 272.269531 144.554688 272.03125 C 137.519531 270.351562 133.039062 263.058594 134.566406 255.769531 L 136.222656 247.875 C 136.441406 246.835938 137.457031 246.167969 138.507812 246.386719 C 139.546875 246.601562 140.214844 247.621094 139.996094 248.664062 L 138.34375 256.558594 C 137.238281 261.824219 140.429688 267.089844 145.453125 268.285156 C 146.15625 268.457031 146.839844 268.539062 147.484375 268.539062 L 167.882812 268.539062 C 171.191406 268.539062 174.308594 267.464844 176.660156 265.507812 C 178.71875 263.796875 179.761719 261.890625 179.761719 259.847656 C 179.761719 257.363281 178.445312 255.546875 175.730469 254.289062 C 174.269531 253.609375 172.609375 253.265625 170.792969 253.265625 L 161.320312 253.265625 C 160.253906 253.265625 159.394531 252.402344 159.394531 251.339844 C 159.394531 250.277344 160.253906 249.417969 161.320312 249.417969 L 170.792969 249.417969 C 173.171875 249.417969 175.382812 249.878906 177.355469 250.796875 C 181.394531 252.667969 183.617188 255.882812 183.617188 259.847656 C 183.617188 263.042969 182.0625 266.019531 179.128906 268.464844 C 176.085938 271 172.089844 272.390625 167.882812 272.390625 " fill-opacity="1" fill-rule="nonzero"/></g><g clip-path="url(#7b6a7e4483)"><path fill="#5bccc5" d="M 106.582031 272.390625 L 86.179688 272.390625 C 81.972656 272.390625 77.976562 271 74.9375 268.464844 C 72 266.019531 70.445312 263.042969 70.445312 259.847656 C 70.445312 255.882812 72.667969 252.667969 76.707031 250.796875 C 78.683594 249.878906 80.890625 249.417969 83.269531 249.417969 L 92.742188 249.417969 C 93.808594 249.417969 94.671875 250.277344 94.671875 251.339844 C 94.671875 252.402344 93.808594 253.265625 92.742188 253.265625 L 83.269531 253.265625 C 81.453125 253.265625 79.792969 253.609375 78.332031 254.289062 C 75.621094 255.546875 74.300781 257.363281 74.300781 259.847656 C 74.300781 261.890625 75.347656 263.796875 77.402344 265.507812 C 79.753906 267.464844 82.871094 268.539062 86.179688 268.539062 L 106.582031 268.539062 C 107.222656 268.539062 107.90625 268.457031 108.609375 268.285156 C 113.636719 267.089844 116.828125 261.824219 115.722656 256.558594 L 114.066406 248.664062 C 113.847656 247.621094 114.515625 246.601562 115.558594 246.386719 C 116.605469 246.167969 117.621094 246.835938 117.839844 247.875 L 119.496094 255.769531 C 121.023438 263.058594 116.542969 270.351562 109.507812 272.03125 C 108.511719 272.269531 107.523438 272.390625 106.582031 272.390625 " fill-opacity="1" fill-rule="nonzero"/></g><path fill="#5bccc5" d="M 154.492188 256.800781 C 153.585938 256.800781 152.78125 256.164062 152.601562 255.242188 C 152.398438 254.199219 153.082031 253.191406 154.125 252.988281 C 154.429688 252.925781 161.542969 251.445312 161.542969 245.742188 C 161.542969 244.503906 160.929688 243.324219 159.71875 242.242188 C 158.542969 241.195312 156.960938 240.464844 155.132812 240.132812 C 151.429688 239.457031 146.207031 239.179688 142.652344 240.433594 C 140.984375 241.015625 138.183594 242.269531 138.117188 244.070312 C 138.070312 245.277344 140.359375 246.703125 141.59375 247.195312 C 142.578125 247.589844 143.0625 248.710938 142.667969 249.695312 C 142.277344 250.679688 141.164062 251.167969 140.175781 250.777344 C 139.550781 250.53125 134.101562 248.257812 134.265625 243.929688 C 134.347656 241.789062 135.640625 238.8125 141.371094 236.800781 C 144.996094 235.527344 150.398438 235.351562 155.824219 236.34375 C 158.351562 236.804688 160.585938 237.851562 162.289062 239.371094 C 164.324219 241.191406 165.398438 243.390625 165.398438 245.742188 C 165.398438 252.855469 158.507812 256.066406 154.859375 256.769531 C 154.738281 256.792969 154.613281 256.800781 154.492188 256.800781 " fill-opacity="1" fill-rule="nonzero"/><path fill="#5bccc5" d="M 99.570312 256.800781 C 99.449219 256.800781 99.328125 256.792969 99.203125 256.769531 C 95.558594 256.066406 88.664062 252.855469 88.664062 245.742188 C 88.664062 243.390625 89.738281 241.191406 91.773438 239.375 C 93.476562 237.851562 95.714844 236.804688 98.238281 236.34375 C 103.664062 235.351562 109.070312 235.527344 112.691406 236.800781 C 118.421875 238.8125 119.71875 241.789062 119.796875 243.929688 C 119.960938 248.257812 114.511719 250.53125 113.890625 250.777344 C 112.898438 251.171875 111.78125 250.679688 111.390625 249.691406 C 111 248.703125 111.484375 247.585938 112.476562 247.195312 C 113.703125 246.703125 115.992188 245.277344 115.945312 244.070312 C 115.878906 242.269531 113.078125 241.015625 111.410156 240.433594 C 107.855469 239.179688 102.632812 239.457031 98.929688 240.132812 C 97.105469 240.464844 95.519531 241.195312 94.34375 242.246094 C 93.132812 243.324219 92.519531 244.503906 92.519531 245.742188 C 92.519531 251.445312 99.636719 252.925781 99.9375 252.988281 C 100.980469 253.195312 101.664062 254.207031 101.457031 255.246094 C 101.277344 256.164062 100.472656 256.800781 99.570312 256.800781 " fill-opacity="1" fill-rule="nonzero"/><path fill="#653031" d="M 149.832031 245.792969 C 147.699219 245.792969 145.972656 244.066406 145.972656 241.941406 L 145.972656 192.046875 C 145.972656 189.921875 147.699219 188.195312 149.832031 188.195312 C 151.960938 188.195312 153.683594 189.921875 153.683594 192.046875 L 153.683594 241.941406 C 153.683594 244.066406 151.960938 245.792969 149.832031 245.792969 " fill-opacity="1" fill-rule="nonzero"/><path fill="#653031" d="M 104.019531 245.792969 C 101.890625 245.792969 100.164062 244.066406 100.164062 241.941406 L 100.164062 192.046875 C 100.164062 189.921875 101.890625 188.195312 104.019531 188.195312 C 106.148438 188.195312 107.875 189.921875 107.875 192.046875 L 107.875 241.941406 C 107.875 244.066406 106.148438 245.792969 104.019531 245.792969 " fill-opacity="1" fill-rule="nonzero"/><path fill="#fe98a5" d="M 229.417969 145.035156 C 234.792969 140.121094 238.164062 133.058594 238.164062 125.207031 C 238.164062 110.621094 226.523438 98.757812 212.015625 98.351562 C 212.433594 96.628906 212.65625 94.832031 212.65625 92.984375 C 212.65625 80.3125 202.371094 70.042969 189.6875 70.042969 C 186.394531 70.042969 183.265625 70.738281 180.433594 71.984375 C 177.996094 57.851562 165.671875 47.09375 150.824219 47.09375 C 139.25 47.09375 129.210938 53.628906 124.1875 63.203125 C 120.699219 52.398438 110.554688 44.582031 98.574219 44.582031 C 85.546875 44.582031 74.679688 53.832031 72.199219 66.113281 C 69.242188 65 66.039062 64.382812 62.695312 64.382812 C 47.832031 64.382812 35.785156 76.417969 35.785156 91.261719 C 35.785156 92.792969 35.921875 94.296875 36.167969 95.761719 C 23.882812 96.21875 14.066406 106.300781 14.066406 118.679688 C 14.066406 125.390625 16.953125 131.429688 21.554688 135.625 C 10.484375 138.957031 2.421875 149.214844 2.421875 161.355469 C 2.421875 176.199219 14.46875 188.234375 29.332031 188.234375 C 33.007812 188.234375 36.511719 187.496094 39.703125 186.160156 C 42.40625 198.925781 53.75 208.507812 67.335938 208.507812 C 75.332031 208.507812 82.542969 205.1875 87.683594 199.855469 C 96.710938 210.355469 110.09375 217.015625 125.039062 217.015625 C 139.613281 217.015625 152.699219 210.6875 161.714844 200.640625 C 166.789062 205.507812 173.679688 208.507812 181.273438 208.507812 C 195.222656 208.507812 206.800781 198.410156 209.097656 185.136719 C 213.019531 188.246094 217.972656 190.105469 223.363281 190.105469 C 236.050781 190.105469 246.332031 179.835938 246.332031 167.164062 C 246.332031 156.589844 239.164062 147.691406 229.417969 145.035156 " fill-opacity="1" fill-rule="nonzero"/><path fill="#f04974" d="M 87.683594 197.449219 C 87.707031 197.449219 87.726562 197.449219 87.753906 197.449219 C 88.429688 197.46875 89.070312 197.773438 89.511719 198.285156 C 98.433594 208.660156 111.378906 214.609375 125.039062 214.609375 C 138.328125 214.609375 151.039062 208.933594 159.917969 199.035156 C 160.355469 198.546875 160.96875 198.257812 161.621094 198.234375 C 162.277344 198.207031 162.914062 198.453125 163.382812 198.902344 C 168.21875 203.542969 174.574219 206.101562 181.273438 206.101562 C 193.875 206.101562 204.578125 197.113281 206.726562 184.726562 C 206.871094 183.890625 207.445312 183.191406 208.242188 182.890625 C 209.035156 182.585938 209.929688 182.726562 210.597656 183.253906 C 214.265625 186.160156 218.683594 187.699219 223.367188 187.699219 C 234.703125 187.699219 243.925781 178.488281 243.925781 167.164062 C 243.925781 157.929688 237.699219 149.785156 228.785156 147.359375 C 227.9375 147.125 227.28125 146.457031 227.074219 145.601562 C 226.867188 144.75 227.140625 143.851562 227.789062 143.261719 C 232.851562 138.632812 235.753906 132.054688 235.753906 125.207031 C 235.753906 111.871094 225.296875 101.128906 211.949219 100.757812 C 211.222656 100.738281 210.546875 100.390625 210.105469 99.816406 C 209.664062 99.238281 209.503906 98.496094 209.675781 97.789062 C 210.054688 96.210938 210.246094 94.589844 210.246094 92.984375 C 210.246094 81.660156 201.023438 72.449219 189.6875 72.449219 C 186.8125 72.449219 184.027344 73.035156 181.40625 74.1875 C 180.726562 74.484375 179.949219 74.457031 179.296875 74.105469 C 178.640625 73.753906 178.1875 73.125 178.058594 72.394531 C 175.773438 59.128906 164.316406 49.5 150.824219 49.5 C 140.503906 49.5 131.117188 55.179688 126.324219 64.320312 C 125.871094 65.179688 124.945312 65.6875 123.984375 65.601562 C 123.015625 65.519531 122.191406 64.867188 121.894531 63.941406 C 118.621094 53.800781 109.25 46.988281 98.574219 46.988281 C 86.957031 46.988281 76.855469 55.230469 74.558594 66.589844 C 74.421875 67.28125 73.984375 67.878906 73.367188 68.21875 C 72.746094 68.5625 72.007812 68.613281 71.347656 68.363281 C 68.578125 67.320312 65.664062 66.789062 62.695312 66.789062 C 49.183594 66.789062 38.191406 77.765625 38.191406 91.261719 C 38.191406 92.609375 38.3125 93.988281 38.542969 95.359375 C 38.65625 96.042969 38.472656 96.742188 38.035156 97.277344 C 37.597656 97.816406 36.949219 98.140625 36.253906 98.164062 C 25.164062 98.578125 16.476562 107.589844 16.476562 118.679688 C 16.476562 124.433594 18.921875 129.964844 23.179688 133.847656 C 23.820312 134.429688 24.097656 135.3125 23.90625 136.160156 C 23.710938 137.003906 23.082031 137.679688 22.253906 137.929688 C 11.996094 141.015625 4.832031 150.652344 4.832031 161.355469 C 4.832031 174.847656 15.824219 185.828125 29.332031 185.828125 C 32.601562 185.828125 35.777344 185.191406 38.777344 183.941406 C 39.433594 183.664062 40.1875 183.695312 40.824219 184.03125 C 41.460938 184.363281 41.914062 184.960938 42.0625 185.664062 C 44.570312 197.507812 55.199219 206.101562 67.335938 206.101562 C 74.417969 206.101562 81.027344 203.289062 85.949219 198.1875 C 86.402344 197.714844 87.03125 197.449219 87.683594 197.449219 Z M 125.039062 219.421875 C 110.820312 219.421875 97.300781 213.578125 87.554688 203.304688 C 81.960938 208.230469 74.875 210.914062 67.335938 210.914062 C 53.863281 210.914062 41.953125 201.984375 38.039062 189.324219 C 35.230469 190.199219 32.3125 190.640625 29.332031 190.640625 C 13.164062 190.640625 0.0117188 177.503906 0.0117188 161.355469 C 0.0117188 149.8125 6.972656 139.3125 17.328125 134.640625 C 13.691406 130.15625 11.65625 124.511719 11.65625 118.679688 C 11.65625 105.871094 21.046875 95.308594 33.46875 93.582031 C 33.40625 92.804688 33.375 92.03125 33.375 91.261719 C 33.375 75.113281 46.527344 61.976562 62.695312 61.976562 C 65.347656 61.976562 67.957031 62.328125 70.488281 63.027344 C 74.164062 50.796875 85.578125 42.175781 98.574219 42.175781 C 109.699219 42.175781 119.644531 48.359375 124.613281 57.976562 C 130.675781 49.679688 140.339844 44.6875 150.824219 44.6875 C 165.699219 44.6875 178.464844 54.652344 182.195312 68.761719 C 184.613281 68.011719 187.121094 67.632812 189.6875 67.632812 C 203.679688 67.632812 215.066406 79.007812 215.066406 92.984375 C 215.066406 94.039062 215 95.097656 214.867188 96.152344 C 229.488281 97.914062 240.574219 110.183594 240.574219 125.207031 C 240.574219 132.109375 238.109375 138.78125 233.714844 144.023438 C 242.726562 148.046875 248.742188 157.078125 248.742188 167.164062 C 248.742188 181.140625 237.359375 192.511719 223.367188 192.511719 C 218.824219 192.511719 214.488281 191.34375 210.640625 189.101562 C 206.816406 201.933594 194.992188 210.914062 181.273438 210.914062 C 174.140625 210.914062 167.335938 208.472656 161.867188 203.992188 C 152.183594 213.828125 138.894531 219.421875 125.039062 219.421875 " fill-opacity="1" fill-rule="nonzero"/><path fill="#f04974" d="M 121.167969 74.390625 C 120.707031 74.390625 120.242188 74.226562 119.871094 73.894531 C 119.085938 73.183594 119.023438 71.96875 119.734375 71.179688 C 119.898438 70.992188 123.375 66.980469 121.589844 61.710938 C 121.246094 60.703125 121.789062 59.609375 122.796875 59.269531 C 123.804688 58.929688 124.898438 59.46875 125.242188 60.476562 C 127.769531 67.941406 122.808594 73.527344 122.597656 73.761719 C 122.214844 74.179688 121.691406 74.390625 121.167969 74.390625 " fill-opacity="1" fill-rule="nonzero"/><path fill="#f04974" d="M 175.449219 86.28125 C 174.617188 86.28125 173.851562 85.742188 173.601562 84.90625 C 173.300781 83.898438 173.863281 82.835938 174.867188 82.519531 C 175.144531 82.421875 180.160156 80.503906 177.558594 70.113281 C 177.304688 69.082031 177.929688 68.039062 178.960938 67.78125 C 179.992188 67.527344 181.042969 68.148438 181.300781 69.179688 C 184.855469 83.371094 176.367188 86.089844 176.003906 86.199219 C 175.816406 86.253906 175.632812 86.28125 175.449219 86.28125 " fill-opacity="1" fill-rule="nonzero"/><path fill="#f04974" d="M 76.382812 82.121094 C 76.320312 82.121094 76.257812 82.121094 76.195312 82.113281 C 75.132812 82.011719 74.359375 81.070312 74.460938 80.011719 C 75.300781 71.277344 68.945312 66.539062 68.675781 66.34375 C 67.816406 65.71875 67.625 64.515625 68.246094 63.65625 C 68.867188 62.796875 70.066406 62.601562 70.925781 63.21875 C 71.273438 63.464844 79.355469 69.386719 78.296875 80.378906 C 78.203125 81.375 77.363281 82.121094 76.382812 82.121094 " fill-opacity="1" fill-rule="nonzero"/><path fill="#f04974" d="M 181.34375 103.117188 C 177.230469 103.117188 174.800781 100.46875 174.015625 98.835938 C 173.558594 97.875 173.964844 96.730469 174.925781 96.269531 C 175.875 95.8125 177.019531 96.210938 177.484375 97.15625 C 177.644531 97.457031 179.042969 99.914062 182.792969 99.097656 C 183.839844 98.875 184.859375 99.535156 185.085938 100.570312 C 185.3125 101.609375 184.652344 102.636719 183.609375 102.863281 C 182.804688 103.035156 182.050781 103.117188 181.34375 103.117188 " fill-opacity="1" fill-rule="nonzero"/><path fill="#f04974" d="M 92.203125 69.972656 C 91.628906 69.972656 91.058594 69.714844 90.679688 69.226562 C 90.027344 68.386719 90.179688 67.175781 91.023438 66.527344 C 96.929688 61.953125 102.597656 64.058594 104.773438 65.8125 C 105.597656 66.480469 105.730469 67.691406 105.058594 68.519531 C 104.394531 69.339844 103.1875 69.472656 102.359375 68.816406 C 101.941406 68.492188 98.214844 65.828125 93.386719 69.570312 C 93.035156 69.839844 92.617188 69.972656 92.203125 69.972656 " fill-opacity="1" fill-rule="nonzero"/><path fill="#f04974" d="M 29.144531 140.878906 C 28.585938 140.878906 28.03125 140.636719 27.652344 140.171875 C 26.664062 138.96875 22.632812 137.730469 20.222656 137.273438 C 19.175781 137.074219 18.488281 136.066406 18.6875 135.023438 C 18.886719 133.980469 19.886719 133.289062 20.941406 133.492188 C 22.167969 133.722656 28.414062 135.023438 30.636719 137.734375 C 31.308594 138.558594 31.1875 139.769531 30.363281 140.441406 C 30.003906 140.738281 29.574219 140.878906 29.144531 140.878906 " fill-opacity="1" fill-rule="nonzero"/><path fill="#f04974" d="M 63.960938 165.980469 C 63.679688 165.980469 63.390625 165.917969 63.121094 165.785156 C 62.164062 165.320312 61.765625 164.164062 62.230469 163.210938 C 62.25 163.171875 64.46875 158.402344 62.28125 153.042969 C 59.835938 147.035156 55.808594 146.605469 55.640625 146.589844 C 54.589844 146.496094 53.796875 145.574219 53.875 144.527344 C 53.953125 143.480469 54.847656 142.6875 55.898438 142.746094 C 56.160156 142.761719 62.445312 143.230469 65.855469 151.59375 C 68.707031 158.589844 65.820312 164.644531 65.695312 164.898438 C 65.363281 165.582031 64.675781 165.980469 63.960938 165.980469 " fill-opacity="1" fill-rule="nonzero"/><path fill="#f04974" d="M 65.234375 155.265625 C 64.300781 155.265625 63.484375 154.597656 63.335938 153.648438 C 62.851562 150.601562 64.125 144.21875 72.390625 141.859375 C 73.417969 141.5625 74.484375 142.160156 74.777344 143.179688 C 75.066406 144.203125 74.476562 145.269531 73.453125 145.5625 C 66.585938 147.519531 67.070312 152.503906 67.148438 153.066406 C 67.289062 154.113281 66.566406 155.089844 65.519531 155.242188 C 65.421875 155.257812 65.328125 155.265625 65.234375 155.265625 " fill-opacity="1" fill-rule="nonzero"/><path fill="#f04974" d="M 40.414062 188.695312 C 39.558594 188.695312 38.773438 188.121094 38.546875 187.253906 C 38.449219 186.871094 36.1875 177.863281 42.335938 172.324219 C 43.128906 171.609375 44.347656 171.675781 45.058594 172.464844 C 45.773438 173.253906 45.710938 174.46875 44.917969 175.183594 C 40.488281 179.171875 42.261719 186.214844 42.277344 186.285156 C 42.546875 187.3125 41.929688 188.363281 40.898438 188.632812 C 40.738281 188.675781 40.574219 188.695312 40.414062 188.695312 " fill-opacity="1" fill-rule="nonzero"/><path fill="#f04974" d="M 86.804688 201.671875 C 86.488281 201.671875 86.164062 201.59375 85.867188 201.425781 C 84.9375 200.90625 84.605469 199.734375 85.125 198.804688 C 89.5 190.988281 84.214844 184.386719 83.988281 184.109375 C 83.316406 183.289062 83.433594 182.074219 84.253906 181.402344 C 85.070312 180.730469 86.28125 180.839844 86.960938 181.652344 C 87.257812 182.011719 94.179688 190.523438 88.492188 200.6875 C 88.136719 201.316406 87.480469 201.671875 86.804688 201.671875 " fill-opacity="1" fill-rule="nonzero"/><path fill="#f04974" d="M 88.777344 190.675781 C 88.464844 190.675781 88.148438 190.601562 87.859375 190.445312 C 86.921875 189.9375 86.574219 188.769531 87.082031 187.835938 C 87.1875 187.640625 89.738281 183.078125 95.824219 182.953125 C 96.84375 182.925781 97.769531 183.773438 97.789062 184.835938 C 97.8125 185.898438 96.96875 186.777344 95.902344 186.800781 C 92.09375 186.878906 90.488281 189.644531 90.472656 189.671875 C 90.121094 190.3125 89.460938 190.675781 88.777344 190.675781 " fill-opacity="1" fill-rule="nonzero"/><path fill="#f04974" d="M 146.992188 195.179688 C 146.453125 195.179688 145.917969 194.953125 145.535156 194.515625 C 141.015625 189.320312 134.425781 192.183594 134.148438 192.308594 C 133.175781 192.742188 132.039062 192.308594 131.601562 191.34375 C 131.164062 190.378906 131.585938 189.246094 132.550781 188.804688 C 135.800781 187.316406 143.300781 186.074219 148.449219 191.992188 C 149.144531 192.792969 149.058594 194.011719 148.253906 194.707031 C 147.890625 195.023438 147.441406 195.179688 146.992188 195.179688 " fill-opacity="1" fill-rule="nonzero"/><path fill="#f04974" d="M 209.097656 187.0625 C 208.253906 187.0625 207.480469 186.503906 207.242188 185.65625 C 207.105469 185.164062 203.980469 173.546875 212.304688 168.367188 C 213.207031 167.800781 214.398438 168.078125 214.960938 168.980469 C 215.523438 169.882812 215.246094 171.070312 214.34375 171.632812 C 208.476562 175.285156 210.933594 184.535156 210.957031 184.625 C 211.238281 185.652344 210.636719 186.710938 209.609375 186.992188 C 209.441406 187.039062 209.265625 187.0625 209.097656 187.0625 " fill-opacity="1" fill-rule="nonzero"/><path fill="#f04974" d="M 161.015625 202.445312 C 160.609375 202.445312 160.203125 202.320312 159.851562 202.054688 C 159.007812 201.414062 158.839844 200.210938 159.472656 199.363281 C 159.632812 199.148438 163.074219 194.410156 160.097656 189.785156 C 159.519531 188.890625 159.78125 187.699219 160.675781 187.125 C 161.574219 186.546875 162.765625 186.808594 163.339844 187.703125 C 167.796875 194.621094 162.769531 201.398438 162.554688 201.679688 C 162.175781 202.183594 161.597656 202.445312 161.015625 202.445312 " fill-opacity="1" fill-rule="nonzero"/><path fill="#f04974" d="M 170.636719 182.324219 C 170.457031 182.324219 170.277344 182.296875 170.097656 182.246094 C 169.082031 181.949219 168.492188 180.890625 168.785156 179.871094 C 168.890625 179.503906 171.480469 170.804688 180.667969 168.691406 C 188.546875 166.871094 194.800781 171.023438 195.0625 171.203125 C 195.945312 171.800781 196.175781 172.996094 195.574219 173.875 C 194.980469 174.757812 193.777344 174.984375 192.898438 174.386719 C 192.851562 174.355469 187.738281 171.007812 181.535156 172.441406 C 174.597656 174.039062 172.570312 180.65625 172.488281 180.9375 C 172.242188 181.777344 171.46875 182.324219 170.636719 182.324219 " fill-opacity="1" fill-rule="nonzero"/><path fill="#f04974" d="M 135.332031 89.414062 C 134.910156 89.414062 134.480469 89.273438 134.125 88.988281 C 133.296875 88.324219 133.164062 87.117188 133.828125 86.289062 C 133.945312 86.140625 136.769531 82.664062 141.222656 81.238281 C 148.328125 78.957031 153.535156 82.058594 153.753906 82.195312 C 154.660156 82.75 154.945312 83.933594 154.390625 84.839844 C 153.835938 85.746094 152.652344 86.035156 151.738281 85.480469 C 151.589844 85.390625 147.765625 83.183594 142.402344 84.902344 C 139.082031 85.96875 136.855469 88.671875 136.835938 88.699219 C 136.453125 89.167969 135.894531 89.414062 135.332031 89.414062 " fill-opacity="1" fill-rule="nonzero"/><path fill="#f04974" d="M 44.632812 131.960938 C 44.453125 131.960938 44.273438 131.933594 44.09375 131.882812 C 43.078125 131.582031 42.496094 130.535156 42.785156 129.519531 C 42.832031 129.34375 44.066406 125.1875 48.476562 123.996094 C 51.957031 123.054688 54.644531 124.359375 55.683594 125.277344 C 56.480469 125.980469 56.554688 127.195312 55.847656 127.992188 C 55.144531 128.789062 53.925781 128.863281 53.128906 128.160156 C 53.101562 128.140625 51.773438 127.09375 49.480469 127.710938 C 47.210938 128.324219 46.515625 130.5 46.484375 130.59375 C 46.230469 131.421875 45.460938 131.960938 44.632812 131.960938 " fill-opacity="1" fill-rule="nonzero"/><path fill="#f04974" d="M 43.277344 101.921875 C 43.222656 101.921875 43.171875 101.917969 43.121094 101.914062 C 42.832031 101.890625 42.535156 101.855469 42.238281 101.804688 C 37.035156 100.902344 35.316406 97.09375 35.246094 96.933594 C 34.824219 95.957031 35.269531 94.824219 36.246094 94.398438 C 37.21875 93.972656 38.355469 94.421875 38.78125 95.394531 C 38.808594 95.453125 39.808594 97.476562 42.898438 98.007812 C 43.082031 98.042969 43.257812 98.0625 43.429688 98.078125 C 44.488281 98.160156 45.28125 99.089844 45.195312 100.148438 C 45.113281 101.15625 44.273438 101.921875 43.277344 101.921875 " fill-opacity="1" fill-rule="nonzero"/><path fill="#f04974" d="M 185.011719 170.835938 C 184.964844 170.835938 184.917969 170.835938 184.871094 170.832031 C 183.8125 170.757812 183.015625 169.84375 183.085938 168.785156 C 183.308594 165.519531 185.453125 159.128906 191.980469 158.296875 C 193.03125 158.160156 194.003906 158.90625 194.136719 159.964844 C 194.269531 161.019531 193.523438 161.984375 192.46875 162.117188 C 187.464844 162.753906 186.953125 168.796875 186.933594 169.050781 C 186.855469 170.0625 186.011719 170.835938 185.011719 170.835938 " fill-opacity="1" fill-rule="nonzero"/><path fill="#ffffff" d="M 74.691406 98.203125 C 76.046875 103.902344 86 106.414062 96.921875 103.824219 C 107.84375 101.230469 115.601562 94.515625 114.246094 88.820312 C 112.890625 83.125 102.9375 80.609375 92.015625 83.199219 C 81.089844 85.792969 73.335938 92.511719 74.691406 98.203125 " fill-opacity="1" fill-rule="nonzero"/><path fill="#ffffff" d="M 54.457031 113.414062 C 56.5 115.453125 61.011719 114.25 64.539062 110.726562 C 68.066406 107.203125 69.269531 102.695312 67.230469 100.65625 C 65.191406 98.621094 60.675781 99.824219 57.148438 103.34375 C 53.621094 106.867188 52.417969 111.375 54.457031 113.414062 " fill-opacity="1" fill-rule="nonzero"/><path fill="#653031" d="M 128.949219 133.535156 C 128.949219 136.066406 126.898438 138.117188 124.363281 138.117188 C 121.832031 138.117188 119.777344 136.066406 119.777344 133.535156 C 119.777344 131.007812 121.832031 128.957031 124.363281 128.957031 C 126.898438 128.957031 128.949219 131.007812 128.949219 133.535156 " fill-opacity="1" fill-rule="nonzero"/><path fill="#653031" d="M 184.066406 133.535156 C 184.066406 136.066406 182.011719 138.117188 179.480469 138.117188 C 176.945312 138.117188 174.894531 136.066406 174.894531 133.535156 C 174.894531 131.007812 176.945312 128.957031 179.480469 128.957031 C 182.011719 128.957031 184.066406 131.007812 184.066406 133.535156 " fill-opacity="1" fill-rule="nonzero"/><path fill="#653031" d="M 141.667969 163.972656 C 136.902344 163.972656 133.023438 162.238281 130.136719 158.816406 C 129.625 158.207031 129.703125 157.292969 130.3125 156.78125 C 130.921875 156.265625 131.835938 156.347656 132.347656 156.957031 C 134.660156 159.695312 137.792969 161.085938 141.667969 161.085938 C 145.511719 161.085938 148.585938 159.714844 150.804688 157.015625 C 151.3125 156.398438 152.21875 156.308594 152.839844 156.816406 C 153.457031 157.324219 153.542969 158.234375 153.039062 158.847656 C 150.242188 162.25 146.417969 163.972656 141.667969 163.972656 " fill-opacity="1" fill-rule="nonzero"/><path fill="#f45156" d="M 123.46875 148.527344 C 123.46875 151.75 119.308594 154.363281 114.179688 154.363281 C 109.046875 154.363281 104.890625 151.75 104.890625 148.527344 C 104.890625 145.308594 109.046875 142.699219 114.179688 142.699219 C 119.308594 142.699219 123.46875 145.308594 123.46875 148.527344 " fill-opacity="1" fill-rule="nonzero"/><path fill="#f45156" d="M 178.277344 148.527344 C 178.277344 151.75 174.117188 154.363281 168.984375 154.363281 C 163.855469 154.363281 159.699219 151.75 159.699219 148.527344 C 159.699219 145.308594 163.855469 142.699219 168.984375 142.699219 C 174.117188 142.699219 178.277344 145.308594 178.277344 148.527344 " fill-opacity="1" fill-rule="nonzero"/><path fill="#ffffff" d="M 172.445312 115.804688 C 160.125 115.804688 150.101562 125.8125 150.101562 138.117188 C 150.101562 150.417969 160.125 160.429688 172.445312 160.429688 C 184.761719 160.429688 194.785156 150.417969 194.785156 138.117188 C 194.785156 125.8125 184.761719 115.804688 172.445312 115.804688 Z M 172.445312 162.351562 C 159.0625 162.351562 148.175781 151.480469 148.175781 138.117188 C 148.175781 124.753906 159.0625 113.882812 172.445312 113.882812 C 185.824219 113.882812 196.710938 124.753906 196.710938 138.117188 C 196.710938 151.480469 185.824219 162.351562 172.445312 162.351562 " fill-opacity="1" fill-rule="nonzero"/><path fill="#ffffff" d="M 110.722656 115.804688 C 98.402344 115.804688 88.382812 125.8125 88.382812 138.117188 C 88.382812 150.417969 98.402344 160.429688 110.722656 160.429688 C 123.039062 160.429688 133.0625 150.417969 133.0625 138.117188 C 133.0625 125.8125 123.039062 115.804688 110.722656 115.804688 Z M 110.722656 162.351562 C 97.339844 162.351562 86.453125 151.480469 86.453125 138.117188 C 86.453125 124.753906 97.339844 113.882812 110.722656 113.882812 C 124.101562 113.882812 134.988281 124.753906 134.988281 138.117188 C 134.988281 151.480469 124.101562 162.351562 110.722656 162.351562 " fill-opacity="1" fill-rule="nonzero"/><path fill="#ffcfd7" d="M 94.46875 133.015625 C 94.355469 133.015625 94.246094 132.996094 94.132812 132.957031 C 93.632812 132.773438 93.378906 132.214844 93.5625 131.71875 C 95.914062 125.367188 101.542969 120.859375 108.25 119.953125 C 108.773438 119.886719 109.261719 120.253906 109.332031 120.777344 C 109.40625 121.304688 109.035156 121.789062 108.507812 121.863281 C 102.507812 122.671875 97.476562 126.703125 95.371094 132.386719 C 95.226562 132.777344 94.859375 133.015625 94.46875 133.015625 " fill-opacity="1" fill-rule="nonzero"/><path fill="#ffcfd7" d="M 98.859375 132.6875 C 98.707031 132.6875 98.554688 132.652344 98.410156 132.578125 C 97.9375 132.328125 97.757812 131.746094 98.011719 131.277344 C 99.964844 127.585938 103.21875 124.894531 106.714844 124.074219 C 107.226562 123.953125 107.75 124.273438 107.871094 124.789062 C 107.992188 125.308594 107.671875 125.828125 107.15625 125.949219 C 104.238281 126.632812 101.386719 129.019531 99.714844 132.175781 C 99.539062 132.503906 99.207031 132.6875 98.859375 132.6875 " fill-opacity="1" fill-rule="nonzero"/><path fill="#ffcfd7" d="M 157.25 129.15625 C 157.074219 129.15625 156.894531 129.109375 156.734375 129.003906 C 156.285156 128.722656 156.152344 128.125 156.441406 127.675781 C 160.082031 121.964844 166.527344 118.746094 173.28125 119.277344 C 173.8125 119.316406 174.207031 119.78125 174.167969 120.3125 C 174.125 120.839844 173.652344 121.238281 173.132812 121.195312 C 167.113281 120.726562 161.324219 123.601562 158.066406 128.710938 C 157.882812 129 157.570312 129.15625 157.25 129.15625 " fill-opacity="1" fill-rule="nonzero"/><path fill="#ffcfd7" d="M 161.617188 129.761719 C 161.398438 129.761719 161.175781 129.6875 160.996094 129.539062 C 160.589844 129.195312 160.535156 128.589844 160.878906 128.179688 C 163.570312 124.988281 167.320312 123.042969 170.910156 122.980469 C 171.425781 122.988281 171.878906 123.390625 171.890625 123.925781 C 171.898438 124.457031 171.476562 124.894531 170.945312 124.90625 C 167.949219 124.957031 164.65625 126.6875 162.355469 129.421875 C 162.164062 129.648438 161.890625 129.761719 161.617188 129.761719 " fill-opacity="1" fill-rule="nonzero"/><path fill="#ffffff" d="M 148.144531 140.550781 C 146.136719 138.34375 143.960938 137.203125 141.675781 137.164062 C 141.632812 137.164062 141.589844 137.164062 141.546875 137.164062 C 137.839844 137.164062 135.027344 140.003906 135 140.03125 L 133.621094 138.6875 C 133.761719 138.542969 137.128906 135.164062 141.707031 135.242188 C 144.546875 135.289062 147.191406 136.640625 149.570312 139.253906 L 148.144531 140.550781 " fill-opacity="1" fill-rule="nonzero"/><path fill="#653031" d="M 92.351562 192.230469 C 86.75 192.472656 82.066406 189.378906 81.890625 185.3125 C 81.714844 181.253906 86.113281 177.765625 91.714844 177.519531 C 97.316406 177.277344 102 180.375 102.175781 184.4375 C 102.355469 188.496094 97.953125 191.988281 92.351562 192.230469 " fill-opacity="1" fill-rule="nonzero"/><path fill="#653031" d="M 91.160156 188.65625 C 91.117188 188.65625 91.074219 188.65625 91.03125 188.65625 C 66.175781 187.324219 51.6875 181.972656 47.957031 172.742188 C 44.339844 163.785156 52.238281 155.175781 52.574219 154.816406 C 53.484375 153.84375 55.007812 153.789062 55.980469 154.695312 C 56.953125 155.601562 57.007812 157.121094 56.101562 158.09375 C 55.980469 158.226562 49.960938 164.886719 52.433594 170.960938 C 54.484375 176 62.890625 182.328125 91.285156 183.847656 C 92.617188 183.917969 93.636719 185.050781 93.5625 186.378906 C 93.496094 187.664062 92.429688 188.65625 91.160156 188.65625 " fill-opacity="1" fill-rule="nonzero"/><path fill="#653031" d="M 220.652344 209.339844 C 224.851562 205.625 226.066406 200.152344 223.367188 197.105469 C 220.671875 194.0625 215.078125 194.605469 210.882812 198.316406 C 206.683594 202.027344 205.46875 207.503906 208.167969 210.546875 C 210.867188 213.59375 216.457031 213.050781 220.652344 209.339844 " fill-opacity="1" fill-rule="nonzero"/><path fill="#653031" d="M 217.351562 206.613281 C 216.929688 206.613281 216.503906 206.503906 216.113281 206.269531 C 214.972656 205.585938 214.601562 204.109375 215.289062 202.972656 C 230.984375 176.84375 217.785156 151.679688 217.652344 151.429688 C 217.023438 150.257812 217.460938 148.800781 218.628906 148.167969 C 219.800781 147.542969 221.257812 147.972656 221.890625 149.140625 C 222.5 150.261719 236.566406 176.90625 219.421875 205.445312 C 218.96875 206.199219 218.171875 206.613281 217.351562 206.613281 " fill-opacity="1" fill-rule="nonzero"/><path fill="#43a1ff" d="M 228.851562 43.65625 C 232.664062 44.390625 236.871094 46.050781 240.609375 48.75 C 246.839844 53.253906 250.5625 59.183594 250.492188 67.058594 C 250.425781 73.945312 247.234375 79.234375 241.601562 83.011719 C 238.1875 85.304688 234.558594 87.28125 231.042969 89.429688 C 229.335938 90.472656 227.640625 91.542969 226 92.683594 C 223.441406 94.460938 222.324219 97.253906 221.046875 99.925781 C 220.785156 100.480469 220.546875 101.050781 220.234375 101.574219 C 218.644531 104.222656 216.039062 105.160156 212.832031 104.265625 C 209.84375 103.429688 207.847656 101.097656 207.957031 98.171875 C 208.1875 92.089844 210.722656 87.03125 215.617188 83.445312 C 219.144531 80.859375 223.050781 78.796875 226.742188 76.421875 C 228.707031 75.160156 230.730469 73.914062 232.441406 72.34375 C 236.050781 69.042969 236.128906 63.21875 233.109375 59.335938 C 229.820312 55.117188 222.578125 53.671875 218.265625 55.109375 C 215.808594 55.929688 214.023438 57.734375 212.476562 59.726562 C 211.414062 61.085938 210.519531 62.574219 209.542969 64.003906 C 209.023438 64.765625 208.539062 65.554688 207.964844 66.273438 C 205.816406 68.964844 202.40625 69.683594 199.339844 68.128906 C 196.285156 66.582031 194.664062 63.242188 195.484375 60.042969 C 197.054688 53.890625 200.972656 49.535156 206.34375 46.460938 C 213.175781 42.546875 220.523438 41.863281 228.851562 43.65625 " fill-opacity="1" fill-rule="nonzero"/><path fill="#ffffff" d="M 221.945312 53.128906 C 226.355469 53.128906 231.476562 54.890625 234.25 58.453125 C 237.804688 63.019531 237.4375 69.730469 233.421875 73.410156 C 231.785156 74.90625 229.914062 76.105469 228.101562 77.265625 L 227.523438 77.636719 C 226.140625 78.527344 224.714844 79.382812 223.335938 80.207031 C 221.027344 81.589844 218.644531 83.019531 216.472656 84.609375 C 212 87.890625 209.617188 92.472656 209.402344 98.226562 C 209.320312 100.414062 210.785156 102.195312 213.222656 102.875 C 215.804688 103.59375 217.746094 102.910156 218.992188 100.832031 C 219.179688 100.523438 219.34375 100.167969 219.515625 99.789062 L 220.125 98.492188 C 221.320312 95.949219 222.558594 93.316406 225.171875 91.5 C 227 90.230469 228.867188 89.066406 230.289062 88.199219 C 231.535156 87.433594 232.796875 86.691406 234.058594 85.953125 C 236.300781 84.636719 238.621094 83.273438 240.796875 81.8125 C 246.210938 78.179688 248.988281 73.210938 249.046875 67.046875 C 249.109375 60.085938 246.074219 54.480469 239.761719 49.917969 C 236.492188 47.554688 232.519531 45.835938 228.578125 45.074219 C 228.570312 45.070312 228.558594 45.070312 228.550781 45.070312 C 220.183594 43.269531 213.355469 44.109375 207.0625 47.714844 C 201.589844 50.847656 198.261719 54.996094 196.882812 60.398438 C 196.238281 62.9375 197.515625 65.585938 199.992188 66.839844 C 202.445312 68.082031 205.128906 67.507812 206.832031 65.375 C 207.207031 64.902344 207.550781 64.386719 207.914062 63.839844 C 208.058594 63.621094 208.203125 63.40625 208.347656 63.1875 C 208.65625 62.742188 208.953125 62.285156 209.253906 61.828125 C 209.902344 60.839844 210.574219 59.8125 211.332031 58.839844 C 212.769531 56.992188 214.804688 54.742188 217.808594 53.742188 C 219.023438 53.332031 220.441406 53.128906 221.945312 53.128906 Z M 215.066406 106.035156 C 214.230469 106.035156 213.351562 105.910156 212.445312 105.65625 C 208.707031 104.617188 206.378906 101.65625 206.515625 98.121094 C 206.761719 91.53125 209.613281 86.058594 214.761719 82.28125 C 217.039062 80.613281 219.484375 79.148438 221.851562 77.730469 C 223.207031 76.914062 224.613281 76.074219 225.957031 75.207031 L 226.539062 74.835938 C 228.25 73.742188 230.015625 72.609375 231.464844 71.28125 C 234.398438 68.59375 234.621094 63.636719 231.96875 60.222656 C 229.125 56.574219 222.511719 55.214844 218.726562 56.476562 C 216.472656 57.230469 214.878906 58.988281 213.617188 60.609375 C 212.929688 61.492188 212.320312 62.425781 211.671875 63.414062 C 211.363281 63.882812 211.054688 64.351562 210.738281 64.8125 L 210.324219 65.433594 C 209.941406 66.011719 209.550781 66.601562 209.09375 67.171875 C 206.539062 70.375 202.359375 71.277344 198.683594 69.417969 C 194.992188 67.542969 193.097656 63.542969 194.082031 59.6875 C 195.640625 53.570312 199.523438 48.699219 205.625 45.207031 C 212.472656 41.285156 220.164062 40.3125 229.144531 42.242188 C 233.480469 43.082031 237.855469 44.980469 241.453125 47.582031 C 248.480469 52.660156 252.011719 59.214844 251.9375 67.074219 C 251.871094 74.25 248.664062 80.015625 242.410156 84.210938 C 240.160156 85.71875 237.804688 87.101562 235.523438 88.441406 C 234.277344 89.175781 233.03125 89.90625 231.796875 90.660156 C 230.410156 91.511719 228.589844 92.644531 226.824219 93.867188 C 224.847656 95.242188 223.824219 97.417969 222.746094 99.71875 L 222.144531 100.992188 C 221.945312 101.425781 221.742188 101.871094 221.472656 102.320312 C 220.015625 104.75 217.75 106.035156 215.066406 106.035156 " fill-opacity="1" fill-rule="nonzero"/><path fill="#43a1ff" d="M 209.503906 125.804688 C 204.667969 124.820312 201.917969 120.667969 202.921875 115.875 C 203.867188 111.351562 208.257812 108.5625 212.890625 109.535156 C 217.414062 110.488281 220.230469 114.71875 219.324219 119.199219 C 218.351562 123.992188 214.230469 126.765625 209.503906 125.804688 " fill-opacity="1" fill-rule="nonzero"/><path fill="#ffffff" d="M 211.039062 110.785156 C 209.675781 110.785156 208.363281 111.167969 207.230469 111.90625 C 205.734375 112.878906 204.707031 114.394531 204.339844 116.167969 C 203.933594 118.101562 204.246094 119.976562 205.21875 121.457031 C 206.199219 122.945312 207.824219 123.988281 209.792969 124.386719 C 211.671875 124.773438 213.515625 124.453125 214.972656 123.488281 C 216.464844 122.5 217.507812 120.878906 217.90625 118.914062 C 218.652344 115.230469 216.316406 111.734375 212.589844 110.949219 C 212.074219 110.839844 211.550781 110.785156 211.039062 110.785156 Z M 211.339844 127.4375 C 210.640625 127.4375 209.929688 127.363281 209.214844 127.21875 C 206.488281 126.664062 204.210938 125.179688 202.804688 123.042969 C 201.40625 120.917969 200.945312 118.265625 201.503906 115.578125 C 202.035156 113.050781 203.507812 110.886719 205.648438 109.488281 C 207.855469 108.046875 210.535156 107.566406 213.1875 108.125 C 218.488281 109.238281 221.804688 114.230469 220.738281 119.484375 C 220.1875 122.207031 218.707031 124.484375 216.570312 125.898438 C 215.035156 126.910156 213.230469 127.4375 211.339844 127.4375 " fill-opacity="1" fill-rule="nonzero"/><g clip-path="url(#0d60b464ce)"><path fill="#d1f2f2" d="M 287.902344 64.179688 C 289.820312 65.433594 291.753906 67.285156 293.191406 69.59375 C 295.589844 73.453125 296.300781 77.53125 294.492188 81.824219 C 292.914062 85.574219 289.980469 87.757812 286.054688 88.5625 C 283.671875 89.054688 281.242188 89.324219 278.835938 89.714844 C 277.667969 89.902344 276.503906 90.105469 275.347656 90.363281 C 273.550781 90.765625 272.3125 92.042969 271.015625 93.21875 C 270.746094 93.464844 270.488281 93.726562 270.199219 93.941406 C 268.738281 95.035156 267.101562 94.960938 265.546875 93.757812 C 264.097656 92.632812 263.53125 90.910156 264.246094 89.332031 C 265.738281 86.054688 268.257812 83.859375 271.738281 82.992188 C 274.25 82.363281 276.851562 82.109375 279.398438 81.636719 C 280.757812 81.382812 282.144531 81.152344 283.433594 80.679688 C 286.148438 79.679688 287.496094 76.511719 286.714844 73.710938 C 285.863281 70.667969 282.222656 68.257812 279.542969 68.078125 C 278.011719 67.976562 276.632812 68.566406 275.339844 69.308594 C 274.453125 69.816406 273.628906 70.429688 272.777344 70.992188 C 272.320312 71.292969 271.878906 71.617188 271.402344 71.882812 C 269.625 72.875 267.597656 72.503906 266.265625 70.96875 C 264.941406 69.441406 264.808594 67.25 265.972656 65.683594 C 268.210938 62.667969 271.332031 61.160156 274.957031 60.679688 C 279.570312 60.070312 283.746094 61.335938 287.902344 64.179688 " fill-opacity="1" fill-rule="nonzero"/></g><path fill="#d1f2f2" d="M 258.898438 104.796875 C 256.472656 103.175781 255.898438 100.292969 257.523438 97.890625 C 259.054688 95.628906 262.082031 95.085938 264.398438 96.65625 C 266.660156 98.1875 267.253906 101.132812 265.75 103.378906 C 264.144531 105.785156 261.265625 106.378906 258.898438 104.796875 " fill-opacity="1" fill-rule="nonzero"/><g clip-path="url(#735ca4dfbe)"><path fill="#d1f2f2" d="M 194.152344 0.597656 C 196.101562 0.773438 198.296875 1.390625 200.3125 2.554688 C 203.664062 4.5 205.839844 7.285156 206.203125 11.246094 C 206.519531 14.703125 205.1875 17.519531 202.554688 19.703125 C 200.957031 21.023438 199.234375 22.203125 197.582031 23.460938 C 196.777344 24.070312 195.980469 24.691406 195.214844 25.347656 C 194.023438 26.371094 193.605469 27.828125 193.101562 29.234375 C 192.996094 29.527344 192.90625 29.824219 192.773438 30.105469 C 192.113281 31.511719 190.851562 32.117188 189.199219 31.832031 C 187.652344 31.566406 186.535156 30.496094 186.441406 29.019531 C 186.246094 25.953125 187.261719 23.289062 189.535156 21.242188 C 191.171875 19.761719 193.027344 18.527344 194.757812 17.148438 C 195.683594 16.417969 196.636719 15.6875 197.414062 14.816406 C 199.054688 12.972656 198.796875 10.046875 197.085938 8.25 C 195.21875 6.300781 191.511719 5.941406 189.421875 6.882812 C 188.226562 7.417969 187.425781 8.414062 186.75 9.496094 C 186.285156 10.230469 185.910156 11.023438 185.496094 11.789062 C 185.273438 12.199219 185.070312 12.617188 184.820312 13.007812 C 183.878906 14.46875 182.203125 15.003906 180.585938 14.378906 C 178.972656 13.757812 177.992188 12.164062 178.238281 10.515625 C 178.710938 7.347656 180.457031 4.964844 182.996094 3.148438 C 186.222656 0.839844 189.878906 0.121094 194.152344 0.597656 " fill-opacity="1" fill-rule="nonzero"/></g><path fill="#d1f2f2" d="M 188.625 42.8125 C 186.148438 42.5625 184.554688 40.617188 184.8125 38.160156 C 185.058594 35.84375 187.121094 34.21875 189.496094 34.472656 C 191.8125 34.722656 193.445312 36.703125 193.214844 38.996094 C 192.972656 41.453125 191.046875 43.054688 188.625 42.8125 " fill-opacity="1" fill-rule="nonzero"/></svg>