<svg xmlns="http://www.w3.org/2000/svg" xmlns:xlink="http://www.w3.org/1999/xlink" width="48" zoomAndPan="magnify" viewBox="0 0 36 36.000001" height="48" preserveAspectRatio="xMidYMid meet" version="1.0"><defs><clipPath id="184121ab3e"><path d="M 17.433594 32.195312 L 22.8125 32.195312 L 22.8125 35.023438 L 17.433594 35.023438 Z M 17.433594 32.195312 " clip-rule="nonzero"/></clipPath><clipPath id="5bf704fbe6"><path d="M 10.589844 32.195312 L 15.96875 32.195312 L 15.96875 35.023438 L 10.589844 35.023438 Z M 10.589844 32.195312 " clip-rule="nonzero"/></clipPath><clipPath id="42c03350c1"><path d="M 1.164062 17 L 4 17 L 4 21 L 1.164062 21 Z M 1.164062 17 " clip-rule="nonzero"/></clipPath><clipPath id="e410ac5914"><path d="M 33.082031 3.378906 L 34.730469 3.378906 L 34.730469 4.628906 L 33.082031 4.628906 Z M 33.082031 3.378906 " clip-rule="nonzero"/></clipPath></defs><path fill="#8adbdb" d="M 27.382812 7.53125 L 27.382812 11.328125 C 27.382812 12.304688 28.171875 13.097656 29.148438 13.097656 C 30.121094 13.097656 30.910156 12.304688 30.910156 11.328125 L 30.910156 7.53125 L 27.382812 7.53125 " fill-opacity="1" fill-rule="nonzero"/><path fill="#8adbdb" d="M 28.5 11.796875 L 28.5 13.195312 C 28.5 13.554688 28.789062 13.847656 29.148438 13.847656 C 29.503906 13.847656 29.796875 13.554688 29.796875 13.195312 L 29.796875 11.796875 L 28.5 11.796875 " fill-opacity="1" fill-rule="nonzero"/><path fill="#ffffff" d="M 22.015625 32.886719 C 21.824219 32.796875 21.613281 32.757812 21.398438 32.757812 L 20.382812 32.757812 L 20.371094 32.753906 C 20.511719 32.609375 20.613281 32.414062 20.613281 32.15625 C 20.613281 31.921875 20.488281 31.746094 20.351562 31.621094 C 20.183594 31.472656 19.976562 31.386719 19.757812 31.347656 C 19.292969 31.261719 18.714844 31.242188 18.3125 31.386719 C 17.996094 31.5 17.699219 31.679688 17.6875 31.964844 C 17.679688 32.199219 17.929688 32.371094 18.082031 32.453125 L 17.894531 32.425781 L 17.714844 33.277344 C 17.578125 33.941406 17.972656 34.625 18.632812 34.785156 C 18.722656 34.804688 18.8125 34.816406 18.898438 34.816406 L 21.085938 34.816406 C 21.476562 34.816406 21.863281 34.691406 22.160156 34.441406 C 22.378906 34.257812 22.570312 34.003906 22.570312 33.671875 C 22.570312 33.242188 22.28125 33.007812 22.015625 32.886719 " fill-opacity="1" fill-rule="nonzero"/><path fill="#ffffff" d="M 15.722656 31.964844 C 15.710938 31.679688 15.417969 31.5 15.097656 31.386719 C 14.695312 31.242188 14.117188 31.261719 13.652344 31.347656 C 13.433594 31.386719 13.226562 31.472656 13.0625 31.621094 C 12.921875 31.746094 12.796875 31.921875 12.796875 32.15625 C 12.796875 32.414062 12.902344 32.609375 13.039062 32.753906 L 13.027344 32.757812 L 12.011719 32.757812 C 11.796875 32.757812 11.585938 32.796875 11.394531 32.886719 C 11.128906 33.007812 10.84375 33.242188 10.84375 33.671875 C 10.84375 34.003906 11.03125 34.257812 11.25 34.441406 C 11.550781 34.691406 11.933594 34.816406 12.324219 34.816406 L 14.511719 34.816406 C 14.597656 34.816406 14.6875 34.804688 14.777344 34.785156 C 15.4375 34.625 15.832031 33.941406 15.695312 33.277344 L 15.515625 32.425781 L 15.328125 32.453125 C 15.480469 32.371094 15.730469 32.199219 15.722656 31.964844 " fill-opacity="1" fill-rule="nonzero"/><g clip-path="url(#184121ab3e)"><path fill="#5bccc5" d="M 21.085938 35.023438 L 18.898438 35.023438 C 18.796875 35.023438 18.691406 35.011719 18.585938 34.984375 C 17.832031 34.804688 17.351562 34.019531 17.515625 33.234375 L 17.691406 32.382812 C 17.714844 32.273438 17.824219 32.199219 17.9375 32.222656 C 18.046875 32.246094 18.121094 32.355469 18.097656 32.46875 L 17.917969 33.320312 C 17.800781 33.886719 18.140625 34.453125 18.679688 34.582031 C 18.757812 34.601562 18.832031 34.609375 18.898438 34.609375 L 21.085938 34.609375 C 21.441406 34.609375 21.777344 34.492188 22.027344 34.28125 C 22.25 34.097656 22.363281 33.894531 22.363281 33.671875 C 22.363281 33.40625 22.21875 33.210938 21.929688 33.074219 C 21.773438 33 21.59375 32.964844 21.398438 32.964844 L 20.382812 32.964844 C 20.269531 32.964844 20.175781 32.871094 20.175781 32.757812 C 20.175781 32.640625 20.269531 32.550781 20.382812 32.550781 L 21.398438 32.550781 C 21.65625 32.550781 21.890625 32.601562 22.105469 32.699219 C 22.535156 32.898438 22.777344 33.246094 22.777344 33.671875 C 22.777344 34.015625 22.609375 34.339844 22.292969 34.601562 C 21.96875 34.875 21.539062 35.023438 21.085938 35.023438 " fill-opacity="1" fill-rule="nonzero"/></g><g clip-path="url(#5bf704fbe6)"><path fill="#5bccc5" d="M 14.511719 35.023438 L 12.324219 35.023438 C 11.871094 35.023438 11.441406 34.875 11.117188 34.601562 C 10.800781 34.339844 10.636719 34.015625 10.636719 33.671875 C 10.636719 33.246094 10.875 32.898438 11.308594 32.699219 C 11.519531 32.601562 11.753906 32.550781 12.011719 32.550781 L 13.027344 32.550781 C 13.140625 32.550781 13.234375 32.640625 13.234375 32.757812 C 13.234375 32.871094 13.140625 32.964844 13.027344 32.964844 L 12.011719 32.964844 C 11.816406 32.964844 11.636719 33 11.480469 33.074219 C 11.191406 33.210938 11.050781 33.40625 11.050781 33.671875 C 11.050781 33.894531 11.160156 34.097656 11.382812 34.28125 C 11.632812 34.492188 11.96875 34.609375 12.324219 34.609375 L 14.511719 34.609375 C 14.582031 34.609375 14.652344 34.601562 14.730469 34.582031 C 15.269531 34.453125 15.609375 33.886719 15.492188 33.320312 L 15.316406 32.46875 C 15.292969 32.355469 15.363281 32.246094 15.476562 32.222656 C 15.585938 32.199219 15.695312 32.273438 15.71875 32.382812 L 15.898438 33.234375 C 16.0625 34.019531 15.582031 34.804688 14.824219 34.984375 C 14.71875 35.011719 14.613281 35.023438 14.511719 35.023438 " fill-opacity="1" fill-rule="nonzero"/></g><path fill="#5bccc5" d="M 19.652344 33.34375 C 19.554688 33.34375 19.46875 33.277344 19.449219 33.175781 C 19.425781 33.066406 19.5 32.957031 19.613281 32.933594 C 19.648438 32.925781 20.40625 32.765625 20.40625 32.152344 C 20.40625 32.019531 20.339844 31.894531 20.210938 31.777344 C 20.085938 31.664062 19.914062 31.585938 19.71875 31.550781 C 19.324219 31.476562 18.761719 31.449219 18.382812 31.582031 C 18.203125 31.644531 17.902344 31.78125 17.894531 31.972656 C 17.890625 32.105469 18.136719 32.257812 18.269531 32.3125 C 18.375 32.351562 18.425781 32.472656 18.382812 32.578125 C 18.339844 32.6875 18.222656 32.738281 18.117188 32.695312 C 18.046875 32.671875 17.464844 32.425781 17.480469 31.957031 C 17.488281 31.726562 17.628906 31.40625 18.242188 31.191406 C 18.632812 31.054688 19.210938 31.035156 19.792969 31.140625 C 20.066406 31.191406 20.304688 31.304688 20.488281 31.46875 C 20.707031 31.664062 20.820312 31.902344 20.820312 32.152344 C 20.820312 32.921875 20.082031 33.265625 19.691406 33.339844 C 19.675781 33.34375 19.664062 33.34375 19.652344 33.34375 " fill-opacity="1" fill-rule="nonzero"/><path fill="#5bccc5" d="M 13.757812 33.34375 C 13.746094 33.34375 13.734375 33.34375 13.71875 33.339844 C 13.328125 33.265625 12.589844 32.921875 12.589844 32.152344 C 12.589844 31.902344 12.703125 31.664062 12.921875 31.46875 C 13.105469 31.304688 13.34375 31.191406 13.617188 31.140625 C 14.199219 31.035156 14.777344 31.054688 15.167969 31.191406 C 15.78125 31.40625 15.921875 31.726562 15.929688 31.957031 C 15.945312 32.425781 15.363281 32.671875 15.296875 32.695312 C 15.1875 32.738281 15.070312 32.6875 15.027344 32.578125 C 14.984375 32.472656 15.039062 32.351562 15.144531 32.3125 C 15.277344 32.257812 15.519531 32.105469 15.515625 31.972656 C 15.507812 31.78125 15.207031 31.644531 15.03125 31.582031 C 14.648438 31.449219 14.089844 31.476562 13.691406 31.550781 C 13.496094 31.585938 13.324219 31.664062 13.199219 31.777344 C 13.070312 31.894531 13.003906 32.019531 13.003906 32.152344 C 13.003906 32.769531 13.765625 32.929688 13.800781 32.933594 C 13.910156 32.957031 13.984375 33.066406 13.960938 33.179688 C 13.941406 33.277344 13.855469 33.34375 13.757812 33.34375 " fill-opacity="1" fill-rule="nonzero"/><path fill="#653031" d="M 19.152344 32.160156 C 18.921875 32.160156 18.738281 31.972656 18.738281 31.746094 L 18.738281 26.371094 C 18.738281 26.140625 18.921875 25.957031 19.152344 25.957031 C 19.378906 25.957031 19.566406 26.140625 19.566406 26.371094 L 19.566406 31.746094 C 19.566406 31.972656 19.378906 32.160156 19.152344 32.160156 " fill-opacity="1" fill-rule="nonzero"/><path fill="#653031" d="M 14.238281 32.160156 C 14.007812 32.160156 13.824219 31.972656 13.824219 31.746094 L 13.824219 26.371094 C 13.824219 26.140625 14.007812 25.957031 14.238281 25.957031 C 14.464844 25.957031 14.652344 26.140625 14.652344 26.371094 L 14.652344 31.746094 C 14.652344 31.972656 14.464844 32.160156 14.238281 32.160156 " fill-opacity="1" fill-rule="nonzero"/><path fill="#fe98a5" d="M 27.6875 21.308594 C 28.265625 20.777344 28.628906 20.019531 28.628906 19.171875 C 28.628906 17.601562 27.378906 16.324219 25.820312 16.28125 C 25.867188 16.09375 25.890625 15.902344 25.890625 15.703125 C 25.890625 14.335938 24.789062 13.230469 23.425781 13.230469 C 23.074219 13.230469 22.738281 13.304688 22.433594 13.441406 C 22.171875 11.917969 20.851562 10.757812 19.257812 10.757812 C 18.015625 10.757812 16.9375 11.464844 16.402344 12.496094 C 16.027344 11.332031 14.9375 10.488281 13.652344 10.488281 C 12.253906 10.488281 11.089844 11.484375 10.824219 12.808594 C 10.507812 12.6875 10.164062 12.621094 9.804688 12.621094 C 8.210938 12.621094 6.917969 13.917969 6.917969 15.515625 C 6.917969 15.679688 6.933594 15.84375 6.957031 16 C 5.640625 16.050781 4.585938 17.136719 4.585938 18.46875 C 4.585938 19.191406 4.898438 19.84375 5.390625 20.292969 C 4.203125 20.652344 3.339844 21.757812 3.339844 23.066406 C 3.339844 24.664062 4.628906 25.960938 6.226562 25.960938 C 6.621094 25.960938 6.996094 25.878906 7.335938 25.738281 C 7.628906 27.113281 8.84375 28.144531 10.300781 28.144531 C 11.160156 28.144531 11.933594 27.785156 12.484375 27.210938 C 13.453125 28.34375 14.886719 29.058594 16.492188 29.058594 C 18.054688 29.058594 19.457031 28.378906 20.425781 27.296875 C 20.96875 27.820312 21.710938 28.144531 22.523438 28.144531 C 24.019531 28.144531 25.261719 27.054688 25.507812 25.628906 C 25.929688 25.960938 26.460938 26.160156 27.039062 26.160156 C 28.398438 26.160156 29.503906 25.054688 29.503906 23.691406 C 29.503906 22.550781 28.734375 21.59375 27.6875 21.308594 " fill-opacity="1" fill-rule="nonzero"/><path fill="#f04974" d="M 12.484375 26.953125 C 12.488281 26.953125 12.488281 26.953125 12.492188 26.953125 C 12.566406 26.953125 12.632812 26.988281 12.679688 27.042969 C 13.636719 28.160156 15.027344 28.800781 16.492188 28.800781 C 17.917969 28.800781 19.28125 28.191406 20.234375 27.125 C 20.28125 27.070312 20.347656 27.039062 20.417969 27.039062 C 20.484375 27.035156 20.554688 27.0625 20.605469 27.109375 C 21.125 27.609375 21.804688 27.882812 22.523438 27.882812 C 23.875 27.882812 25.023438 26.917969 25.253906 25.582031 C 25.269531 25.492188 25.332031 25.417969 25.417969 25.382812 C 25.503906 25.351562 25.597656 25.367188 25.667969 25.425781 C 26.0625 25.738281 26.535156 25.902344 27.039062 25.902344 C 28.253906 25.902344 29.246094 24.910156 29.246094 23.691406 C 29.246094 22.695312 28.578125 21.820312 27.621094 21.558594 C 27.53125 21.53125 27.460938 21.460938 27.4375 21.367188 C 27.414062 21.277344 27.445312 21.179688 27.515625 21.117188 C 28.058594 20.617188 28.367188 19.910156 28.367188 19.171875 C 28.367188 17.734375 27.246094 16.578125 25.816406 16.539062 C 25.738281 16.535156 25.664062 16.5 25.617188 16.4375 C 25.570312 16.375 25.550781 16.296875 25.570312 16.21875 C 25.613281 16.050781 25.632812 15.875 25.632812 15.703125 C 25.632812 14.480469 24.644531 13.488281 23.425781 13.488281 C 23.117188 13.488281 22.820312 13.554688 22.539062 13.675781 C 22.464844 13.710938 22.382812 13.707031 22.3125 13.667969 C 22.242188 13.628906 22.191406 13.5625 22.179688 13.484375 C 21.933594 12.054688 20.707031 11.019531 19.257812 11.019531 C 18.152344 11.019531 17.144531 11.628906 16.628906 12.613281 C 16.582031 12.707031 16.480469 12.761719 16.378906 12.753906 C 16.273438 12.742188 16.1875 12.671875 16.152344 12.574219 C 15.804688 11.480469 14.796875 10.746094 13.652344 10.746094 C 12.40625 10.746094 11.324219 11.636719 11.078125 12.859375 C 11.0625 12.933594 11.015625 12.996094 10.949219 13.035156 C 10.882812 13.070312 10.804688 13.078125 10.730469 13.050781 C 10.433594 12.9375 10.121094 12.878906 9.804688 12.878906 C 8.355469 12.878906 7.175781 14.0625 7.175781 15.515625 C 7.175781 15.660156 7.1875 15.808594 7.214844 15.957031 C 7.226562 16.03125 7.207031 16.105469 7.160156 16.164062 C 7.113281 16.222656 7.042969 16.257812 6.96875 16.261719 C 5.777344 16.304688 4.847656 17.273438 4.847656 18.46875 C 4.847656 19.089844 5.109375 19.683594 5.566406 20.101562 C 5.632812 20.164062 5.664062 20.261719 5.644531 20.351562 C 5.621094 20.441406 5.554688 20.515625 5.464844 20.542969 C 4.363281 20.875 3.597656 21.914062 3.597656 23.066406 C 3.597656 24.519531 4.777344 25.699219 6.226562 25.699219 C 6.574219 25.699219 6.917969 25.632812 7.238281 25.496094 C 7.308594 25.46875 7.390625 25.472656 7.457031 25.507812 C 7.527344 25.542969 7.574219 25.609375 7.589844 25.683594 C 7.859375 26.960938 9 27.882812 10.300781 27.882812 C 11.0625 27.882812 11.769531 27.582031 12.296875 27.03125 C 12.347656 26.980469 12.414062 26.953125 12.484375 26.953125 Z M 16.492188 29.320312 C 14.964844 29.320312 13.515625 28.691406 12.472656 27.582031 C 11.871094 28.113281 11.109375 28.402344 10.300781 28.402344 C 8.855469 28.402344 7.578125 27.441406 7.160156 26.078125 C 6.859375 26.171875 6.542969 26.21875 6.226562 26.21875 C 4.492188 26.21875 3.078125 24.804688 3.078125 23.066406 C 3.078125 21.820312 3.824219 20.691406 4.9375 20.1875 C 4.546875 19.707031 4.328125 19.097656 4.328125 18.46875 C 4.328125 17.089844 5.335938 15.953125 6.667969 15.765625 C 6.660156 15.683594 6.660156 15.597656 6.660156 15.515625 C 6.660156 13.777344 8.070312 12.363281 9.804688 12.363281 C 10.089844 12.363281 10.367188 12.398438 10.640625 12.476562 C 11.035156 11.15625 12.257812 10.230469 13.652344 10.230469 C 14.847656 10.230469 15.914062 10.894531 16.445312 11.929688 C 17.097656 11.039062 18.132812 10.5 19.257812 10.5 C 20.851562 10.5 22.222656 11.574219 22.621094 13.09375 C 22.882812 13.011719 23.152344 12.972656 23.425781 12.972656 C 24.929688 12.972656 26.148438 14.195312 26.148438 15.703125 C 26.148438 15.816406 26.140625 15.929688 26.128906 16.042969 C 27.695312 16.234375 28.886719 17.554688 28.886719 19.171875 C 28.886719 19.914062 28.621094 20.632812 28.148438 21.199219 C 29.117188 21.632812 29.761719 22.605469 29.761719 23.691406 C 29.761719 25.195312 28.539062 26.421875 27.039062 26.421875 C 26.550781 26.421875 26.085938 26.296875 25.675781 26.054688 C 25.265625 27.4375 23.996094 28.402344 22.523438 28.402344 C 21.757812 28.402344 21.027344 28.140625 20.441406 27.65625 C 19.402344 28.714844 17.976562 29.320312 16.492188 29.320312 " fill-opacity="1" fill-rule="nonzero"/><path fill="#f04974" d="M 16.078125 13.699219 C 16.027344 13.699219 15.976562 13.679688 15.9375 13.644531 C 15.851562 13.570312 15.847656 13.4375 15.921875 13.355469 C 15.941406 13.335938 16.3125 12.902344 16.121094 12.332031 C 16.085938 12.226562 16.144531 12.105469 16.25 12.070312 C 16.359375 12.035156 16.476562 12.09375 16.511719 12.199219 C 16.785156 13.003906 16.253906 13.605469 16.230469 13.632812 C 16.1875 13.675781 16.132812 13.699219 16.078125 13.699219 " fill-opacity="1" fill-rule="nonzero"/><path fill="#f04974" d="M 21.898438 14.980469 C 21.808594 14.980469 21.726562 14.921875 21.699219 14.832031 C 21.667969 14.722656 21.730469 14.609375 21.835938 14.574219 C 21.867188 14.5625 22.40625 14.359375 22.125 13.238281 C 22.097656 13.128906 22.164062 13.015625 22.277344 12.988281 C 22.386719 12.960938 22.5 13.027344 22.527344 13.136719 C 22.90625 14.667969 21.996094 14.960938 21.957031 14.972656 C 21.9375 14.976562 21.917969 14.980469 21.898438 14.980469 " fill-opacity="1" fill-rule="nonzero"/><path fill="#f04974" d="M 11.453125 14.953125 C 11.445312 14.953125 11.4375 14.953125 11.429688 14.953125 C 11.316406 14.941406 11.234375 14.839844 11.246094 14.726562 C 11.359375 13.515625 10.484375 12.859375 10.445312 12.832031 C 10.351562 12.765625 10.332031 12.636719 10.398438 12.542969 C 10.464844 12.449219 10.59375 12.429688 10.6875 12.496094 C 10.730469 12.527344 11.796875 13.3125 11.65625 14.765625 C 11.648438 14.875 11.554688 14.953125 11.453125 14.953125 " fill-opacity="1" fill-rule="nonzero"/><path fill="#f04974" d="M 8.863281 17.074219 C 8.394531 17.074219 8.121094 16.773438 8.03125 16.585938 C 7.96875 16.457031 8.023438 16.300781 8.152344 16.238281 C 8.28125 16.179688 8.433594 16.230469 8.496094 16.359375 C 8.519531 16.402344 8.652344 16.617188 9.007812 16.539062 C 9.148438 16.511719 9.285156 16.597656 9.316406 16.738281 C 9.34375 16.878906 9.257812 17.015625 9.117188 17.046875 C 9.027344 17.066406 8.941406 17.074219 8.863281 17.074219 " fill-opacity="1" fill-rule="nonzero"/><path fill="#f04974" d="M 6.203125 20.859375 C 6.144531 20.859375 6.085938 20.835938 6.042969 20.785156 C 5.9375 20.65625 5.507812 20.519531 5.246094 20.472656 C 5.136719 20.449219 5.0625 20.34375 5.082031 20.230469 C 5.105469 20.117188 5.210938 20.042969 5.324219 20.0625 C 5.457031 20.089844 6.125 20.230469 6.363281 20.519531 C 6.4375 20.609375 6.425781 20.742188 6.335938 20.8125 C 6.296875 20.84375 6.25 20.859375 6.203125 20.859375 " fill-opacity="1" fill-rule="nonzero"/><path fill="#f04974" d="M 10.050781 23.960938 C 10.019531 23.960938 9.988281 23.953125 9.960938 23.9375 C 9.859375 23.890625 9.816406 23.765625 9.867188 23.664062 C 9.867188 23.65625 10.105469 23.144531 9.871094 22.566406 C 9.609375 21.921875 9.175781 21.875 9.15625 21.871094 C 9.046875 21.863281 8.960938 21.761719 8.96875 21.648438 C 8.976562 21.535156 9.070312 21.449219 9.1875 21.457031 C 9.214844 21.460938 9.886719 21.511719 10.253906 22.410156 C 10.558594 23.164062 10.25 23.816406 10.238281 23.84375 C 10.203125 23.917969 10.128906 23.960938 10.050781 23.960938 " fill-opacity="1" fill-rule="nonzero"/><path fill="#f04974" d="M 10.074219 22.734375 C 9.976562 22.734375 9.886719 22.664062 9.871094 22.5625 C 9.820312 22.234375 9.957031 21.546875 10.84375 21.292969 C 10.953125 21.257812 11.070312 21.324219 11.101562 21.433594 C 11.132812 21.542969 11.066406 21.660156 10.957031 21.691406 C 10.222656 21.902344 10.273438 22.4375 10.28125 22.5 C 10.296875 22.609375 10.21875 22.714844 10.105469 22.734375 C 10.097656 22.734375 10.085938 22.734375 10.074219 22.734375 " fill-opacity="1" fill-rule="nonzero"/><path fill="#f04974" d="M 7.414062 26.011719 C 7.320312 26.011719 7.238281 25.949219 7.214844 25.855469 C 7.203125 25.8125 6.960938 24.84375 7.621094 24.246094 C 7.703125 24.171875 7.835938 24.175781 7.910156 24.261719 C 7.988281 24.347656 7.980469 24.476562 7.898438 24.554688 C 7.421875 24.984375 7.613281 25.742188 7.613281 25.75 C 7.640625 25.859375 7.578125 25.972656 7.464844 26.003906 C 7.449219 26.007812 7.429688 26.011719 7.414062 26.011719 " fill-opacity="1" fill-rule="nonzero"/><path fill="#f04974" d="M 12.390625 27.40625 C 12.355469 27.40625 12.320312 27.398438 12.289062 27.382812 C 12.191406 27.324219 12.15625 27.199219 12.210938 27.097656 C 12.683594 26.25 12.09375 25.523438 12.089844 25.515625 C 12.015625 25.429688 12.027344 25.296875 12.117188 25.226562 C 12.203125 25.152344 12.332031 25.164062 12.40625 25.25 C 12.4375 25.289062 13.179688 26.207031 12.570312 27.300781 C 12.53125 27.371094 12.460938 27.40625 12.390625 27.40625 " fill-opacity="1" fill-rule="nonzero"/><path fill="#f04974" d="M 12.601562 26.222656 C 12.566406 26.222656 12.535156 26.214844 12.5 26.195312 C 12.402344 26.140625 12.367188 26.015625 12.421875 25.917969 C 12.429688 25.894531 12.703125 25.40625 13.359375 25.390625 C 13.472656 25.390625 13.566406 25.480469 13.570312 25.59375 C 13.570312 25.707031 13.480469 25.804688 13.367188 25.804688 C 12.960938 25.816406 12.789062 26.105469 12.78125 26.117188 C 12.746094 26.183594 12.671875 26.222656 12.601562 26.222656 " fill-opacity="1" fill-rule="nonzero"/><path fill="#f04974" d="M 18.847656 26.707031 C 18.789062 26.707031 18.730469 26.683594 18.691406 26.636719 C 18.207031 26.078125 17.5 26.386719 17.46875 26.398438 C 17.363281 26.445312 17.242188 26.398438 17.195312 26.296875 C 17.148438 26.191406 17.195312 26.070312 17.296875 26.023438 C 17.644531 25.863281 18.449219 25.726562 19.003906 26.363281 C 19.078125 26.453125 19.070312 26.582031 18.980469 26.65625 C 18.941406 26.691406 18.894531 26.707031 18.847656 26.707031 " fill-opacity="1" fill-rule="nonzero"/><path fill="#f04974" d="M 25.507812 25.835938 C 25.417969 25.835938 25.335938 25.773438 25.308594 25.683594 C 25.296875 25.628906 24.960938 24.378906 25.851562 23.820312 C 25.949219 23.761719 26.078125 23.789062 26.136719 23.886719 C 26.199219 23.984375 26.167969 24.113281 26.070312 24.171875 C 25.4375 24.566406 25.707031 25.5625 25.707031 25.570312 C 25.738281 25.683594 25.675781 25.796875 25.566406 25.828125 C 25.546875 25.832031 25.527344 25.835938 25.507812 25.835938 " fill-opacity="1" fill-rule="nonzero"/><path fill="#f04974" d="M 20.351562 27.492188 C 20.308594 27.492188 20.261719 27.476562 20.226562 27.449219 C 20.136719 27.378906 20.117188 27.25 20.1875 27.160156 C 20.203125 27.136719 20.570312 26.625 20.253906 26.128906 C 20.191406 26.03125 20.21875 25.902344 20.316406 25.839844 C 20.410156 25.777344 20.539062 25.804688 20.601562 25.902344 C 21.078125 26.648438 20.539062 27.378906 20.515625 27.410156 C 20.476562 27.460938 20.414062 27.492188 20.351562 27.492188 " fill-opacity="1" fill-rule="nonzero"/><path fill="#f04974" d="M 21.382812 25.324219 C 21.363281 25.324219 21.34375 25.320312 21.324219 25.316406 C 21.214844 25.285156 21.152344 25.167969 21.183594 25.058594 C 21.195312 25.019531 21.472656 24.082031 22.457031 23.855469 C 23.304688 23.660156 23.976562 24.105469 24.003906 24.125 C 24.097656 24.191406 24.121094 24.320312 24.058594 24.414062 C 23.996094 24.507812 23.867188 24.535156 23.769531 24.46875 C 23.765625 24.464844 23.21875 24.105469 22.550781 24.257812 C 21.808594 24.429688 21.589844 25.144531 21.582031 25.175781 C 21.554688 25.265625 21.472656 25.324219 21.382812 25.324219 " fill-opacity="1" fill-rule="nonzero"/><path fill="#f04974" d="M 12.949219 16.367188 C 12.90625 16.367188 12.859375 16.351562 12.820312 16.320312 C 12.734375 16.25 12.71875 16.117188 12.789062 16.03125 C 12.800781 16.015625 13.105469 15.640625 13.582031 15.484375 C 14.34375 15.238281 14.902344 15.574219 14.925781 15.589844 C 15.023438 15.648438 15.054688 15.777344 14.996094 15.875 C 14.9375 15.972656 14.808594 16.003906 14.710938 15.941406 C 14.695312 15.933594 14.285156 15.695312 13.710938 15.878906 C 13.351562 15.996094 13.113281 16.285156 13.113281 16.289062 C 13.070312 16.339844 13.011719 16.367188 12.949219 16.367188 " fill-opacity="1" fill-rule="nonzero"/><path fill="#f04974" d="M 8.378906 20.265625 C 8.359375 20.265625 8.34375 20.261719 8.324219 20.257812 C 8.214844 20.222656 8.148438 20.109375 8.179688 20 C 8.1875 19.976562 8.371094 19.351562 9.03125 19.175781 C 9.683594 18.996094 10.085938 19.34375 10.101562 19.359375 C 10.1875 19.4375 10.195312 19.566406 10.121094 19.652344 C 10.046875 19.738281 9.914062 19.746094 9.828125 19.671875 C 9.820312 19.664062 9.570312 19.457031 9.140625 19.574219 C 8.710938 19.691406 8.585938 20.097656 8.578125 20.117188 C 8.550781 20.207031 8.46875 20.265625 8.378906 20.265625 " fill-opacity="1" fill-rule="nonzero"/><path fill="#f04974" d="M 12.683594 13.667969 C 12.570312 13.667969 12.476562 13.578125 12.476562 13.464844 C 12.476562 13.433594 12.472656 12.65625 13.285156 12.300781 C 14.105469 11.941406 14.652344 12.492188 14.675781 12.515625 C 14.753906 12.597656 14.753906 12.726562 14.671875 12.808594 C 14.589844 12.886719 14.460938 12.886719 14.378906 12.804688 C 14.367188 12.789062 14.003906 12.441406 13.453125 12.679688 C 12.894531 12.921875 12.890625 13.4375 12.890625 13.460938 C 12.890625 13.574219 12.796875 13.667969 12.683594 13.667969 " fill-opacity="1" fill-rule="nonzero"/><path fill="#f04974" d="M 22.925781 24.085938 C 22.921875 24.085938 22.914062 24.085938 22.910156 24.085938 C 22.796875 24.078125 22.710938 23.980469 22.71875 23.867188 C 22.742188 23.515625 22.972656 22.824219 23.671875 22.734375 C 23.785156 22.722656 23.890625 22.800781 23.902344 22.914062 C 23.917969 23.03125 23.839844 23.132812 23.726562 23.148438 C 23.183594 23.214844 23.132812 23.886719 23.132812 23.894531 C 23.125 24.003906 23.03125 24.085938 22.925781 24.085938 " fill-opacity="1" fill-rule="nonzero"/><path fill="#ffffff" d="M 22.589844 15.289062 C 22.445312 15.902344 21.378906 16.171875 20.207031 15.894531 C 19.035156 15.617188 18.203125 14.890625 18.347656 14.277344 C 18.492188 13.664062 19.5625 13.394531 20.734375 13.671875 C 21.90625 13.953125 22.738281 14.675781 22.589844 15.289062 " fill-opacity="1" fill-rule="nonzero"/><path fill="#ffffff" d="M 24.574219 17.332031 C 24.355469 17.550781 23.871094 17.421875 23.492188 17.042969 C 23.113281 16.664062 22.984375 16.179688 23.203125 15.957031 C 23.421875 15.738281 23.90625 15.867188 24.285156 16.246094 C 24.660156 16.628906 24.792969 17.113281 24.574219 17.332031 " fill-opacity="1" fill-rule="nonzero"/><g clip-path="url(#42c03350c1)"><path fill="#653031" d="M 3.203125 18.546875 C 3.5625 19.191406 3.476562 19.921875 3.011719 20.179688 C 2.546875 20.441406 1.878906 20.132812 1.523438 19.492188 C 1.164062 18.851562 1.25 18.121094 1.714844 17.859375 C 2.179688 17.597656 2.84375 17.90625 3.203125 18.546875 " fill-opacity="1" fill-rule="nonzero"/></g><path fill="#653031" d="M 6.480469 23.238281 C 5.40625 23.238281 4.507812 22.929688 3.882812 22.339844 C 2.359375 20.917969 2.367188 18.695312 2.367188 18.601562 C 2.367188 18.457031 2.484375 18.34375 2.625 18.34375 C 2.625 18.34375 2.625 18.34375 2.628906 18.34375 C 2.769531 18.347656 2.882812 18.464844 2.882812 18.605469 C 2.882812 18.628906 2.882812 20.699219 4.234375 21.960938 C 5.5625 23.203125 7.882812 22.542969 7.90625 22.535156 C 8.042969 22.496094 8.1875 22.574219 8.226562 22.710938 C 8.265625 22.847656 8.1875 22.992188 8.050781 23.03125 C 8.023438 23.039062 7.390625 23.222656 6.566406 23.238281 C 6.539062 23.238281 6.511719 23.238281 6.480469 23.238281 " fill-opacity="1" fill-rule="nonzero"/><path fill="#653031" d="M 30.835938 18.203125 C 30.667969 18.917969 30.949219 19.597656 31.46875 19.722656 C 31.984375 19.84375 32.542969 19.367188 32.710938 18.652344 C 32.878906 17.9375 32.597656 17.257812 32.082031 17.132812 C 31.5625 17.007812 31.007812 17.488281 30.835938 18.203125 " fill-opacity="1" fill-rule="nonzero"/><path fill="#653031" d="M 27.914062 22.820312 C 27.886719 22.820312 27.859375 22.820312 27.828125 22.820312 C 27.003906 22.804688 26.371094 22.621094 26.34375 22.613281 C 26.207031 22.574219 26.128906 22.429688 26.171875 22.292969 C 26.210938 22.15625 26.355469 22.074219 26.492188 22.117188 C 26.515625 22.125 28.835938 22.785156 30.164062 21.542969 C 31.511719 20.28125 31.511719 18.207031 31.511719 18.1875 C 31.511719 18.042969 31.625 17.925781 31.769531 17.925781 C 31.914062 17.925781 32.027344 18.039062 32.03125 18.183594 C 32.03125 18.277344 32.035156 20.5 30.515625 21.921875 C 29.886719 22.511719 28.988281 22.820312 27.914062 22.820312 " fill-opacity="1" fill-rule="nonzero"/><path fill="#653031" d="M 16.566406 19.492188 C 16.566406 19.765625 16.347656 19.988281 16.078125 19.988281 C 15.804688 19.988281 15.585938 19.765625 15.585938 19.492188 C 15.585938 19.222656 15.804688 19 16.078125 19 C 16.347656 19 16.566406 19.222656 16.566406 19.492188 " fill-opacity="1" fill-rule="nonzero"/><path fill="#653031" d="M 22.570312 19.492188 C 22.570312 19.765625 22.351562 19.988281 22.082031 19.988281 C 21.808594 19.988281 21.589844 19.765625 21.589844 19.492188 C 21.589844 19.222656 21.808594 19 22.082031 19 C 22.351562 19 22.570312 19.222656 22.570312 19.492188 " fill-opacity="1" fill-rule="nonzero"/><path fill="#653031" d="M 19.375 22.695312 C 19.375 23.148438 19.078125 24.011719 18.277344 24.011719 C 17.457031 24.011719 17.15625 23.183594 17.15625 22.691406 C 17.90625 22.957031 18.644531 22.972656 19.375 22.695312 " fill-opacity="1" fill-rule="nonzero"/><path fill="#f45156" d="M 16.324219 21.492188 C 16.324219 21.835938 15.878906 22.117188 15.328125 22.117188 C 14.777344 22.117188 14.332031 21.835938 14.332031 21.492188 C 14.332031 21.144531 14.777344 20.863281 15.328125 20.863281 C 15.878906 20.863281 16.324219 21.144531 16.324219 21.492188 " fill-opacity="1" fill-rule="nonzero"/><path fill="#f45156" d="M 22.203125 21.492188 C 22.203125 21.835938 21.757812 22.117188 21.207031 22.117188 C 20.65625 22.117188 20.210938 21.835938 20.210938 21.492188 C 20.210938 21.144531 20.65625 20.863281 21.207031 20.863281 C 21.757812 20.863281 22.203125 21.144531 22.203125 21.492188 " fill-opacity="1" fill-rule="nonzero"/><path fill="#ffffff" d="M 21.578125 18.160156 C 20.253906 18.160156 19.179688 19.238281 19.179688 20.5625 C 19.179688 21.886719 20.253906 22.964844 21.578125 22.964844 C 22.898438 22.964844 23.972656 21.886719 23.972656 20.5625 C 23.972656 19.238281 22.898438 18.160156 21.578125 18.160156 Z M 21.578125 23.171875 C 20.140625 23.171875 18.972656 22 18.972656 20.5625 C 18.972656 19.125 20.140625 17.953125 21.578125 17.953125 C 23.011719 17.953125 24.179688 19.125 24.179688 20.5625 C 24.179688 22 23.011719 23.171875 21.578125 23.171875 " fill-opacity="1" fill-rule="nonzero"/><path fill="#ffffff" d="M 14.957031 18.160156 C 13.632812 18.160156 12.558594 19.238281 12.558594 20.5625 C 12.558594 21.886719 13.632812 22.964844 14.957031 22.964844 C 16.277344 22.964844 17.351562 21.886719 17.351562 20.5625 C 17.351562 19.238281 16.277344 18.160156 14.957031 18.160156 Z M 14.957031 23.171875 C 13.519531 23.171875 12.351562 22 12.351562 20.5625 C 12.351562 19.125 13.519531 17.953125 14.957031 17.953125 C 16.390625 17.953125 17.558594 19.125 17.558594 20.5625 C 17.558594 22 16.390625 23.171875 14.957031 23.171875 " fill-opacity="1" fill-rule="nonzero"/><path fill="#ffcfd7" d="M 13.210938 20.011719 C 13.199219 20.011719 13.1875 20.011719 13.175781 20.007812 C 13.121094 19.988281 13.09375 19.925781 13.113281 19.875 C 13.367188 19.1875 13.972656 18.703125 14.691406 18.605469 C 14.746094 18.597656 14.800781 18.636719 14.808594 18.695312 C 14.816406 18.75 14.773438 18.804688 14.71875 18.8125 C 14.074219 18.898438 13.535156 19.332031 13.308594 19.945312 C 13.292969 19.988281 13.253906 20.011719 13.210938 20.011719 " fill-opacity="1" fill-rule="nonzero"/><path fill="#ffcfd7" d="M 13.683594 19.976562 C 13.667969 19.976562 13.652344 19.972656 13.636719 19.964844 C 13.585938 19.9375 13.566406 19.875 13.59375 19.824219 C 13.800781 19.429688 14.152344 19.136719 14.527344 19.050781 C 14.582031 19.035156 14.636719 19.070312 14.648438 19.128906 C 14.664062 19.183594 14.628906 19.238281 14.574219 19.253906 C 14.261719 19.324219 13.953125 19.582031 13.773438 19.921875 C 13.757812 19.957031 13.71875 19.976562 13.683594 19.976562 " fill-opacity="1" fill-rule="nonzero"/><path fill="#ffcfd7" d="M 19.945312 19.597656 C 19.929688 19.597656 19.910156 19.59375 19.890625 19.582031 C 19.84375 19.550781 19.828125 19.488281 19.859375 19.4375 C 20.25 18.824219 20.941406 18.476562 21.667969 18.535156 C 21.722656 18.539062 21.765625 18.585938 21.761719 18.644531 C 21.757812 18.703125 21.707031 18.746094 21.652344 18.738281 C 21.003906 18.6875 20.382812 19 20.035156 19.550781 C 20.015625 19.582031 19.980469 19.597656 19.945312 19.597656 " fill-opacity="1" fill-rule="nonzero"/><path fill="#ffcfd7" d="M 20.414062 19.664062 C 20.390625 19.664062 20.367188 19.65625 20.347656 19.636719 C 20.304688 19.601562 20.300781 19.535156 20.335938 19.492188 C 20.625 19.148438 21.027344 18.9375 21.414062 18.933594 C 21.46875 18.933594 21.515625 18.976562 21.515625 19.035156 C 21.519531 19.089844 21.472656 19.136719 21.417969 19.140625 C 21.09375 19.144531 20.742188 19.332031 20.496094 19.625 C 20.472656 19.648438 20.445312 19.664062 20.414062 19.664062 " fill-opacity="1" fill-rule="nonzero"/><path fill="#ffffff" d="M 18.96875 20.824219 C 18.753906 20.585938 18.519531 20.464844 18.277344 20.460938 C 17.871094 20.457031 17.5625 20.765625 17.558594 20.769531 L 17.410156 20.625 C 17.425781 20.609375 17.78125 20.246094 18.28125 20.253906 C 18.585938 20.257812 18.867188 20.402344 19.125 20.683594 L 18.96875 20.824219 " fill-opacity="1" fill-rule="nonzero"/><path fill="#e2f7f6" d="M 20.21875 7.933594 C 20.1875 7.933594 20.160156 7.929688 20.128906 7.917969 C 19.996094 7.867188 19.925781 7.71875 19.976562 7.582031 L 20.402344 6.445312 C 20.453125 6.3125 20.601562 6.246094 20.734375 6.292969 C 20.867188 6.34375 20.9375 6.496094 20.886719 6.628906 L 20.460938 7.765625 C 20.421875 7.867188 20.324219 7.933594 20.21875 7.933594 " fill-opacity="1" fill-rule="nonzero"/><path fill="#e2f7f6" d="M 18.398438 7.609375 C 18.261719 7.609375 18.148438 7.503906 18.140625 7.363281 L 18.0625 6.152344 C 18.054688 6.011719 18.164062 5.886719 18.304688 5.878906 C 18.449219 5.871094 18.570312 5.980469 18.578125 6.121094 L 18.65625 7.332031 C 18.664062 7.476562 18.554688 7.597656 18.414062 7.609375 C 18.40625 7.609375 18.402344 7.609375 18.398438 7.609375 " fill-opacity="1" fill-rule="nonzero"/><path fill="#e2f7f6" d="M 6.496094 11.140625 C 6.429688 11.140625 6.359375 11.113281 6.308594 11.0625 L 5.460938 10.199219 C 5.359375 10.097656 5.363281 9.933594 5.464844 9.832031 C 5.566406 9.730469 5.730469 9.734375 5.828125 9.835938 L 6.679688 10.699219 C 6.777344 10.800781 6.777344 10.964844 6.675781 11.066406 C 6.625 11.117188 6.558594 11.140625 6.496094 11.140625 " fill-opacity="1" fill-rule="nonzero"/><path fill="#e2f7f6" d="M 5.394531 12.675781 C 5.351562 12.675781 5.3125 12.667969 5.273438 12.648438 L 4.199219 12.09375 C 4.070312 12.027344 4.019531 11.871094 4.085938 11.742188 C 4.152344 11.617188 4.308594 11.566406 4.433594 11.632812 L 5.511719 12.1875 C 5.636719 12.253906 5.6875 12.410156 5.621094 12.535156 C 5.578125 12.625 5.488281 12.675781 5.394531 12.675781 " fill-opacity="1" fill-rule="nonzero"/><path fill="#e2f7f6" d="M 8.09375 10.4375 C 7.976562 10.4375 7.867188 10.355469 7.839844 10.234375 L 7.570312 9.054688 C 7.539062 8.914062 7.625 8.773438 7.761719 8.742188 C 7.902344 8.710938 8.042969 8.796875 8.074219 8.9375 L 8.34375 10.121094 C 8.378906 10.257812 8.289062 10.398438 8.152344 10.429688 C 8.132812 10.433594 8.113281 10.4375 8.09375 10.4375 " fill-opacity="1" fill-rule="nonzero"/><path fill="#ffdc48" d="M 32.609375 6.410156 C 32.609375 8.324219 31.058594 9.878906 29.148438 9.878906 C 27.234375 9.878906 25.6875 8.324219 25.6875 6.410156 C 25.6875 4.492188 27.234375 2.9375 29.148438 2.9375 C 31.058594 2.9375 32.609375 4.492188 32.609375 6.410156 " fill-opacity="1" fill-rule="nonzero"/><path fill="#ffffff" d="M 28.40625 5.21875 C 28.058594 5.570312 27.609375 5.683594 27.402344 5.476562 C 27.195312 5.269531 27.3125 4.820312 27.660156 4.46875 C 28.007812 4.121094 28.457031 4.007812 28.664062 4.214844 C 28.871094 4.421875 28.753906 4.871094 28.40625 5.21875 " fill-opacity="1" fill-rule="nonzero"/><path fill="#ffffff" d="M 27.28125 6.613281 C 27.117188 6.765625 26.863281 6.753906 26.710938 6.589844 C 26.5625 6.425781 26.570312 6.167969 26.734375 6.019531 C 26.898438 5.867188 27.152344 5.878906 27.304688 6.042969 C 27.457031 6.207031 27.445312 6.460938 27.28125 6.613281 " fill-opacity="1" fill-rule="nonzero"/><path fill="#ffdc48" d="M 28.996094 1.75 C 28.796875 1.75 28.636719 1.589844 28.636719 1.390625 L 28.636719 0.363281 C 28.636719 0.164062 28.796875 0 28.996094 0 C 29.195312 0 29.359375 0.164062 29.359375 0.363281 L 29.359375 1.390625 C 29.359375 1.589844 29.195312 1.75 28.996094 1.75 " fill-opacity="1" fill-rule="nonzero"/><path fill="#ffdc48" d="M 31.683594 2.589844 C 31.597656 2.589844 31.515625 2.5625 31.445312 2.5 C 31.292969 2.371094 31.277344 2.140625 31.410156 1.988281 L 32.082031 1.214844 C 32.210938 1.0625 32.441406 1.046875 32.589844 1.179688 C 32.742188 1.3125 32.757812 1.539062 32.628906 1.691406 L 31.957031 2.464844 C 31.882812 2.546875 31.785156 2.589844 31.683594 2.589844 " fill-opacity="1" fill-rule="nonzero"/><path fill="#ffdc48" d="M 26.3125 2.589844 C 26.210938 2.589844 26.109375 2.546875 26.039062 2.464844 L 25.367188 1.691406 C 25.234375 1.539062 25.25 1.3125 25.402344 1.179688 C 25.554688 1.046875 25.78125 1.0625 25.914062 1.214844 L 26.585938 1.988281 C 26.714844 2.140625 26.699219 2.371094 26.546875 2.5 C 26.480469 2.5625 26.394531 2.589844 26.3125 2.589844 " fill-opacity="1" fill-rule="nonzero"/><path fill="#ffdc48" d="M 24.523438 4.601562 C 24.464844 4.601562 24.40625 4.589844 24.351562 4.558594 L 23.453125 4.066406 C 23.277344 3.972656 23.210938 3.753906 23.304688 3.574219 C 23.402344 3.398438 23.621094 3.335938 23.796875 3.429688 L 24.695312 3.921875 C 24.871094 4.015625 24.9375 4.238281 24.839844 4.414062 C 24.773438 4.535156 24.652344 4.601562 24.523438 4.601562 " fill-opacity="1" fill-rule="nonzero"/><g clip-path="url(#e410ac5914)"><path fill="#ffdc48" d="M 33.472656 4.601562 C 33.34375 4.601562 33.21875 4.535156 33.152344 4.414062 C 33.058594 4.238281 33.121094 4.015625 33.296875 3.921875 L 34.195312 3.429688 C 34.371094 3.335938 34.59375 3.398438 34.6875 3.574219 C 34.785156 3.753906 34.71875 3.972656 34.542969 4.066406 L 33.644531 4.558594 C 33.589844 4.589844 33.53125 4.601562 33.472656 4.601562 " fill-opacity="1" fill-rule="nonzero"/></g><path fill="#5bccc5" d="M 29.796875 11.234375 L 28.378906 11.234375 C 28.265625 11.234375 28.171875 11.140625 28.171875 11.027344 C 28.171875 10.914062 28.265625 10.820312 28.378906 10.820312 L 29.796875 10.820312 C 29.910156 10.820312 30.003906 10.914062 30.003906 11.027344 C 30.003906 11.140625 29.910156 11.234375 29.796875 11.234375 " fill-opacity="1" fill-rule="nonzero"/><path fill="#5bccc5" d="M 29.796875 12.003906 L 28.378906 12.003906 C 28.265625 12.003906 28.171875 11.914062 28.171875 11.796875 C 28.171875 11.683594 28.265625 11.589844 28.378906 11.589844 L 29.796875 11.589844 C 29.910156 11.589844 30.003906 11.683594 30.003906 11.796875 C 30.003906 11.914062 29.910156 12.003906 29.796875 12.003906 " fill-opacity="1" fill-rule="nonzero"/><path fill="#ffffff" d="M 19.28125 22.730469 C 18.652344 22.945312 18.015625 22.949219 17.375 22.761719 C 17.421875 22.894531 17.492188 23.183594 17.796875 23.253906 C 18.230469 23.351562 18.429688 23.253906 18.429688 23.253906 L 18.558594 22.976562 L 18.664062 23.226562 C 18.664062 23.226562 19.179688 23.152344 19.28125 22.730469 " fill-opacity="1" fill-rule="nonzero"/></svg>