<svg xmlns="http://www.w3.org/2000/svg" xmlns:xlink="http://www.w3.org/1999/xlink" width="67" zoomAndPan="magnify" viewBox="0 0 50.25 36" height="48" preserveAspectRatio="xMidYMid meet" version="1.0"><defs><clipPath id="7eaaade8fe"><path d="M 0.3125 0 L 49.207031 0 L 49.207031 27.128906 L 0.3125 27.128906 Z M 0.3125 0 " clip-rule="nonzero"/></clipPath></defs><g clip-path="url(#7eaaade8fe)"><path fill="#000000" d="M 3.671875 10.886719 L 46.085938 10.886719 C 47.914062 10.886719 49.414062 12.402344 49.414062 14.25 L 49.414062 23.765625 C 49.414062 25.617188 47.914062 27.132812 46.085938 27.132812 L 3.671875 27.132812 C 1.839844 27.132812 0.34375 25.617188 0.34375 23.765625 L 0.34375 14.25 C 0.34375 12.402344 1.839844 10.886719 3.671875 10.886719 Z M 24.878906 0 C 25.542969 0 26.085938 0.546875 26.085938 1.21875 C 26.085938 1.246094 26.085938 1.273438 26.082031 1.300781 L 43.105469 10.375 L 42.050781 10.375 L 25.945312 1.789062 C 25.742188 2.175781 25.339844 2.441406 24.878906 2.441406 C 24.414062 2.441406 24.011719 2.175781 23.808594 1.789062 L 7.703125 10.375 L 6.648438 10.375 L 23.671875 1.300781 C 23.671875 1.273438 23.671875 1.246094 23.671875 1.21875 C 23.671875 0.546875 24.210938 0 24.878906 0 Z M 3.671875 11.53125 L 46.085938 11.53125 C 47.566406 11.53125 48.777344 12.753906 48.777344 14.25 L 48.777344 23.765625 C 48.777344 25.261719 47.566406 26.488281 46.085938 26.488281 L 3.671875 26.488281 C 2.191406 26.488281 0.980469 25.261719 0.980469 23.765625 L 0.980469 14.25 C 0.980469 12.753906 2.191406 11.53125 3.671875 11.53125 Z M 3.671875 12.175781 L 46.085938 12.175781 C 47.214844 12.175781 48.136719 13.109375 48.136719 14.25 L 48.136719 23.765625 C 48.136719 24.910156 47.214844 25.84375 46.085938 25.84375 L 3.671875 25.84375 C 2.542969 25.84375 1.617188 24.910156 1.617188 23.765625 L 1.617188 14.25 C 1.617188 13.109375 2.542969 12.175781 3.671875 12.175781 Z M 6.039062 19.960938 L 6.039062 21.03125 C 6.039062 21.210938 6.015625 21.351562 5.964844 21.457031 C 5.917969 21.5625 5.847656 21.640625 5.757812 21.6875 C 5.667969 21.738281 5.558594 21.761719 5.4375 21.757812 C 5.3125 21.761719 5.207031 21.738281 5.117188 21.6875 C 5.027344 21.640625 4.957031 21.5625 4.90625 21.457031 C 4.859375 21.351562 4.832031 21.210938 4.832031 21.03125 L 4.832031 16.988281 C 4.835938 16.722656 4.890625 16.53125 4.996094 16.417969 C 5.105469 16.300781 5.25 16.246094 5.4375 16.25 C 5.625 16.246094 5.769531 16.300781 5.878906 16.417969 C 5.984375 16.53125 6.039062 16.722656 6.039062 16.988281 L 6.039062 17.789062 L 7.140625 17.789062 L 7.140625 17.0625 C 7.140625 16.660156 7.074219 16.320312 6.945312 16.039062 C 6.816406 15.761719 6.621094 15.546875 6.363281 15.398438 C 6.105469 15.253906 5.785156 15.179688 5.40625 15.179688 C 5.023438 15.179688 4.703125 15.253906 4.449219 15.398438 C 4.191406 15.546875 3.996094 15.761719 3.867188 16.039062 C 3.734375 16.320312 3.667969 16.660156 3.667969 17.0625 L 3.667969 20.957031 C 3.667969 21.359375 3.734375 21.695312 3.867188 21.976562 C 3.996094 22.257812 4.191406 22.46875 4.449219 22.617188 C 4.703125 22.765625 5.023438 22.835938 5.40625 22.839844 C 5.785156 22.835938 6.105469 22.765625 6.363281 22.617188 C 6.621094 22.46875 6.816406 22.257812 6.945312 21.976562 C 7.074219 21.695312 7.140625 21.359375 7.140625 20.957031 L 7.140625 19.960938 Z M 8.917969 16.988281 C 8.921875 16.722656 8.976562 16.53125 9.082031 16.417969 C 9.1875 16.300781 9.335938 16.246094 9.523438 16.25 C 9.707031 16.246094 9.855469 16.300781 9.964844 16.417969 C 10.070312 16.53125 10.125 16.722656 10.125 16.988281 L 10.125 21.03125 C 10.125 21.296875 10.070312 21.484375 9.964844 21.601562 C 9.855469 21.714844 9.707031 21.773438 9.523438 21.769531 C 9.335938 21.773438 9.1875 21.714844 9.082031 21.601562 C 8.976562 21.484375 8.921875 21.296875 8.917969 21.03125 Z M 7.753906 20.957031 C 7.753906 21.359375 7.824219 21.695312 7.960938 21.976562 C 8.09375 22.257812 8.292969 22.46875 8.554688 22.617188 C 8.820312 22.765625 9.140625 22.835938 9.523438 22.839844 C 9.902344 22.835938 10.226562 22.765625 10.488281 22.617188 C 10.75 22.46875 10.949219 22.257812 11.085938 21.976562 C 11.21875 21.695312 11.289062 21.359375 11.289062 20.957031 L 11.289062 17.0625 C 11.289062 16.660156 11.21875 16.320312 11.085938 16.039062 C 10.949219 15.761719 10.75 15.546875 10.488281 15.398438 C 10.226562 15.253906 9.902344 15.179688 9.523438 15.179688 C 9.140625 15.179688 8.820312 15.253906 8.554688 15.398438 C 8.292969 15.546875 8.09375 15.761719 7.960938 16.039062 C 7.824219 16.320312 7.753906 16.660156 7.753906 17.0625 Z M 13.648438 15.265625 L 12.03125 15.265625 L 12.03125 22.753906 L 13.046875 22.753906 L 13.046875 17.457031 L 13.914062 22.753906 L 15.015625 22.753906 L 15.820312 17.382812 L 15.820312 22.753906 L 16.917969 22.753906 L 16.917969 15.265625 L 15.300781 15.265625 L 14.507812 20.582031 Z M 17.765625 22.753906 L 18.929688 22.753906 L 18.929688 15.265625 L 17.765625 15.265625 Z M 22.265625 22.753906 L 23.460938 22.753906 L 23.460938 15.265625 L 22.421875 15.265625 L 22.421875 19.746094 L 21.226562 15.265625 L 19.765625 15.265625 L 19.765625 22.753906 L 20.8125 22.753906 L 20.8125 17.328125 Z M 26.042969 19.652344 L 26.570312 19.652344 L 26.570312 21.03125 C 26.570312 21.207031 26.546875 21.351562 26.496094 21.457031 C 26.449219 21.5625 26.378906 21.640625 26.289062 21.6875 C 26.199219 21.738281 26.089844 21.761719 25.96875 21.757812 C 25.84375 21.761719 25.738281 21.738281 25.648438 21.6875 C 25.558594 21.640625 25.488281 21.5625 25.4375 21.457031 C 25.390625 21.351562 25.363281 21.207031 25.363281 21.03125 L 25.363281 16.988281 C 25.367188 16.722656 25.421875 16.53125 25.527344 16.417969 C 25.636719 16.300781 25.78125 16.246094 25.96875 16.25 C 26.15625 16.246094 26.300781 16.300781 26.410156 16.417969 C 26.515625 16.53125 26.570312 16.722656 26.570312 16.988281 L 26.570312 17.789062 L 27.671875 17.789062 L 27.671875 17.0625 C 27.671875 16.660156 27.605469 16.320312 27.476562 16.039062 C 27.347656 15.761719 27.152344 15.546875 26.894531 15.398438 C 26.636719 15.253906 26.316406 15.179688 25.9375 15.179688 C 25.554688 15.179688 25.234375 15.253906 24.976562 15.398438 C 24.722656 15.546875 24.527344 15.761719 24.398438 16.039062 C 24.265625 16.320312 24.199219 16.660156 24.199219 17.0625 L 24.199219 20.957031 C 24.199219 21.359375 24.265625 21.695312 24.398438 21.976562 C 24.527344 22.257812 24.722656 22.46875 24.976562 22.617188 C 25.234375 22.765625 25.554688 22.835938 25.9375 22.839844 C 26.316406 22.835938 26.636719 22.765625 26.894531 22.617188 C 27.152344 22.46875 27.347656 22.257812 27.476562 21.976562 C 27.605469 21.695312 27.671875 21.359375 27.671875 20.957031 L 27.671875 18.582031 L 26.042969 18.582031 Z M 29.914062 17.0625 C 29.917969 17.367188 29.960938 17.636719 30.042969 17.875 C 30.125 18.113281 30.230469 18.328125 30.367188 18.515625 C 30.5 18.703125 30.648438 18.878906 30.8125 19.039062 C 30.972656 19.195312 31.132812 19.351562 31.296875 19.496094 C 31.457031 19.640625 31.605469 19.792969 31.738281 19.945312 C 31.875 20.097656 31.984375 20.261719 32.066406 20.4375 C 32.148438 20.617188 32.1875 20.8125 32.191406 21.03125 C 32.191406 21.210938 32.167969 21.351562 32.117188 21.457031 C 32.066406 21.5625 32 21.640625 31.910156 21.6875 C 31.820312 21.738281 31.710938 21.761719 31.589844 21.757812 C 31.464844 21.761719 31.355469 21.738281 31.265625 21.6875 C 31.175781 21.640625 31.109375 21.5625 31.058594 21.457031 C 31.007812 21.351562 30.984375 21.210938 30.984375 21.03125 L 30.984375 20.496094 L 29.882812 20.496094 L 29.882812 20.957031 C 29.882812 21.359375 29.949219 21.695312 30.078125 21.976562 C 30.210938 22.257812 30.402344 22.46875 30.660156 22.617188 C 30.917969 22.765625 31.238281 22.835938 31.621094 22.839844 C 32 22.835938 32.320312 22.765625 32.578125 22.617188 C 32.835938 22.46875 33.027344 22.257812 33.160156 21.976562 C 33.289062 21.695312 33.355469 21.359375 33.355469 20.957031 C 33.351562 20.652344 33.3125 20.378906 33.230469 20.144531 C 33.148438 19.90625 33.039062 19.691406 32.902344 19.503906 C 32.769531 19.3125 32.621094 19.140625 32.460938 18.980469 C 32.296875 18.820312 32.136719 18.667969 31.976562 18.523438 C 31.8125 18.375 31.664062 18.226562 31.53125 18.074219 C 31.394531 17.921875 31.289062 17.753906 31.203125 17.578125 C 31.125 17.402344 31.082031 17.203125 31.078125 16.988281 C 31.082031 16.722656 31.128906 16.53125 31.230469 16.417969 C 31.332031 16.300781 31.476562 16.246094 31.660156 16.25 C 31.847656 16.246094 31.992188 16.300781 32.09375 16.417969 C 32.191406 16.53125 32.242188 16.722656 32.242188 16.988281 L 32.242188 17.296875 L 33.34375 17.296875 L 33.34375 17.0625 C 33.34375 16.660156 33.277344 16.320312 33.152344 16.039062 C 33.023438 15.761719 32.832031 15.546875 32.578125 15.398438 C 32.324219 15.253906 32.007812 15.179688 31.628906 15.179688 C 31.253906 15.179688 30.9375 15.253906 30.683594 15.398438 C 30.429688 15.546875 30.238281 15.761719 30.109375 16.039062 C 29.980469 16.320312 29.914062 16.660156 29.914062 17.0625 Z M 35.089844 16.988281 C 35.09375 16.722656 35.148438 16.53125 35.253906 16.417969 C 35.359375 16.300781 35.507812 16.246094 35.695312 16.25 C 35.878906 16.246094 36.027344 16.300781 36.136719 16.417969 C 36.242188 16.53125 36.296875 16.722656 36.296875 16.988281 L 36.296875 21.03125 C 36.296875 21.296875 36.242188 21.484375 36.136719 21.601562 C 36.027344 21.714844 35.878906 21.773438 35.695312 21.769531 C 35.507812 21.773438 35.359375 21.714844 35.253906 21.601562 C 35.148438 21.484375 35.09375 21.296875 35.089844 21.03125 Z M 33.925781 20.957031 C 33.925781 21.359375 33.996094 21.695312 34.132812 21.976562 C 34.265625 22.257812 34.464844 22.46875 34.726562 22.617188 C 34.992188 22.765625 35.3125 22.835938 35.695312 22.839844 C 36.074219 22.835938 36.398438 22.765625 36.660156 22.617188 C 36.921875 22.46875 37.121094 22.257812 37.257812 21.976562 C 37.390625 21.695312 37.460938 21.359375 37.460938 20.957031 L 37.460938 17.0625 C 37.460938 16.660156 37.390625 16.320312 37.257812 16.039062 C 37.121094 15.761719 36.921875 15.546875 36.660156 15.398438 C 36.398438 15.253906 36.074219 15.179688 35.695312 15.179688 C 35.3125 15.179688 34.992188 15.253906 34.726562 15.398438 C 34.464844 15.546875 34.265625 15.761719 34.132812 16.039062 C 33.996094 16.320312 33.925781 16.660156 33.925781 17.0625 Z M 39.28125 16.988281 C 39.28125 16.722656 39.339844 16.53125 39.445312 16.417969 C 39.550781 16.300781 39.699219 16.246094 39.886719 16.25 C 40.070312 16.246094 40.21875 16.300781 40.324219 16.417969 C 40.429688 16.53125 40.484375 16.722656 40.488281 16.988281 L 40.488281 21.03125 C 40.484375 21.296875 40.429688 21.484375 40.324219 21.601562 C 40.21875 21.714844 40.070312 21.773438 39.886719 21.769531 C 39.699219 21.773438 39.550781 21.714844 39.445312 21.601562 C 39.339844 21.484375 39.28125 21.296875 39.28125 21.03125 Z M 38.117188 20.957031 C 38.117188 21.359375 38.1875 21.695312 38.320312 21.976562 C 38.457031 22.257812 38.65625 22.46875 38.917969 22.617188 C 39.179688 22.765625 39.503906 22.835938 39.886719 22.839844 C 40.265625 22.835938 40.589844 22.765625 40.851562 22.617188 C 41.113281 22.46875 41.3125 22.257812 41.449219 21.976562 C 41.582031 21.695312 41.652344 21.359375 41.652344 20.957031 L 41.652344 17.0625 C 41.652344 16.660156 41.582031 16.320312 41.449219 16.039062 C 41.3125 15.761719 41.113281 15.546875 40.851562 15.398438 C 40.589844 15.253906 40.265625 15.179688 39.886719 15.179688 C 39.503906 15.179688 39.179688 15.253906 38.917969 15.398438 C 38.65625 15.546875 38.457031 15.761719 38.320312 16.039062 C 38.1875 16.320312 38.117188 16.660156 38.117188 17.0625 Z M 44.890625 22.753906 L 46.085938 22.753906 L 46.085938 15.265625 L 45.050781 15.265625 L 45.050781 19.746094 L 43.855469 15.265625 L 42.394531 15.265625 L 42.394531 22.753906 L 43.441406 22.753906 L 43.441406 17.328125 Z M 44.890625 22.753906 " fill-opacity="1" fill-rule="evenodd"/></g></svg>