<svg xmlns="http://www.w3.org/2000/svg" xmlns:xlink="http://www.w3.org/1999/xlink" width="96" zoomAndPan="magnify" viewBox="0 0 72 72" height="96" preserveAspectRatio="xMidYMid meet" version="1.0"><defs><clipPath id="63428404cd"><path d="M 71.082031 69.628906 C 61.207031 66.5625 51.003906 64.8125 40.691406 64.402344 L 39.863281 41.1875 C 40.34375 41.5 40.871094 41.746094 41.433594 41.910156 L 55.972656 46.066406 C 56.726562 46.285156 57.503906 46.390625 58.28125 46.390625 C 59.007812 46.390625 59.738281 46.296875 60.449219 46.105469 L 63.433594 45.304688 C 63.902344 45.179688 64.25 44.785156 64.3125 44.304688 C 64.375 43.824219 64.144531 43.355469 63.722656 43.113281 L 40.539062 29.726562 C 40.339844 29.132812 40.023438 28.589844 39.625 28.128906 L 40.96875 26.78125 C 42.414062 25.335938 43.003906 23.203125 42.511719 21.222656 L 38.84375 6.550781 C 38.472656 5.078125 37.710938 3.730469 36.636719 2.652344 L 34.453125 0.46875 C 34.109375 0.128906 33.59375 0.0234375 33.148438 0.210938 C 32.699219 0.394531 32.40625 0.832031 32.40625 1.316406 L 32.40625 28.089844 C 32.003906 28.550781 31.683594 29.089844 31.476562 29.679688 L 29.640625 29.1875 C 27.664062 28.660156 25.527344 29.210938 24.054688 30.632812 L 13.183594 41.144531 C 12.09375 42.203125 11.308594 43.535156 10.914062 45.003906 L 10.113281 47.988281 C 9.988281 48.457031 10.15625 48.953125 10.542969 49.246094 C 10.753906 49.410156 11.011719 49.496094 11.269531 49.496094 C 11.476562 49.496094 11.683594 49.441406 11.871094 49.335938 L 32.265625 37.558594 L 31.308594 64.402344 C 20.996094 64.8125 10.792969 66.5625 0.917969 69.628906 C 0.351562 69.804688 0 70.367188 0.0898438 70.953125 C 0.175781 71.539062 0.679688 71.96875 1.273438 71.96875 L 70.726562 71.96875 C 71.320312 71.96875 71.824219 71.539062 71.910156 70.953125 C 72 70.367188 71.648438 69.804688 71.082031 69.628906 Z M 36 28.859375 C 37.320312 28.859375 38.394531 29.933594 38.394531 31.253906 C 38.394531 32.574219 37.320312 33.648438 36 33.648438 C 34.679688 33.648438 33.605469 32.574219 33.605469 31.253906 C 33.605469 29.933594 34.679688 28.859375 36 28.859375 Z M 59.832031 43.792969 C 58.78125 44.074219 57.675781 44.0625 56.632812 43.765625 L 42.09375 39.605469 C 40.929688 39.273438 40.015625 38.34375 39.703125 37.175781 L 39.09375 34.90625 C 39.816406 34.292969 40.355469 33.472656 40.613281 32.535156 L 60.023438 43.742188 Z M 34.941406 4.347656 C 35.710938 5.117188 36.253906 6.078125 36.519531 7.132812 L 40.1875 21.800781 C 40.480469 22.972656 40.128906 24.234375 39.277344 25.085938 L 37.617188 26.746094 C 37.113281 26.566406 36.566406 26.464844 36 26.464844 C 35.585938 26.464844 35.183594 26.515625 34.800781 26.617188 L 34.800781 4.207031 Z M 13.175781 45.816406 L 13.226562 45.625 C 13.507812 44.574219 14.070312 43.621094 14.851562 42.867188 L 25.71875 32.355469 C 26.589844 31.515625 27.851562 31.1875 29.019531 31.5 L 31.289062 32.109375 C 31.441406 32.96875 31.828125 33.75 32.378906 34.386719 L 32.367188 34.734375 Z M 34.714844 36.144531 L 35.050781 35.949219 C 35.359375 36.011719 35.675781 36.042969 36 36.042969 C 36.308594 36.042969 36.605469 36.015625 36.898438 35.960938 L 37.335938 37.601562 L 38.292969 64.332031 C 37.527344 64.316406 36.765625 64.308594 36 64.308594 C 35.234375 64.308594 34.472656 64.316406 33.707031 64.332031 Z M 10.355469 69.574219 C 18.761719 67.667969 27.351562 66.707031 36 66.707031 C 44.648438 66.707031 53.238281 67.667969 61.644531 69.574219 Z M 53.960938 4.3125 C 53.960938 2 55.84375 0.121094 58.152344 0.121094 L 61.148438 0.121094 C 61.808594 0.121094 62.34375 0.65625 62.34375 1.316406 C 62.34375 1.980469 61.808594 2.515625 61.148438 2.515625 L 58.152344 2.515625 C 57.164062 2.515625 56.359375 3.320312 56.359375 4.3125 C 56.359375 5.300781 57.164062 6.105469 58.152344 6.105469 L 70.726562 6.105469 C 71.390625 6.105469 71.925781 6.644531 71.925781 7.304688 C 71.925781 7.964844 71.390625 8.503906 70.726562 8.503906 L 58.152344 8.503906 C 55.84375 8.503906 53.960938 6.621094 53.960938 4.3125 Z M 59.949219 15.089844 C 59.949219 16.078125 60.757812 16.886719 61.746094 16.886719 L 64.738281 16.886719 C 65.402344 16.886719 65.9375 17.421875 65.9375 18.082031 C 65.9375 18.742188 65.402344 19.28125 64.738281 19.28125 L 61.746094 19.28125 C 59.433594 19.28125 57.554688 17.398438 57.554688 15.089844 C 57.554688 12.777344 59.433594 10.898438 61.746094 10.898438 L 69.53125 10.898438 C 70.191406 10.898438 70.726562 11.433594 70.726562 12.09375 C 70.726562 12.757812 70.191406 13.292969 69.53125 13.292969 L 61.746094 13.292969 C 60.757812 13.292969 59.949219 14.097656 59.949219 15.089844 Z M 71.925781 54.007812 C 71.925781 54.667969 71.390625 55.203125 70.726562 55.203125 L 61.148438 55.203125 C 59.167969 55.203125 57.554688 53.59375 57.554688 51.613281 C 57.554688 49.632812 59.167969 48.019531 61.148438 48.019531 L 63.542969 48.019531 C 64.203125 48.019531 64.738281 48.554688 64.738281 49.21875 C 64.738281 49.878906 64.203125 50.414062 63.542969 50.414062 L 61.148438 50.414062 C 60.488281 50.414062 59.949219 50.953125 59.949219 51.613281 C 59.949219 52.273438 60.488281 52.808594 61.148438 52.808594 L 70.726562 52.808594 C 71.390625 52.808594 71.925781 53.347656 71.925781 54.007812 Z M 57.554688 61.191406 C 57.554688 61.851562 58.09375 62.390625 58.753906 62.390625 L 61.148438 62.390625 C 61.808594 62.390625 62.34375 62.925781 62.34375 63.585938 C 62.34375 64.25 61.808594 64.785156 61.148438 64.785156 L 58.753906 64.785156 C 56.773438 64.785156 55.160156 63.171875 55.160156 61.191406 C 55.160156 59.210938 56.773438 57.601562 58.753906 57.601562 L 67.136719 57.601562 C 67.796875 57.601562 68.332031 58.136719 68.332031 58.796875 C 68.332031 59.457031 67.796875 59.996094 67.136719 59.996094 L 58.753906 59.996094 C 58.09375 59.996094 57.554688 60.53125 57.554688 61.191406 Z M 0.0742188 49.816406 C 0.0742188 47.503906 1.953125 45.625 4.265625 45.625 L 7.261719 45.625 C 7.921875 45.625 8.457031 46.160156 8.457031 46.824219 C 8.457031 47.484375 7.921875 48.019531 7.261719 48.019531 L 4.265625 48.019531 C 3.277344 48.019531 2.46875 48.824219 2.46875 49.816406 C 2.46875 50.808594 3.277344 51.613281 4.265625 51.613281 L 13.246094 51.613281 C 13.910156 51.613281 14.445312 52.148438 14.445312 52.808594 C 14.445312 53.472656 13.910156 54.007812 13.246094 54.007812 L 4.265625 54.007812 C 1.953125 54.007812 0.0742188 52.128906 0.0742188 49.816406 Z M 0.0742188 13.890625 C 0.0742188 11.578125 1.953125 9.699219 4.265625 9.699219 L 18.039062 9.699219 C 18.699219 9.699219 19.234375 10.234375 19.234375 10.898438 C 19.234375 11.558594 18.699219 12.09375 18.039062 12.09375 L 4.265625 12.09375 C 3.277344 12.09375 2.46875 12.902344 2.46875 13.890625 C 2.46875 14.882812 3.277344 15.6875 4.265625 15.6875 L 7.261719 15.6875 C 7.921875 15.6875 8.457031 16.222656 8.457031 16.886719 C 8.457031 17.546875 7.921875 18.082031 7.261719 18.082031 L 4.265625 18.082031 C 1.953125 18.082031 0.0742188 16.203125 0.0742188 13.890625 Z M 7.859375 56.402344 L 21.628906 56.402344 C 22.292969 56.402344 22.828125 56.9375 22.828125 57.601562 C 22.828125 58.261719 22.292969 58.796875 21.628906 58.796875 L 7.859375 58.796875 C 6.867188 58.796875 6.0625 59.601562 6.0625 60.59375 C 6.0625 61.585938 6.867188 62.390625 7.859375 62.390625 L 10.851562 62.390625 C 11.515625 62.390625 12.050781 62.925781 12.050781 63.585938 C 12.050781 64.25 11.515625 64.785156 10.851562 64.785156 L 7.859375 64.785156 C 5.546875 64.785156 3.667969 62.90625 3.667969 60.59375 C 3.667969 58.28125 5.546875 56.402344 7.859375 56.402344 Z M 3.667969 3.710938 C 3.667969 1.730469 5.277344 0.121094 7.261719 0.121094 L 9.65625 0.121094 C 10.316406 0.121094 10.851562 0.65625 10.851562 1.316406 C 10.851562 1.980469 10.316406 2.515625 9.65625 2.515625 L 7.261719 2.515625 C 6.597656 2.515625 6.0625 3.050781 6.0625 3.710938 C 6.0625 4.371094 6.597656 4.910156 7.261719 4.910156 L 16.839844 4.910156 C 17.5 4.910156 18.039062 5.445312 18.039062 6.105469 C 18.039062 6.769531 17.5 7.304688 16.839844 7.304688 L 7.261719 7.304688 C 5.277344 7.304688 3.667969 5.691406 3.667969 3.710938 Z M 53.941406 47.164062 C 54.414062 47.628906 54.421875 48.386719 53.957031 48.859375 C 51.066406 51.808594 47.464844 54.019531 43.542969 55.25 C 43.425781 55.289062 43.304688 55.304688 43.183594 55.304688 C 42.675781 55.304688 42.203125 54.980469 42.042969 54.46875 C 41.84375 53.835938 42.195312 53.164062 42.824219 52.964844 C 46.371094 51.851562 49.628906 49.851562 52.25 47.179688 C 52.710938 46.710938 53.46875 46.703125 53.941406 47.164062 Z M 42.042969 8.042969 C 42.242188 7.410156 42.914062 7.0625 43.542969 7.257812 C 48.539062 8.828125 53.023438 12.015625 56.171875 16.234375 C 59.425781 20.601562 61.148438 25.792969 61.148438 31.253906 C 61.148438 33.382812 60.882812 35.5 60.355469 37.539062 C 60.214844 38.082031 59.730469 38.441406 59.195312 38.441406 C 59.097656 38.441406 58.996094 38.429688 58.898438 38.402344 C 58.257812 38.238281 57.871094 37.585938 58.035156 36.945312 C 58.511719 35.097656 58.753906 33.183594 58.753906 31.253906 C 58.753906 26.3125 57.195312 21.617188 54.25 17.667969 C 51.402344 13.847656 47.347656 10.964844 42.828125 9.542969 C 42.195312 9.34375 41.84375 8.671875 42.042969 8.042969 Z M 28.457031 7.257812 C 29.085938 7.0625 29.757812 7.410156 29.957031 8.042969 C 30.15625 8.671875 29.804688 9.34375 29.171875 9.542969 C 24.652344 10.964844 20.597656 13.847656 17.75 17.667969 C 14.804688 21.617188 13.246094 26.3125 13.246094 31.253906 C 13.246094 33.183594 13.488281 35.097656 13.964844 36.945312 C 14.128906 37.585938 13.742188 38.238281 13.101562 38.402344 C 13.003906 38.429688 12.902344 38.441406 12.804688 38.441406 C 12.269531 38.441406 11.785156 38.082031 11.644531 37.539062 C 11.117188 35.5 10.851562 33.382812 10.851562 31.253906 C 10.851562 25.792969 12.574219 20.601562 15.828125 16.234375 C 18.976562 12.015625 23.460938 8.828125 28.457031 7.257812 Z M 28.457031 55.25 C 24.699219 54.070312 21.222656 51.984375 18.398438 49.214844 C 17.925781 48.75 17.917969 47.992188 18.378906 47.519531 C 18.84375 47.046875 19.601562 47.039062 20.074219 47.503906 C 22.628906 50.011719 25.777344 51.898438 29.171875 52.964844 C 29.804688 53.164062 30.15625 53.835938 29.957031 54.46875 C 29.796875 54.980469 29.324219 55.304688 28.816406 55.304688 C 28.695312 55.304688 28.574219 55.289062 28.457031 55.25 Z M 28.457031 55.25 " clip-rule="nonzero"/></clipPath><linearGradient x1="24.096994" gradientTransform="matrix(0.149688, 0, 0, 0.149688, -2.320166, -2.275259)" y1="504.597007" x2="504.913508" gradientUnits="userSpaceOnUse" y2="23.780491" id="672321bd8d"><stop stop-opacity="1" stop-color="rgb(36.898804%, 73.699951%, 89.7995%)" offset="0"/><stop stop-opacity="1" stop-color="rgb(36.985779%, 73.632812%, 89.7995%)" offset="0.0078125"/><stop stop-opacity="1" stop-color="rgb(37.350464%, 73.350525%, 89.804077%)" offset="0.0117187"/><stop stop-opacity="1" stop-color="rgb(37.6297%, 73.135376%, 89.807129%)" offset="0.015625"/><stop stop-opacity="1" stop-color="rgb(37.908936%, 72.920227%, 89.810181%)" offset="0.0195312"/><stop stop-opacity="1" stop-color="rgb(38.188171%, 72.705078%, 89.814758%)" offset="0.0234375"/><stop stop-opacity="1" stop-color="rgb(38.467407%, 72.489929%, 89.81781%)" offset="0.0273437"/><stop stop-opacity="1" stop-color="rgb(38.746643%, 72.27478%, 89.820862%)" offset="0.03125"/><stop stop-opacity="1" stop-color="rgb(39.025879%, 72.059631%, 89.823914%)" offset="0.0351562"/><stop stop-opacity="1" stop-color="rgb(39.305115%, 71.844482%, 89.826965%)" offset="0.0390625"/><stop stop-opacity="1" stop-color="rgb(39.582825%, 71.629333%, 89.830017%)" offset="0.0429688"/><stop stop-opacity="1" stop-color="rgb(39.862061%, 71.414185%, 89.833069%)" offset="0.046875"/><stop stop-opacity="1" stop-color="rgb(40.141296%, 71.199036%, 89.836121%)" offset="0.0507812"/><stop stop-opacity="1" stop-color="rgb(40.420532%, 70.983887%, 89.840698%)" offset="0.0546875"/><stop stop-opacity="1" stop-color="rgb(40.699768%, 70.768738%, 89.84375%)" offset="0.0585938"/><stop stop-opacity="1" stop-color="rgb(40.979004%, 70.553589%, 89.846802%)" offset="0.0625"/><stop stop-opacity="1" stop-color="rgb(41.25824%, 70.33844%, 89.849854%)" offset="0.0664062"/><stop stop-opacity="1" stop-color="rgb(41.537476%, 70.123291%, 89.852905%)" offset="0.0703125"/><stop stop-opacity="1" stop-color="rgb(41.815186%, 69.908142%, 89.855957%)" offset="0.0742188"/><stop stop-opacity="1" stop-color="rgb(42.094421%, 69.692993%, 89.859009%)" offset="0.078125"/><stop stop-opacity="1" stop-color="rgb(42.373657%, 69.477844%, 89.862061%)" offset="0.0820312"/><stop stop-opacity="1" stop-color="rgb(42.652893%, 69.262695%, 89.866638%)" offset="0.0859375"/><stop stop-opacity="1" stop-color="rgb(42.932129%, 69.047546%, 89.86969%)" offset="0.0898437"/><stop stop-opacity="1" stop-color="rgb(43.211365%, 68.832397%, 89.872742%)" offset="0.09375"/><stop stop-opacity="1" stop-color="rgb(43.490601%, 68.617249%, 89.875793%)" offset="0.0976562"/><stop stop-opacity="1" stop-color="rgb(43.769836%, 68.4021%, 89.878845%)" offset="0.101562"/><stop stop-opacity="1" stop-color="rgb(44.047546%, 68.186951%, 89.881897%)" offset="0.105469"/><stop stop-opacity="1" stop-color="rgb(44.326782%, 67.971802%, 89.884949%)" offset="0.109375"/><stop stop-opacity="1" stop-color="rgb(44.606018%, 67.756653%, 89.888%)" offset="0.113281"/><stop stop-opacity="1" stop-color="rgb(44.885254%, 67.541504%, 89.892578%)" offset="0.117187"/><stop stop-opacity="1" stop-color="rgb(45.16449%, 67.326355%, 89.89563%)" offset="0.121094"/><stop stop-opacity="1" stop-color="rgb(45.443726%, 67.111206%, 89.898682%)" offset="0.125"/><stop stop-opacity="1" stop-color="rgb(45.722961%, 66.896057%, 89.901733%)" offset="0.128906"/><stop stop-opacity="1" stop-color="rgb(46.002197%, 66.680908%, 89.904785%)" offset="0.132812"/><stop stop-opacity="1" stop-color="rgb(46.279907%, 66.465759%, 89.907837%)" offset="0.136719"/><stop stop-opacity="1" stop-color="rgb(46.559143%, 66.25061%, 89.910889%)" offset="0.140625"/><stop stop-opacity="1" stop-color="rgb(46.838379%, 66.035461%, 89.91394%)" offset="0.144531"/><stop stop-opacity="1" stop-color="rgb(47.117615%, 65.820312%, 89.916992%)" offset="0.148438"/><stop stop-opacity="1" stop-color="rgb(47.396851%, 65.605164%, 89.920044%)" offset="0.152344"/><stop stop-opacity="1" stop-color="rgb(47.676086%, 65.390015%, 89.924622%)" offset="0.15625"/><stop stop-opacity="1" stop-color="rgb(47.955322%, 65.174866%, 89.927673%)" offset="0.160156"/><stop stop-opacity="1" stop-color="rgb(48.234558%, 64.959717%, 89.930725%)" offset="0.164062"/><stop stop-opacity="1" stop-color="rgb(48.512268%, 64.744568%, 89.933777%)" offset="0.167969"/><stop stop-opacity="1" stop-color="rgb(48.791504%, 64.529419%, 89.936829%)" offset="0.171875"/><stop stop-opacity="1" stop-color="rgb(49.07074%, 64.31427%, 89.93988%)" offset="0.175781"/><stop stop-opacity="1" stop-color="rgb(49.349976%, 64.099121%, 89.942932%)" offset="0.179687"/><stop stop-opacity="1" stop-color="rgb(49.629211%, 63.883972%, 89.945984%)" offset="0.183594"/><stop stop-opacity="1" stop-color="rgb(49.908447%, 63.668823%, 89.950562%)" offset="0.1875"/><stop stop-opacity="1" stop-color="rgb(50.187683%, 63.453674%, 89.953613%)" offset="0.191406"/><stop stop-opacity="1" stop-color="rgb(50.466919%, 63.238525%, 89.956665%)" offset="0.195312"/><stop stop-opacity="1" stop-color="rgb(50.744629%, 63.023376%, 89.959717%)" offset="0.199219"/><stop stop-opacity="1" stop-color="rgb(51.023865%, 62.808228%, 89.962769%)" offset="0.203125"/><stop stop-opacity="1" stop-color="rgb(51.303101%, 62.593079%, 89.96582%)" offset="0.207031"/><stop stop-opacity="1" stop-color="rgb(51.582336%, 62.37793%, 89.968872%)" offset="0.210938"/><stop stop-opacity="1" stop-color="rgb(51.861572%, 62.162781%, 89.971924%)" offset="0.214844"/><stop stop-opacity="1" stop-color="rgb(52.140808%, 61.947632%, 89.976501%)" offset="0.21875"/><stop stop-opacity="1" stop-color="rgb(52.420044%, 61.732483%, 89.979553%)" offset="0.222656"/><stop stop-opacity="1" stop-color="rgb(52.69928%, 61.517334%, 89.982605%)" offset="0.226562"/><stop stop-opacity="1" stop-color="rgb(52.97699%, 61.302185%, 89.985657%)" offset="0.230469"/><stop stop-opacity="1" stop-color="rgb(53.256226%, 61.087036%, 89.988708%)" offset="0.234375"/><stop stop-opacity="1" stop-color="rgb(53.535461%, 60.871887%, 89.99176%)" offset="0.238281"/><stop stop-opacity="1" stop-color="rgb(53.814697%, 60.656738%, 89.994812%)" offset="0.242187"/><stop stop-opacity="1" stop-color="rgb(54.093933%, 60.441589%, 89.997864%)" offset="0.246094"/><stop stop-opacity="1" stop-color="rgb(54.373169%, 60.22644%, 90.002441%)" offset="0.25"/><stop stop-opacity="1" stop-color="rgb(54.652405%, 60.011292%, 90.005493%)" offset="0.253906"/><stop stop-opacity="1" stop-color="rgb(54.931641%, 59.796143%, 90.008545%)" offset="0.257812"/><stop stop-opacity="1" stop-color="rgb(55.209351%, 59.580994%, 90.011597%)" offset="0.261719"/><stop stop-opacity="1" stop-color="rgb(55.488586%, 59.365845%, 90.014648%)" offset="0.265625"/><stop stop-opacity="1" stop-color="rgb(55.767822%, 59.150696%, 90.0177%)" offset="0.269531"/><stop stop-opacity="1" stop-color="rgb(56.047058%, 58.935547%, 90.020752%)" offset="0.273437"/><stop stop-opacity="1" stop-color="rgb(56.326294%, 58.720398%, 90.023804%)" offset="0.277344"/><stop stop-opacity="1" stop-color="rgb(56.60553%, 58.505249%, 90.028381%)" offset="0.28125"/><stop stop-opacity="1" stop-color="rgb(56.884766%, 58.2901%, 90.031433%)" offset="0.285156"/><stop stop-opacity="1" stop-color="rgb(57.164001%, 58.074951%, 90.034485%)" offset="0.289062"/><stop stop-opacity="1" stop-color="rgb(57.441711%, 57.859802%, 90.037537%)" offset="0.292969"/><stop stop-opacity="1" stop-color="rgb(57.720947%, 57.644653%, 90.040588%)" offset="0.296875"/><stop stop-opacity="1" stop-color="rgb(58.000183%, 57.429504%, 90.04364%)" offset="0.300781"/><stop stop-opacity="1" stop-color="rgb(58.279419%, 57.214355%, 90.046692%)" offset="0.304688"/><stop stop-opacity="1" stop-color="rgb(58.558655%, 56.999207%, 90.049744%)" offset="0.308594"/><stop stop-opacity="1" stop-color="rgb(58.837891%, 56.784058%, 90.054321%)" offset="0.3125"/><stop stop-opacity="1" stop-color="rgb(59.117126%, 56.568909%, 90.057373%)" offset="0.316406"/><stop stop-opacity="1" stop-color="rgb(59.396362%, 56.35376%, 90.060425%)" offset="0.320312"/><stop stop-opacity="1" stop-color="rgb(59.674072%, 56.138611%, 90.063477%)" offset="0.324219"/><stop stop-opacity="1" stop-color="rgb(59.953308%, 55.923462%, 90.066528%)" offset="0.328125"/><stop stop-opacity="1" stop-color="rgb(60.232544%, 55.708313%, 90.06958%)" offset="0.332031"/><stop stop-opacity="1" stop-color="rgb(60.51178%, 55.493164%, 90.072632%)" offset="0.335937"/><stop stop-opacity="1" stop-color="rgb(60.791016%, 55.278015%, 90.075684%)" offset="0.339844"/><stop stop-opacity="1" stop-color="rgb(61.070251%, 55.062866%, 90.078735%)" offset="0.34375"/><stop stop-opacity="1" stop-color="rgb(61.349487%, 54.847717%, 90.081787%)" offset="0.347656"/><stop stop-opacity="1" stop-color="rgb(61.628723%, 54.632568%, 90.086365%)" offset="0.351562"/><stop stop-opacity="1" stop-color="rgb(61.906433%, 54.417419%, 90.089417%)" offset="0.355469"/><stop stop-opacity="1" stop-color="rgb(62.185669%, 54.202271%, 90.092468%)" offset="0.359375"/><stop stop-opacity="1" stop-color="rgb(62.464905%, 53.987122%, 90.09552%)" offset="0.363281"/><stop stop-opacity="1" stop-color="rgb(62.744141%, 53.771973%, 90.098572%)" offset="0.367187"/><stop stop-opacity="1" stop-color="rgb(63.023376%, 53.556824%, 90.101624%)" offset="0.371094"/><stop stop-opacity="1" stop-color="rgb(63.302612%, 53.341675%, 90.104675%)" offset="0.375"/><stop stop-opacity="1" stop-color="rgb(63.581848%, 53.126526%, 90.107727%)" offset="0.378906"/><stop stop-opacity="1" stop-color="rgb(63.861084%, 52.911377%, 90.112305%)" offset="0.382812"/><stop stop-opacity="1" stop-color="rgb(64.138794%, 52.696228%, 90.115356%)" offset="0.386719"/><stop stop-opacity="1" stop-color="rgb(64.41803%, 52.481079%, 90.118408%)" offset="0.390625"/><stop stop-opacity="1" stop-color="rgb(64.697266%, 52.26593%, 90.12146%)" offset="0.394531"/><stop stop-opacity="1" stop-color="rgb(64.976501%, 52.050781%, 90.124512%)" offset="0.398437"/><stop stop-opacity="1" stop-color="rgb(65.255737%, 51.835632%, 90.127563%)" offset="0.402344"/><stop stop-opacity="1" stop-color="rgb(65.534973%, 51.620483%, 90.130615%)" offset="0.40625"/><stop stop-opacity="1" stop-color="rgb(65.814209%, 51.405334%, 90.133667%)" offset="0.410156"/><stop stop-opacity="1" stop-color="rgb(66.093445%, 51.190186%, 90.138245%)" offset="0.414062"/><stop stop-opacity="1" stop-color="rgb(66.371155%, 50.975037%, 90.141296%)" offset="0.417969"/><stop stop-opacity="1" stop-color="rgb(66.650391%, 50.759888%, 90.144348%)" offset="0.421875"/><stop stop-opacity="1" stop-color="rgb(66.929626%, 50.544739%, 90.1474%)" offset="0.425781"/><stop stop-opacity="1" stop-color="rgb(67.208862%, 50.32959%, 90.150452%)" offset="0.429688"/><stop stop-opacity="1" stop-color="rgb(67.488098%, 50.114441%, 90.153503%)" offset="0.433594"/><stop stop-opacity="1" stop-color="rgb(67.767334%, 49.899292%, 90.156555%)" offset="0.4375"/><stop stop-opacity="1" stop-color="rgb(68.04657%, 49.684143%, 90.159607%)" offset="0.441406"/><stop stop-opacity="1" stop-color="rgb(68.325806%, 49.468994%, 90.164185%)" offset="0.445312"/><stop stop-opacity="1" stop-color="rgb(68.603516%, 49.253845%, 90.167236%)" offset="0.449219"/><stop stop-opacity="1" stop-color="rgb(68.882751%, 49.038696%, 90.170288%)" offset="0.453125"/><stop stop-opacity="1" stop-color="rgb(69.161987%, 48.823547%, 90.17334%)" offset="0.457031"/><stop stop-opacity="1" stop-color="rgb(69.441223%, 48.608398%, 90.176392%)" offset="0.460937"/><stop stop-opacity="1" stop-color="rgb(69.720459%, 48.39325%, 90.179443%)" offset="0.464844"/><stop stop-opacity="1" stop-color="rgb(69.999695%, 48.178101%, 90.182495%)" offset="0.46875"/><stop stop-opacity="1" stop-color="rgb(70.278931%, 47.962952%, 90.185547%)" offset="0.472656"/><stop stop-opacity="1" stop-color="rgb(70.558167%, 47.747803%, 90.190125%)" offset="0.476562"/><stop stop-opacity="1" stop-color="rgb(70.835876%, 47.532654%, 90.193176%)" offset="0.480469"/><stop stop-opacity="1" stop-color="rgb(71.115112%, 47.317505%, 90.196228%)" offset="0.484375"/><stop stop-opacity="1" stop-color="rgb(71.328735%, 47.160339%, 89.981079%)" offset="0.488281"/><stop stop-opacity="1" stop-color="rgb(71.542358%, 47.0047%, 89.76593%)" offset="0.492188"/><stop stop-opacity="1" stop-color="rgb(71.685791%, 46.908569%, 89.326477%)" offset="0.496094"/><stop stop-opacity="1" stop-color="rgb(71.83075%, 46.812439%, 88.88855%)" offset="0.5"/><stop stop-opacity="1" stop-color="rgb(71.975708%, 46.716309%, 88.449097%)" offset="0.503906"/><stop stop-opacity="1" stop-color="rgb(72.120667%, 46.620178%, 88.009644%)" offset="0.507812"/><stop stop-opacity="1" stop-color="rgb(72.265625%, 46.524048%, 87.57019%)" offset="0.511719"/><stop stop-opacity="1" stop-color="rgb(72.410583%, 46.429443%, 87.130737%)" offset="0.515625"/><stop stop-opacity="1" stop-color="rgb(72.555542%, 46.333313%, 86.691284%)" offset="0.519531"/><stop stop-opacity="1" stop-color="rgb(72.7005%, 46.237183%, 86.251831%)" offset="0.523438"/><stop stop-opacity="1" stop-color="rgb(72.845459%, 46.141052%, 85.812378%)" offset="0.527344"/><stop stop-opacity="1" stop-color="rgb(72.990417%, 46.044922%, 85.372925%)" offset="0.53125"/><stop stop-opacity="1" stop-color="rgb(73.13385%, 45.948792%, 84.933472%)" offset="0.535156"/><stop stop-opacity="1" stop-color="rgb(73.278809%, 45.852661%, 84.494019%)" offset="0.539062"/><stop stop-opacity="1" stop-color="rgb(73.423767%, 45.756531%, 84.054565%)" offset="0.542969"/><stop stop-opacity="1" stop-color="rgb(73.568726%, 45.661926%, 83.615112%)" offset="0.546875"/><stop stop-opacity="1" stop-color="rgb(73.713684%, 45.565796%, 83.175659%)" offset="0.550781"/><stop stop-opacity="1" stop-color="rgb(73.858643%, 45.469666%, 82.736206%)" offset="0.554688"/><stop stop-opacity="1" stop-color="rgb(74.003601%, 45.373535%, 82.296753%)" offset="0.558594"/><stop stop-opacity="1" stop-color="rgb(74.14856%, 45.277405%, 81.8573%)" offset="0.5625"/><stop stop-opacity="1" stop-color="rgb(74.291992%, 45.181274%, 81.417847%)" offset="0.566406"/><stop stop-opacity="1" stop-color="rgb(74.436951%, 45.085144%, 80.978394%)" offset="0.570313"/><stop stop-opacity="1" stop-color="rgb(74.581909%, 44.989014%, 80.53894%)" offset="0.574219"/><stop stop-opacity="1" stop-color="rgb(74.726868%, 44.892883%, 80.099487%)" offset="0.578125"/><stop stop-opacity="1" stop-color="rgb(74.871826%, 44.796753%, 79.660034%)" offset="0.582031"/><stop stop-opacity="1" stop-color="rgb(75.016785%, 44.702148%, 79.220581%)" offset="0.585938"/><stop stop-opacity="1" stop-color="rgb(75.161743%, 44.606018%, 78.781128%)" offset="0.589844"/><stop stop-opacity="1" stop-color="rgb(75.306702%, 44.509888%, 78.341675%)" offset="0.59375"/><stop stop-opacity="1" stop-color="rgb(75.45166%, 44.413757%, 77.902222%)" offset="0.597656"/><stop stop-opacity="1" stop-color="rgb(75.596619%, 44.317627%, 77.462769%)" offset="0.601563"/><stop stop-opacity="1" stop-color="rgb(75.740051%, 44.221497%, 77.023315%)" offset="0.605469"/><stop stop-opacity="1" stop-color="rgb(75.88501%, 44.125366%, 76.583862%)" offset="0.609375"/><stop stop-opacity="1" stop-color="rgb(76.029968%, 44.029236%, 76.144409%)" offset="0.613281"/><stop stop-opacity="1" stop-color="rgb(76.174927%, 43.933105%, 75.704956%)" offset="0.617188"/><stop stop-opacity="1" stop-color="rgb(76.319885%, 43.836975%, 75.265503%)" offset="0.621094"/><stop stop-opacity="1" stop-color="rgb(76.464844%, 43.742371%, 74.82605%)" offset="0.625"/><stop stop-opacity="1" stop-color="rgb(76.609802%, 43.64624%, 74.386597%)" offset="0.628906"/><stop stop-opacity="1" stop-color="rgb(76.754761%, 43.55011%, 73.947144%)" offset="0.632812"/><stop stop-opacity="1" stop-color="rgb(76.899719%, 43.453979%, 73.50769%)" offset="0.636719"/><stop stop-opacity="1" stop-color="rgb(77.044678%, 43.357849%, 73.068237%)" offset="0.640625"/><stop stop-opacity="1" stop-color="rgb(77.18811%, 43.261719%, 72.628784%)" offset="0.644531"/><stop stop-opacity="1" stop-color="rgb(77.333069%, 43.165588%, 72.189331%)" offset="0.648437"/><stop stop-opacity="1" stop-color="rgb(77.478027%, 43.069458%, 71.749878%)" offset="0.652344"/><stop stop-opacity="1" stop-color="rgb(77.622986%, 42.973328%, 71.310425%)" offset="0.65625"/><stop stop-opacity="1" stop-color="rgb(77.767944%, 42.877197%, 70.870972%)" offset="0.660156"/><stop stop-opacity="1" stop-color="rgb(77.912903%, 42.782593%, 70.431519%)" offset="0.664062"/><stop stop-opacity="1" stop-color="rgb(78.057861%, 42.686462%, 69.992065%)" offset="0.667969"/><stop stop-opacity="1" stop-color="rgb(78.20282%, 42.590332%, 69.552612%)" offset="0.671875"/><stop stop-opacity="1" stop-color="rgb(78.347778%, 42.494202%, 69.113159%)" offset="0.675781"/><stop stop-opacity="1" stop-color="rgb(78.492737%, 42.398071%, 68.673706%)" offset="0.679687"/><stop stop-opacity="1" stop-color="rgb(78.636169%, 42.301941%, 68.234253%)" offset="0.683594"/><stop stop-opacity="1" stop-color="rgb(78.781128%, 42.205811%, 67.7948%)" offset="0.6875"/><stop stop-opacity="1" stop-color="rgb(78.926086%, 42.10968%, 67.355347%)" offset="0.691406"/><stop stop-opacity="1" stop-color="rgb(79.071045%, 42.01355%, 66.915894%)" offset="0.695312"/><stop stop-opacity="1" stop-color="rgb(79.216003%, 41.917419%, 66.47644%)" offset="0.699219"/><stop stop-opacity="1" stop-color="rgb(79.360962%, 41.822815%, 66.036987%)" offset="0.703125"/><stop stop-opacity="1" stop-color="rgb(79.50592%, 41.726685%, 65.597534%)" offset="0.707031"/><stop stop-opacity="1" stop-color="rgb(79.650879%, 41.630554%, 65.158081%)" offset="0.710938"/><stop stop-opacity="1" stop-color="rgb(79.794312%, 41.534424%, 64.718628%)" offset="0.714844"/><stop stop-opacity="1" stop-color="rgb(79.93927%, 41.438293%, 64.279175%)" offset="0.71875"/><stop stop-opacity="1" stop-color="rgb(80.084229%, 41.342163%, 63.839722%)" offset="0.722656"/><stop stop-opacity="1" stop-color="rgb(80.229187%, 41.246033%, 63.400269%)" offset="0.726562"/><stop stop-opacity="1" stop-color="rgb(80.374146%, 41.149902%, 62.960815%)" offset="0.730469"/><stop stop-opacity="1" stop-color="rgb(80.519104%, 41.055298%, 62.521362%)" offset="0.734375"/><stop stop-opacity="1" stop-color="rgb(80.664062%, 40.959167%, 62.081909%)" offset="0.738281"/><stop stop-opacity="1" stop-color="rgb(80.809021%, 40.863037%, 61.642456%)" offset="0.742188"/><stop stop-opacity="1" stop-color="rgb(80.953979%, 40.766907%, 61.203003%)" offset="0.746094"/><stop stop-opacity="1" stop-color="rgb(81.098938%, 40.670776%, 60.76355%)" offset="0.75"/><stop stop-opacity="1" stop-color="rgb(81.242371%, 40.574646%, 60.324097%)" offset="0.753906"/><stop stop-opacity="1" stop-color="rgb(81.387329%, 40.478516%, 59.884644%)" offset="0.757812"/><stop stop-opacity="1" stop-color="rgb(81.532288%, 40.382385%, 59.44519%)" offset="0.761719"/><stop stop-opacity="1" stop-color="rgb(81.677246%, 40.286255%, 59.005737%)" offset="0.765625"/><stop stop-opacity="1" stop-color="rgb(81.822205%, 40.190125%, 58.566284%)" offset="0.769531"/><stop stop-opacity="1" stop-color="rgb(81.967163%, 40.09552%, 58.126831%)" offset="0.773438"/><stop stop-opacity="1" stop-color="rgb(82.112122%, 39.99939%, 57.687378%)" offset="0.777344"/><stop stop-opacity="1" stop-color="rgb(82.25708%, 39.903259%, 57.247925%)" offset="0.78125"/><stop stop-opacity="1" stop-color="rgb(82.402039%, 39.807129%, 56.808472%)" offset="0.785156"/><stop stop-opacity="1" stop-color="rgb(82.546997%, 39.710999%, 56.369019%)" offset="0.789062"/><stop stop-opacity="1" stop-color="rgb(82.69043%, 39.614868%, 55.929565%)" offset="0.792969"/><stop stop-opacity="1" stop-color="rgb(82.835388%, 39.518738%, 55.490112%)" offset="0.796875"/><stop stop-opacity="1" stop-color="rgb(82.980347%, 39.422607%, 55.050659%)" offset="0.800781"/><stop stop-opacity="1" stop-color="rgb(83.125305%, 39.326477%, 54.611206%)" offset="0.804688"/><stop stop-opacity="1" stop-color="rgb(83.270264%, 39.230347%, 54.171753%)" offset="0.808594"/><stop stop-opacity="1" stop-color="rgb(83.415222%, 39.135742%, 53.7323%)" offset="0.8125"/><stop stop-opacity="1" stop-color="rgb(83.560181%, 39.039612%, 53.292847%)" offset="0.816406"/><stop stop-opacity="1" stop-color="rgb(83.705139%, 38.943481%, 52.853394%)" offset="0.820313"/><stop stop-opacity="1" stop-color="rgb(83.850098%, 38.847351%, 52.41394%)" offset="0.824219"/><stop stop-opacity="1" stop-color="rgb(83.995056%, 38.751221%, 51.974487%)" offset="0.828125"/><stop stop-opacity="1" stop-color="rgb(84.138489%, 38.65509%, 51.535034%)" offset="0.832031"/><stop stop-opacity="1" stop-color="rgb(84.283447%, 38.55896%, 51.095581%)" offset="0.835938"/><stop stop-opacity="1" stop-color="rgb(84.428406%, 38.46283%, 50.656128%)" offset="0.839844"/><stop stop-opacity="1" stop-color="rgb(84.573364%, 38.366699%, 50.216675%)" offset="0.84375"/><stop stop-opacity="1" stop-color="rgb(84.718323%, 38.270569%, 49.777222%)" offset="0.847656"/><stop stop-opacity="1" stop-color="rgb(84.863281%, 38.175964%, 49.337769%)" offset="0.851563"/><stop stop-opacity="1" stop-color="rgb(85.00824%, 38.079834%, 48.898315%)" offset="0.855469"/><stop stop-opacity="1" stop-color="rgb(85.153198%, 37.983704%, 48.458862%)" offset="0.859375"/><stop stop-opacity="1" stop-color="rgb(85.296631%, 37.887573%, 48.019409%)" offset="0.863281"/><stop stop-opacity="1" stop-color="rgb(85.441589%, 37.791443%, 47.579956%)" offset="0.867188"/><stop stop-opacity="1" stop-color="rgb(85.586548%, 37.695312%, 47.140503%)" offset="0.871094"/><stop stop-opacity="1" stop-color="rgb(85.731506%, 37.599182%, 46.70105%)" offset="0.875"/><stop stop-opacity="1" stop-color="rgb(85.876465%, 37.503052%, 46.261597%)" offset="0.878906"/><stop stop-opacity="1" stop-color="rgb(86.021423%, 37.408447%, 45.822144%)" offset="0.882812"/><stop stop-opacity="1" stop-color="rgb(86.166382%, 37.312317%, 45.38269%)" offset="0.886719"/><stop stop-opacity="1" stop-color="rgb(86.31134%, 37.216187%, 44.943237%)" offset="0.890625"/><stop stop-opacity="1" stop-color="rgb(86.456299%, 37.120056%, 44.503784%)" offset="0.894531"/><stop stop-opacity="1" stop-color="rgb(86.601257%, 37.023926%, 44.064331%)" offset="0.898437"/><stop stop-opacity="1" stop-color="rgb(86.74469%, 36.927795%, 43.624878%)" offset="0.902344"/><stop stop-opacity="1" stop-color="rgb(86.889648%, 36.831665%, 43.185425%)" offset="0.90625"/><stop stop-opacity="1" stop-color="rgb(87.034607%, 36.735535%, 42.745972%)" offset="0.910156"/><stop stop-opacity="1" stop-color="rgb(87.179565%, 36.639404%, 42.306519%)" offset="0.914062"/><stop stop-opacity="1" stop-color="rgb(87.324524%, 36.543274%, 41.867065%)" offset="0.917969"/><stop stop-opacity="1" stop-color="rgb(87.469482%, 36.448669%, 41.427612%)" offset="0.921875"/><stop stop-opacity="1" stop-color="rgb(87.614441%, 36.352539%, 40.988159%)" offset="0.925781"/><stop stop-opacity="1" stop-color="rgb(87.759399%, 36.256409%, 40.548706%)" offset="0.929687"/><stop stop-opacity="1" stop-color="rgb(87.904358%, 36.160278%, 40.109253%)" offset="0.933594"/><stop stop-opacity="1" stop-color="rgb(88.049316%, 36.064148%, 39.6698%)" offset="0.9375"/><stop stop-opacity="1" stop-color="rgb(88.192749%, 35.968018%, 39.230347%)" offset="0.941406"/><stop stop-opacity="1" stop-color="rgb(88.337708%, 35.871887%, 38.790894%)" offset="0.945312"/><stop stop-opacity="1" stop-color="rgb(88.467407%, 35.784912%, 38.394165%)" offset="0.949219"/><stop stop-opacity="1" stop-color="rgb(88.598633%, 35.699463%, 37.998962%)" offset="0.953125"/><stop stop-opacity="1" stop-color="rgb(88.598633%, 35.699463%, 37.998962%)" offset="0.96875"/><stop stop-opacity="1" stop-color="rgb(88.598633%, 35.699463%, 37.998962%)" offset="1"/></linearGradient></defs><g clip-path="url(#63428404cd)"><path fill="url(#672321bd8d)" d="M 0 0.0234375 L 0 71.96875 L 72 71.96875 L 72 0.0234375 Z M 0 0.0234375 " fill-rule="nonzero"/></g></svg>