<svg xmlns="http://www.w3.org/2000/svg" xmlns:xlink="http://www.w3.org/1999/xlink" width="96" zoomAndPan="magnify" viewBox="0 0 72 72" height="96" preserveAspectRatio="xMidYMid meet" version="1.0"><path fill="#524956" d="M 44.660156 12.566406 L 50.230469 12.566406 L 50.230469 26.496094 L 44.660156 26.496094 Z M 44.660156 12.566406 " fill-opacity="1" fill-rule="nonzero"/><path fill="#524956" d="M 38.339844 18.710938 L 38.605469 26.496094 L 36.027344 26.496094 L 34.882812 18.710938 Z M 38.339844 18.710938 " fill-opacity="1" fill-rule="nonzero"/><path fill="#524956" d="M 27.480469 18.964844 L 28.550781 26.496094 L 20.71875 26.496094 L 20.332031 18.964844 L 23.347656 16.339844 L 27.472656 18.964844 Z M 27.480469 18.964844 " fill-opacity="1" fill-rule="nonzero"/><path fill="#655f68" d="M 56.402344 20.226562 L 56.246094 26.496094 L 50.230469 26.496094 L 50.230469 20.226562 Z M 56.402344 20.226562 " fill-opacity="1" fill-rule="nonzero"/><path fill="#655f68" d="M 38.339844 18.710938 L 38.066406 10.921875 L 44.660156 10.921875 L 44.660156 26.496094 L 38.605469 26.496094 Z M 38.339844 18.710938 " fill-opacity="1" fill-rule="nonzero"/><path fill="#655f68" d="M 34.882812 18.710938 L 36.027344 26.496094 L 28.550781 26.496094 L 27.480469 18.964844 L 25.824219 7.355469 L 33.035156 6.175781 Z M 34.882812 18.710938 " fill-opacity="1" fill-rule="nonzero"/><path fill="#655f68" d="M 20.332031 18.964844 L 20.71875 26.496094 L 14.695312 26.496094 L 13.707031 13.058594 L 20.015625 12.890625 Z M 20.332031 18.964844 " fill-opacity="1" fill-rule="nonzero"/><path fill="#60676b" d="M 32.324219 31.160156 C 31.671875 29.910156 31.484375 28.3125 31.605469 26.496094 L 65.582031 26.496094 C 67.046875 28.152344 68.863281 28.660156 71.878906 28.660156 L 71.914062 32.78125 L 33.707031 32.78125 C 33.113281 32.34375 32.65625 31.792969 32.324219 31.160156 Z M 32.324219 31.160156 " fill-opacity="1" fill-rule="nonzero"/><path fill="#888c8d" d="M 32.324219 31.160156 C 32.65625 31.792969 33.113281 32.34375 33.707031 32.78125 L 0.144531 32.78125 L 0.144531 26.496094 L 31.605469 26.496094 C 31.484375 28.3125 31.671875 29.910156 32.324219 31.160156 Z M 32.324219 31.160156 " fill-opacity="1" fill-rule="nonzero"/><path fill="#604533" d="M 51.695312 51.105469 C 51.695312 51.105469 48.796875 51.359375 46.800781 52.847656 C 44.808594 54.339844 37.882812 70.234375 37.882812 70.234375 C 37.882812 70.234375 36.285156 61.523438 36.640625 59.019531 C 37 56.507812 39.199219 53.289062 39.199219 53.289062 C 39.199219 53.289062 36.734375 51.636719 36.335938 48.976562 C 35.9375 46.3125 37.558594 43.5 37.558594 43.5 C 37.558594 43.5 34.59375 42.882812 33.929688 42.066406 C 33.269531 41.242188 34.59375 37.757812 34.59375 37.757812 L 31.5625 37.101562 L 33.707031 32.78125 L 71.914062 32.78125 C 62.640625 36.601562 55.65625 43.128906 51.695312 51.105469 Z M 51.695312 51.105469 " fill-opacity="1" fill-rule="nonzero"/><path fill="#7f5d46" d="M 28.421875 72.027344 C 28.421875 72.027344 20.957031 54.949219 15.441406 50.085938 C 14.707031 49.433594 14.25 48.535156 14.167969 47.550781 C 14.050781 46.054688 13.574219 43.585938 11.835938 40.988281 C 9.027344 36.78125 0.144531 32.78125 0.144531 32.78125 L 33.707031 32.78125 L 31.5625 37.101562 L 34.59375 37.757812 C 34.59375 37.757812 33.269531 41.242188 33.929688 42.066406 C 34.59375 42.882812 37.558594 43.5 37.558594 43.5 C 37.558594 43.5 35.9375 46.3125 36.335938 48.976562 C 36.734375 51.636719 39.199219 53.289062 39.199219 53.289062 C 39.199219 53.289062 37 56.507812 36.640625 59.019531 C 36.285156 61.523438 37.882812 70.234375 37.882812 70.234375 Z M 28.421875 72.027344 " fill-opacity="1" fill-rule="nonzero"/><path fill="#6b4e3b" d="M 32.285156 51.4375 C 31.980469 51.34375 31.65625 51.515625 31.5625 51.820312 C 31.046875 53.503906 29.941406 54.753906 28.207031 55.644531 C 27.457031 54.167969 27.222656 52.359375 27.527344 50.25 C 27.570312 49.933594 27.351562 49.640625 27.035156 49.59375 C 26.722656 49.550781 26.425781 49.769531 26.378906 50.085938 C 26.007812 52.695312 26.375 54.921875 27.46875 56.707031 C 27.855469 57.347656 28.351562 57.941406 28.941406 58.480469 L 26.46875 62.242188 C 26.292969 62.507812 26.367188 62.863281 26.632812 63.039062 L 28.453125 64.257812 C 27.933594 65.347656 27.648438 66.605469 27.589844 68.082031 C 27.574219 68.402344 27.824219 68.671875 28.140625 68.683594 C 28.152344 68.683594 28.15625 68.683594 28.167969 68.683594 C 28.476562 68.683594 28.730469 68.441406 28.746094 68.128906 C 28.808594 66.621094 29.125 65.382812 29.707031 64.347656 C 29.859375 64.085938 29.777344 63.75 29.527344 63.582031 L 27.753906 62.398438 L 30.1875 58.691406 C 30.347656 58.445312 30.296875 58.113281 30.070312 57.925781 C 29.582031 57.53125 29.164062 57.097656 28.816406 56.628906 C 30.773438 55.601562 32.074219 54.105469 32.671875 52.160156 C 32.761719 51.855469 32.59375 51.53125 32.285156 51.4375 Z M 32.285156 51.4375 " fill-opacity="1" fill-rule="nonzero"/><path fill="#543927" d="M 49.480469 47.050781 C 49.558594 47.917969 49.753906 48.753906 50.082031 49.527344 C 50.175781 49.75 50.390625 49.882812 50.617188 49.882812 C 50.691406 49.882812 50.769531 49.867188 50.84375 49.835938 C 51.136719 49.710938 51.273438 49.371094 51.148438 49.078125 C 50.816406 48.296875 50.632812 47.445312 50.601562 46.554688 C 50.558594 45.335938 50.792969 43.980469 51.300781 42.519531 C 51.375 42.308594 51.316406 42.074219 51.15625 41.917969 L 48.261719 39.097656 C 48.035156 38.875 47.667969 38.878906 47.445312 39.109375 C 47.222656 39.339844 47.226562 39.703125 47.457031 39.925781 L 50.089844 42.492188 C 49.707031 43.679688 49.5 44.808594 49.457031 45.863281 C 47.824219 45.457031 46.601562 44.589844 45.648438 43.175781 C 45.46875 42.910156 45.109375 42.84375 44.84375 43.019531 C 44.578125 43.199219 44.511719 43.558594 44.6875 43.824219 C 45.855469 45.554688 47.429688 46.605469 49.480469 47.050781 Z M 49.480469 47.050781 " fill-opacity="1" fill-rule="nonzero"/><path fill="#4f575b" d="M 34.847656 28.585938 C 34.550781 28.46875 34.214844 28.617188 34.097656 28.917969 C 33.882812 29.476562 33.574219 29.890625 33.152344 30.179688 C 32.890625 30.363281 32.824219 30.722656 33.007812 30.984375 C 33.117188 31.148438 33.300781 31.234375 33.484375 31.234375 C 33.597656 31.234375 33.710938 31.203125 33.8125 31.132812 C 34.421875 30.710938 34.882812 30.105469 35.179688 29.332031 C 35.292969 29.035156 35.144531 28.699219 34.847656 28.585938 Z M 34.847656 28.585938 " fill-opacity="1" fill-rule="nonzero"/><path fill="#d6eae8" d="M 0.820312 24.886719 L 2.472656 24.886719 C 2.792969 24.886719 3.050781 24.628906 3.050781 24.308594 C 3.050781 23.988281 2.792969 23.730469 2.472656 23.730469 L 0.820312 23.730469 C 0.5 23.730469 0.242188 23.988281 0.242188 24.308594 C 0.242188 24.628906 0.5 24.886719 0.820312 24.886719 Z M 0.820312 24.886719 " fill-opacity="1" fill-rule="nonzero"/><path fill="#d6eae8" d="M 7.128906 24.886719 C 7.449219 24.886719 7.710938 24.628906 7.710938 24.308594 C 7.710938 23.988281 7.449219 23.730469 7.128906 23.730469 L 5.480469 23.730469 C 5.160156 23.730469 4.902344 23.988281 4.902344 24.308594 C 4.902344 24.628906 5.160156 24.886719 5.480469 24.886719 Z M 7.128906 24.886719 " fill-opacity="1" fill-rule="nonzero"/><path fill="#d6eae8" d="M 11.484375 22.230469 C 11.484375 23.132812 11.171875 23.730469 9.648438 23.730469 C 9.328125 23.730469 9.070312 23.988281 9.070312 24.308594 C 9.070312 24.628906 9.328125 24.886719 9.648438 24.886719 C 12.121094 24.886719 12.640625 23.441406 12.640625 22.230469 C 12.640625 21.910156 12.382812 21.652344 12.0625 21.652344 C 11.742188 21.652344 11.484375 21.910156 11.484375 22.230469 Z M 11.484375 22.230469 " fill-opacity="1" fill-rule="nonzero"/><path fill="#d6eae8" d="M 10.371094 21.511719 C 10.40625 21.511719 10.441406 21.507812 10.480469 21.503906 C 10.792969 21.441406 11 21.140625 10.941406 20.828125 L 10.011719 15.902344 L 11.496094 15.691406 C 11.8125 15.644531 12.03125 15.351562 11.988281 15.035156 C 11.941406 14.71875 11.648438 14.496094 11.332031 14.542969 L 9.246094 14.84375 C 9.089844 14.867188 8.949219 14.953125 8.859375 15.082031 C 8.765625 15.210938 8.730469 15.371094 8.761719 15.523438 L 9.804688 21.039062 C 9.855469 21.320312 10.097656 21.511719 10.371094 21.511719 Z M 10.371094 21.511719 " fill-opacity="1" fill-rule="nonzero"/><path fill="#d6eae8" d="M 10.492188 3.984375 C 10.261719 4.214844 10.230469 4.570312 10.402344 4.84375 C 10.921875 5.660156 11.355469 6.667969 11.25 7.453125 C 11.082031 8.699219 10.179688 9.125 10.140625 9.144531 C 10.140625 9.144531 10.140625 9.148438 10.136719 9.148438 C 10.132812 9.148438 10.128906 9.152344 10.125 9.152344 C 10.0625 9.183594 10.007812 9.230469 9.957031 9.28125 C 9.855469 9.386719 9.792969 9.523438 9.792969 9.675781 C 9.792969 10.058594 10.179688 10.347656 10.550781 10.226562 C 11.636719 9.984375 12.414062 10.226562 12.996094 10.988281 C 13.109375 11.136719 13.28125 11.214844 13.457031 11.214844 C 13.578125 11.214844 13.703125 11.175781 13.808594 11.097656 C 14.0625 10.902344 14.109375 10.539062 13.917969 10.285156 C 13.382812 9.585938 12.695312 9.167969 11.882812 9.03125 C 12.117188 8.660156 12.320312 8.199219 12.398438 7.605469 C 12.488281 6.914062 12.320312 6.207031 12.070312 5.566406 C 12.953125 5.9375 14.035156 6.210938 15.113281 6.023438 C 16.386719 5.796875 17.296875 4.894531 17.894531 4.046875 C 18.203125 5.132812 18.796875 5.882812 19.695312 6.324219 C 19.777344 6.363281 19.863281 6.382812 19.949219 6.382812 C 20.164062 6.382812 20.367188 6.265625 20.46875 6.058594 C 20.609375 5.773438 20.492188 5.425781 20.203125 5.285156 C 19.28125 4.832031 18.839844 3.847656 18.804688 2.179688 C 18.796875 1.902344 18.59375 1.667969 18.316406 1.621094 C 18.046875 1.578125 17.773438 1.738281 17.679688 2 C 17.671875 2.023438 16.746094 4.558594 14.914062 4.882812 C 13.753906 5.085938 12.386719 4.546875 11.347656 3.882812 C 11.074219 3.710938 10.71875 3.753906 10.492188 3.984375 Z M 10.492188 3.984375 " fill-opacity="1" fill-rule="nonzero"/><path fill="#b8d3cf" d="M 24.246094 4.871094 C 24.289062 4.871094 24.335938 4.867188 24.382812 4.855469 L 29.527344 3.613281 C 29.835938 3.535156 30.027344 3.222656 29.953125 2.914062 C 29.878906 2.601562 29.566406 2.414062 29.253906 2.488281 L 24.109375 3.730469 C 23.796875 3.804688 23.605469 4.121094 23.683594 4.429688 C 23.746094 4.695312 23.984375 4.871094 24.246094 4.871094 Z M 24.246094 4.871094 " fill-opacity="1" fill-rule="nonzero"/><path fill="#b8d3cf" d="M 23.828125 11.070312 C 23.515625 11.125 23.304688 11.425781 23.363281 11.742188 L 23.675781 13.472656 C 23.726562 13.753906 23.96875 13.949219 24.246094 13.949219 C 24.277344 13.949219 24.3125 13.945312 24.347656 13.9375 C 24.664062 13.882812 24.871094 13.582031 24.816406 13.265625 L 24.503906 11.535156 C 24.445312 11.222656 24.148438 11.007812 23.828125 11.070312 Z M 23.828125 11.070312 " fill-opacity="1" fill-rule="nonzero"/><path fill="#e7f2f1" d="M 23.523438 9.378906 C 23.839844 9.324219 24.050781 9.019531 23.992188 8.707031 L 23.726562 7.21875 C 23.671875 6.90625 23.371094 6.695312 23.054688 6.75 C 22.742188 6.808594 22.53125 7.109375 22.585938 7.421875 L 22.855469 8.910156 C 22.902344 9.191406 23.148438 9.386719 23.421875 9.386719 C 23.457031 9.386719 23.492188 9.386719 23.523438 9.378906 Z M 23.523438 9.378906 " fill-opacity="1" fill-rule="nonzero"/><path fill="#b8d3cf" d="M 40.796875 5.71875 C 40.796875 5.398438 40.539062 5.140625 40.21875 5.140625 L 35.917969 5.140625 C 35.597656 5.140625 35.339844 5.398438 35.339844 5.71875 C 35.339844 6.039062 35.597656 6.296875 35.917969 6.296875 L 40.21875 6.296875 C 40.539062 6.296875 40.796875 6.039062 40.796875 5.71875 Z M 40.796875 5.71875 " fill-opacity="1" fill-rule="nonzero"/><path fill="#e7f2f1" d="M 40.40625 7.617188 L 37.726562 7.617188 C 37.40625 7.617188 37.144531 7.875 37.144531 8.195312 C 37.144531 8.515625 37.40625 8.773438 37.726562 8.773438 L 40.40625 8.773438 C 40.722656 8.773438 40.984375 8.515625 40.984375 8.195312 C 40.984375 7.875 40.722656 7.617188 40.40625 7.617188 Z M 40.40625 7.617188 " fill-opacity="1" fill-rule="nonzero"/><path fill="#d6eae8" d="M 48.113281 4.683594 C 49.5 4.855469 50.710938 4.566406 51.550781 4.25 C 51.382812 5.070312 51.308594 6.078125 51.710938 6.691406 C 52.109375 7.292969 52.738281 7.613281 53.230469 7.777344 C 52.988281 8.609375 53.082031 9.375 53.515625 10.058594 C 53.625 10.234375 53.8125 10.332031 54.007812 10.332031 C 54.113281 10.332031 54.21875 10.300781 54.3125 10.242188 C 54.585938 10.070312 54.664062 9.714844 54.496094 9.441406 C 54.171875 8.933594 54.183594 8.335938 54.527344 7.625 C 54.609375 7.457031 54.601562 7.257812 54.511719 7.09375 C 54.421875 6.929688 54.257812 6.820312 54.074219 6.796875 C 54.0625 6.796875 53.089844 6.671875 52.679688 6.054688 C 52.429688 5.679688 52.640625 4.359375 52.988281 3.363281 C 53.074219 3.128906 52.996094 2.867188 52.796875 2.714844 C 52.601562 2.5625 52.328125 2.550781 52.121094 2.691406 C 52.105469 2.699219 50.421875 3.800781 48.253906 3.535156 C 46.226562 3.28125 45.269531 0.480469 45.261719 0.453125 C 45.167969 0.179688 44.894531 0.015625 44.609375 0.0664062 C 44.324219 0.117188 44.121094 0.371094 44.132812 0.65625 C 44.164062 1.503906 44.136719 4.339844 42.445312 5.203125 C 42.160156 5.347656 42.046875 5.695312 42.191406 5.980469 C 42.335938 6.265625 42.683594 6.378906 42.972656 6.234375 C 44.347656 5.53125 44.929688 4.058594 45.15625 2.726562 C 45.792969 3.617188 46.757812 4.515625 48.113281 4.683594 Z M 48.113281 4.683594 " fill-opacity="1" fill-rule="nonzero"/><path fill="#e7f2f1" d="M 52.574219 12.585938 C 52.621094 12.585938 52.671875 12.582031 52.71875 12.570312 C 53.027344 12.492188 53.214844 12.179688 53.136719 11.867188 C 52.785156 10.457031 51.785156 9.691406 50.25 9.648438 C 49.9375 9.640625 49.664062 9.890625 49.652344 10.210938 C 49.644531 10.53125 49.898438 10.796875 50.21875 10.804688 C 51.234375 10.832031 51.789062 11.246094 52.015625 12.148438 C 52.082031 12.414062 52.316406 12.585938 52.574219 12.585938 Z M 52.574219 12.585938 " fill-opacity="1" fill-rule="nonzero"/><path fill="#b8d3cf" d="M 52.578125 17.246094 C 52.894531 17.246094 53.15625 16.988281 53.15625 16.667969 L 53.15625 14.382812 C 53.15625 14.0625 52.894531 13.804688 52.578125 13.804688 C 52.257812 13.804688 51.996094 14.0625 51.996094 14.382812 L 51.996094 16.667969 C 51.996094 16.988281 52.257812 17.246094 52.578125 17.246094 Z M 52.578125 17.246094 " fill-opacity="1" fill-rule="nonzero"/><path fill="#d6eae8" d="M 55.851562 18.578125 L 58.417969 18.578125 L 58.417969 22.421875 C 58.417969 22.742188 58.675781 23 58.996094 23 C 59.316406 23 59.574219 22.742188 59.574219 22.421875 L 59.574219 18 C 59.574219 17.679688 59.316406 17.421875 58.996094 17.421875 L 55.851562 17.421875 C 55.53125 17.421875 55.273438 17.679688 55.273438 18 C 55.273438 18.320312 55.53125 18.578125 55.851562 18.578125 Z M 55.851562 18.578125 " fill-opacity="1" fill-rule="nonzero"/><path fill="#d6eae8" d="M 61.699219 24.957031 L 64.75 24.957031 C 65.070312 24.957031 65.328125 24.699219 65.328125 24.378906 C 65.328125 24.058594 65.070312 23.800781 64.75 23.800781 L 61.699219 23.800781 C 61.378906 23.800781 61.117188 24.058594 61.117188 24.378906 C 61.117188 24.699219 61.378906 24.957031 61.699219 24.957031 Z M 61.699219 24.957031 " fill-opacity="1" fill-rule="nonzero"/><path fill="#ef9d26" d="M 20.914062 65.308594 C 20.792969 65.011719 20.453125 64.875 20.15625 64.992188 C 19.863281 65.117188 19.722656 65.453125 19.84375 65.75 C 20.195312 66.605469 20.515625 67.484375 20.792969 68.359375 C 20.871094 68.605469 21.097656 68.765625 21.34375 68.765625 C 21.402344 68.765625 21.460938 68.757812 21.519531 68.738281 C 21.824219 68.640625 21.992188 68.316406 21.898438 68.011719 C 21.609375 67.101562 21.277344 66.191406 20.914062 65.308594 Z M 20.914062 65.308594 " fill-opacity="1" fill-rule="nonzero"/><path fill="#ef9d26" d="M 17.265625 59.070312 C 17.0625 58.820312 16.699219 58.78125 16.449219 58.984375 C 16.199219 59.183594 16.164062 59.550781 16.363281 59.796875 C 17.082031 60.6875 17.753906 61.675781 18.359375 62.726562 C 18.46875 62.914062 18.664062 63.015625 18.863281 63.015625 C 18.960938 63.015625 19.058594 62.992188 19.152344 62.941406 C 19.429688 62.78125 19.523438 62.425781 19.363281 62.148438 C 18.726562 61.046875 18.019531 60.007812 17.265625 59.070312 Z M 17.265625 59.070312 " fill-opacity="1" fill-rule="nonzero"/><path fill="#ef9d26" d="M 7.339844 49.894531 C 7.355469 49.894531 9.074219 50.0625 10.121094 51.269531 C 11.097656 52.402344 10.515625 54.320312 10.507812 54.339844 C 10.460938 54.492188 10.476562 54.660156 10.558594 54.800781 C 10.636719 54.9375 10.769531 55.039062 10.925781 55.078125 C 12.585938 55.476562 13.675781 56.265625 14.253906 57.5 C 14.351562 57.707031 14.558594 57.832031 14.777344 57.832031 C 14.859375 57.832031 14.941406 57.8125 15.023438 57.777344 C 15.3125 57.640625 15.4375 57.296875 15.300781 57.007812 C 14.644531 55.605469 13.449219 54.628906 11.75 54.101562 C 11.898438 53.257812 12 51.675781 10.996094 50.511719 C 10.035156 49.402344 8.683594 48.976562 7.953125 48.824219 C 7.84375 46.914062 7.230469 45.160156 6.121094 43.609375 C 5.933594 43.351562 5.574219 43.289062 5.3125 43.476562 C 5.050781 43.660156 4.992188 44.023438 5.179688 44.285156 C 6.242188 45.769531 6.792969 47.464844 6.8125 49.324219 C 6.816406 49.621094 7.042969 49.867188 7.339844 49.894531 Z M 7.339844 49.894531 " fill-opacity="1" fill-rule="nonzero"/><path fill="#e58e1a" d="M 1.050781 39.378906 C 0.769531 39.226562 0.417969 39.332031 0.265625 39.613281 C 0.113281 39.894531 0.21875 40.246094 0.5 40.398438 C 1.339844 40.855469 2.109375 41.347656 2.785156 41.863281 C 2.890625 41.945312 3.015625 41.984375 3.136719 41.984375 C 3.308594 41.984375 3.484375 41.90625 3.597656 41.757812 C 3.789062 41.503906 3.742188 41.140625 3.488281 40.945312 C 2.765625 40.394531 1.945312 39.867188 1.050781 39.378906 Z M 1.050781 39.378906 " fill-opacity="1" fill-rule="nonzero"/><path fill="#ffc05a" d="M 16.875 67.007812 C 16.746094 66.71875 16.40625 66.582031 16.113281 66.710938 C 15.820312 66.839844 15.6875 67.183594 15.816406 67.472656 C 16.113281 68.148438 16.378906 68.902344 16.632812 69.777344 C 16.707031 70.03125 16.9375 70.195312 17.191406 70.195312 C 17.242188 70.195312 17.296875 70.1875 17.351562 70.171875 C 17.65625 70.082031 17.835938 69.761719 17.746094 69.453125 C 17.476562 68.53125 17.191406 67.730469 16.875 67.007812 Z M 16.875 67.007812 " fill-opacity="1" fill-rule="nonzero"/><path fill="#ffc05a" d="M 12.003906 62.019531 C 12.128906 61.058594 12.21875 59.109375 11.128906 58.070312 C 10.265625 57.25 9.109375 57.101562 8.328125 57.121094 C 8.597656 55.488281 8.058594 54.058594 6.746094 52.949219 C 6.5 52.742188 6.136719 52.773438 5.929688 53.019531 C 5.722656 53.261719 5.753906 53.628906 6 53.832031 C 7.175781 54.832031 7.511719 56.0625 7.023438 57.605469 C 6.960938 57.800781 7.007812 58.015625 7.148438 58.167969 C 7.285156 58.320312 7.496094 58.390625 7.699219 58.34375 C 7.714844 58.339844 9.371094 57.996094 10.332031 58.910156 C 11.125 59.664062 10.925781 61.628906 10.78125 62.320312 C 10.71875 62.628906 10.914062 62.933594 11.21875 63.003906 C 12.511719 63.304688 13.589844 64.03125 14.515625 65.230469 C 14.628906 65.378906 14.800781 65.457031 14.972656 65.457031 C 15.097656 65.457031 15.222656 65.414062 15.324219 65.335938 C 15.578125 65.140625 15.625 64.777344 15.429688 64.523438 C 14.476562 63.285156 13.324219 62.445312 12.003906 62.019531 Z M 12.003906 62.019531 " fill-opacity="1" fill-rule="nonzero"/><path fill="#ef9d26" d="M 47.300781 63.886719 C 47.007812 63.753906 46.667969 63.882812 46.535156 64.171875 C 45.996094 65.347656 45.558594 66.625 45.226562 67.972656 C 45.148438 68.28125 45.339844 68.59375 45.648438 68.671875 C 45.695312 68.683594 45.742188 68.6875 45.789062 68.6875 C 46.046875 68.6875 46.285156 68.511719 46.347656 68.25 C 46.664062 66.972656 47.082031 65.761719 47.585938 64.652344 C 47.71875 64.363281 47.589844 64.019531 47.300781 63.886719 Z M 47.300781 63.886719 " fill-opacity="1" fill-rule="nonzero"/><path fill="#ef9d26" d="M 53.085938 58.152344 C 53.097656 57.496094 53.320312 55.640625 54.226562 54.953125 C 55.382812 54.082031 57.660156 54.167969 57.6875 54.167969 C 57.949219 54.191406 58.214844 53.988281 58.277344 53.714844 C 58.917969 50.769531 59.945312 48.226562 61.328125 46.15625 C 61.507812 45.890625 61.433594 45.53125 61.167969 45.351562 C 60.902344 45.175781 60.542969 45.246094 60.367188 45.511719 C 58.972656 47.597656 57.925781 50.117188 57.25 53.007812 C 56.398438 53.03125 54.648438 53.183594 53.53125 54.03125 C 52.273438 54.980469 52.003906 57.015625 51.945312 57.8125 C 50.542969 58.707031 49.324219 59.835938 48.3125 61.175781 C 48.121094 61.429688 48.171875 61.792969 48.425781 61.988281 C 48.53125 62.066406 48.652344 62.101562 48.773438 62.101562 C 48.949219 62.101562 49.121094 62.023438 49.238281 61.875 C 50.21875 60.570312 51.421875 59.480469 52.808594 58.640625 C 52.976562 58.535156 53.082031 58.351562 53.085938 58.152344 Z M 53.085938 58.152344 " fill-opacity="1" fill-rule="nonzero"/><path fill="#e58e1a" d="M 66.621094 40.46875 C 66.453125 40.195312 66.097656 40.109375 65.824219 40.273438 C 64.714844 40.953125 63.699219 41.730469 62.800781 42.589844 C 62.570312 42.8125 62.5625 43.179688 62.785156 43.410156 C 62.898438 43.527344 63.050781 43.585938 63.203125 43.585938 C 63.347656 43.585938 63.492188 43.535156 63.605469 43.425781 C 64.4375 42.625 65.390625 41.894531 66.425781 41.261719 C 66.699219 41.097656 66.785156 40.742188 66.621094 40.46875 Z M 66.621094 40.46875 " fill-opacity="1" fill-rule="nonzero"/><path fill="#ffc05a" d="M 62.355469 53.425781 C 60.605469 54.417969 59.597656 55.984375 59.355469 58.089844 C 58.484375 57.921875 56.984375 57.773438 55.902344 58.394531 C 54.695312 59.09375 54.46875 60.375 54.441406 61.085938 C 52.792969 61.609375 51.828125 62.695312 51.574219 64.324219 C 51.527344 64.636719 51.742188 64.933594 52.058594 64.984375 C 52.089844 64.988281 52.117188 64.992188 52.148438 64.992188 C 52.429688 64.992188 52.675781 64.785156 52.71875 64.5 C 52.921875 63.203125 53.699219 62.4375 55.164062 62.085938 C 55.449219 62.019531 55.636719 61.746094 55.605469 61.457031 C 55.601562 61.441406 55.453125 59.992188 56.480469 59.398438 C 57.429688 58.851562 59.132812 59.1875 59.710938 59.363281 C 59.882812 59.414062 60.070312 59.382812 60.214844 59.277344 C 60.363281 59.175781 60.453125 59.007812 60.457031 58.828125 C 60.53125 56.769531 61.339844 55.328125 62.925781 54.433594 C 63.203125 54.277344 63.300781 53.921875 63.144531 53.644531 C 62.988281 53.367188 62.632812 53.269531 62.355469 53.425781 Z M 62.355469 53.425781 " fill-opacity="1" fill-rule="nonzero"/></svg>